{
.appVersion = "1346";
DisplayStrings = (
"",
"¢¤$/euro/florin/hryvnia/ruble/sheqel £/tenge/tugrik ¥/divisionslash +/minus ×÷=/notequal ></greaterequal/lessequal ±/approxequal ~¬/infinity/integral/increment/product/summation/radical/partialdiff µ%/perthousand/plus.case/minus.case/multiply.case/divide.case/equal.case/notequal.case/approxequal.case/asciitilde.case/lozenge @&¶§©®/trademark °|¦/dagger/daggerdbl/estimated/numero ^/at.case"
);
classes = (
{
code = "zero one two three four five six seven eight nine parenleft parenright";
name = standard;
},
{
code = "zerosuperior onesuperior twosuperior threesuperior foursuperior fivesuperior sixsuperior sevensuperior eightsuperior ninesuperior parenleftsuperior parenrightsuperior";
name = sups;
},
{
code = "zeroinferior oneinferior twoinferior threeinferior fourinferior fiveinferior sixinferior seveninferior eightinferior nineinferior parenleftinferior parenrightinferior";
name = subs;
},
{
code = "zero.numerator one.numerator two.numerator three.numerator four.numerator five.numerator six.numerator seven.numerator eight.numerator nine.numerator parenleft.numerator parenright.numerator";
name = numerator;
},
{
code = "zero.denominator one.denominator two.denominator three.denominator four.denominator five.denominator six.denominator seven.denominator eight.denominator nine.denominator parenleft.denominator parenright.denominator";
name = denominator;
},
{
code = "zero.otlf one.otlf two.otlf three.otlf four.otlf five.otlf six.otlf seven.otlf eight.otlf nine.otlf parenleft.otlf parenright.otlf";
name = tnum1;
},
{
code = "alef-hb bet-hb gimel-hb dalet-hb he-hb vav-hb zayin-hb het-hb tet-hb yod-hb finalkaf-hb kaf-hb lamed-hb finalmem-hb mem-hb finalnun-hb nun-hb samekh-hb ayin-hb finalpe-hb pe-hb finaltsadi-hb tsadi-hb qof-hb resh-hb shin-hb tav-hb ";
name = HebrewLetters;
}
);
copyright = "Copyright 2015 The Rubik Project Authors (https://github.com/googlefonts/rubik)";
customParameters = (
{
name = license;

glyphs = (
{
color = 1;
glyphname = A;
layers = (
{
anchors = (
{
name = bottom;
position = "{378, 0}";
},
{
name = ogonek;
position = "{679, 10}";
},
{
name = top;
position = "{378, 700}";
}
);
layerId = "EC64484B-0978-4CB1-9EE9-C40A2D8C4059";
paths = (
{
closed = 1;
nodes = (
"233 0 OFFCURVE",
"242 14 OFFCURVE",
"246 25 CURVE SMOOTH",
"270 91 LINE",
"485 91 LINE",
"509 25 LINE SMOOTH",
"513 14 OFFCURVE",
"522 0 OFFCURVE",
"548 0 CURVE SMOOTH",
"733 0 LINE SMOOTH",
"745 0 OFFCURVE",
"755 10 OFFCURVE",
"755 22 CURVE SMOOTH",
"755 24 OFFCURVE",
"755 26 OFFCURVE",
"754 29 CURVE SMOOTH",
"531 667 LINE",
"527 682 OFFCURVE",
"513 700 OFFCURVE",
"486 700 CURVE SMOOTH",
"269 700 LINE SMOOTH",
"242 700 OFFCURVE",
"228 682 OFFCURVE",
"224 667 CURVE",
"1 29 LINE SMOOTH",
"0 26 OFFCURVE",
"0 24 OFFCURVE",
"0 22 CURVE SMOOTH",
"0 10 OFFCURVE",
"10 0 OFFCURVE",
"22 0 CURVE SMOOTH",
"207 0 LINE SMOOTH"
);
},
{
closed = 1;
nodes = (
"434 286 LINE",
"321 286 LINE",
"377 472 LINE"
);
},
{
closed = 1;
nodes = (
"591.963 94.07 OFFCURVE",
"588.143 88.574 OFFCURVE",
"585.616 77.626 CURVE",
"583.696 69.312 OFFCURVE",
"580.72 67.797 OFFCURVE",
"572.22 67.053 CURVE",
"562.714 66.222 OFFCURVE",
"558.16 65.183 OFFCURVE",
"554.431 73.967 CURVE",
"550.297 83.706 OFFCURVE",
"551.206 87.644 OFFCURVE",
"559.191 94.585 CURVE",
"568.147 102.37 OFFCURVE",
"572.159 105.969 OFFCURVE",
"582.331 99.858 CURVE"
);
},
{
closed = 1;
nodes = (
"632.584 175.144 OFFCURVE",
"632.203 171.482 OFFCURVE",
"623.994 168.165 CURVE",
"614.699 164.41 OFFCURVE",
"610.655 163.75 OFFCURVE",
"604.211 171.43 CURVE",
"596.125 181.067 OFFCURVE",
"590.981 185.05 OFFCURVE",
"597.647 195.718 CURVE",
"604.97 207.437 OFFCURVE",
"610.156 208.66 OFFCURVE",
"623.564 205.317 CURVE",
"634.691 202.543 OFFCURVE",
"631.166 195.416 OFFCURVE",
"631.966 183.977 CURVE"
);
},
{
closed = 1;
nodes = (
"304.733 238.362 OFFCURVE",
"291.028 225.597 OFFCURVE",
"272.554 196.034 CURVE",
"257.597 172.098 OFFCURVE",
"247.017 169.568 OFFCURVE",
"219.63 176.396 CURVE",
"183.921 185.299 OFFCURVE",
"160.745 180.196 OFFCURVE",
"158.178 216.908 CURVE",
"155.49 255.345 OFFCURVE",
"174.297 259.488 OFFCURVE",
"210.022 273.922 CURVE",
"243.792 287.566 OFFCURVE",
"258.914 292.967 OFFCURVE",
"282.325 265.067 CURVE"
);
},
{
closed = 1;
nodes = (
"505.286 459.895 OFFCURVE",
"507.701 454.407 OFFCURVE",
"502.372 439.765 CURVE",
"497.042 425.124 OFFCURVE",
"491.665 422.472 OFFCURVE",
"476.093 423.016 CURVE",
"459.565 423.593 OFFCURVE",
"452.72 424.834 OFFCURVE",
"448.162 440.731 CURVE",
"444.05 455.072 OFFCURVE",
"454.566 455.58 OFFCURVE",
"466.935 463.923 CURVE",
"477.986 471.377 OFFCURVE",
"482.503 477.695 OFFCURVE",
"493.007 469.488 CURVE"
);
},
{
closed = 1;
nodes = (
"163.709 61.474 OFFCURVE",
"170.519 46.709 OFFCURVE",
"143.987 33.769 CURVE",
"113.874 19.082 OFFCURVE",
"101.271 21.304 OFFCURVE",
"77.998 45.404 CURVE",
"58.115 65.993 OFFCURVE",
"73.777 76.63 OFFCURVE",
"87.214 101.901 CURVE",
"98.52 123.164 OFFCURVE",
"103.098 133.498 OFFCURVE",
"126.814 129.316 CURVE",
"151.756 124.918 OFFCURVE",
"156.076 115.786 OFFCURVE",
"159.601 90.706 CURVE"
);
},
{
closed = 1;
nodes = (
"646.235 106.21 OFFCURVE",
"645.821 101.383 OFFCURVE",
"645.998 91.262 CURVE",
"646.138 83.236 OFFCURVE",
"642.497 82.267 OFFCURVE",
"634.907 79.654 CURVE",
"627.642 77.152 OFFCURVE",
"624.443 76.438 OFFCURVE",
"619.819 82.575 CURVE",
"614.288 89.915 OFFCURVE",
"611.803 93.222 OFFCURVE",
"617.074 100.751 CURVE",
"623.161 109.443 OFFCURVE",
"626.408 112.272 OFFCURVE",
"636.555 109.17 CURVE"
);
},
{
closed = 1;
nodes = (
"176.172 367.33 OFFCURVE",
"179.426 364.508 OFFCURVE",
"177.766 354.028 CURVE",
"176.216 344.243 OFFCURVE",
"170.975 344.722 OFFCURVE",
"161.19 343.172 CURVE",
"151.034 341.564 OFFCURVE",
"145.848 338.758 OFFCURVE",
"141.18 347.92 CURVE",
"136.213 357.669 OFFCURVE",
"139.242 361.284 OFFCURVE",
"146.979 369.021 CURVE",
"154.045 376.086 OFFCURVE",
"157.815 376.684 OFFCURVE",
"166.718 372.147 CURVE"
);
},
{
closed = 1;
nodes = (
"476.115 551.266 OFFCURVE",
"467.678 541.095 OFFCURVE",
"464.717 522.402 CURVE",
"462.24 506.765 OFFCURVE",
"462.33 498.846 OFFCURVE",
"446.693 496.369 CURVE",
"427.72 493.364 OFFCURVE",
"419.536 492.994 OFFCURVE",
"410.815 510.11 CURVE",
"401.978 527.453 OFFCURVE",
"406.316 534.157 OFFCURVE",
"420.08 547.92 CURVE",
"434.558 562.399 OFFCURVE",
"441.008 569.154 OFFCURVE",
"459.252 559.858 CURVE"
);
},
{
closed = 1;
nodes = (
"359.857 562.761 OFFCURVE",
"350.174 557.88 OFFCURVE",
"333.88 544.686 CURVE",
"315.499 529.801 OFFCURVE",
"309.238 515.701 OFFCURVE",
"289.402 528.582 CURVE",
"265.209 544.294 OFFCURVE",
"258.272 553.336 OFFCURVE",
"265.738 581.2 CURVE",
"273.275 609.328 OFFCURVE",
"283.407 614.41 OFFCURVE",
"312.488 615.934 CURVE",
"338.516 617.298 OFFCURVE",
"343.003 606.668 OFFCURVE",
"352.343 582.335 CURVE"
);
},
{
closed = 1;
nodes = (
"542.551 319 OFFCURVE",
"542.346 316.962 OFFCURVE",
"537.804 314.843 CURVE",
"532.73 312.477 OFFCURVE",
"530.505 312.085 OFFCURVE",
"526.686 316.18 CURVE",
"522.868 320.275 OFFCURVE",
"523.414 322.467 OFFCURVE",
"526.128 327.363 CURVE",
"528.442 331.536 OFFCURVE",
"530.652 330.782 OFFCURVE",
"535.336 329.871 CURVE",
"539.681 329.027 OFFCURVE",
"541.401 328.369 OFFCURVE",
"541.94 323.975 CURVE"
);
},
{
closed = 1;
nodes = (
"540.685 117.211 OFFCURVE",
"545.432 116.38 OFFCURVE",
"543.59 108.401 CURVE",
"541.474 99.237 OFFCURVE",
"538.763 96.881 OFFCURVE",
"529.394 96.061 CURVE",
"520.818 95.311 OFFCURVE",
"519.397 98.996 OFFCURVE",
"516.033 106.92 CURVE",
"512.67 114.845 OFFCURVE",
"511.006 118.427 OFFCURVE",
"517.503 124.075 CURVE",
"523.683 129.448 OFFCURVE",
"526.646 125.646 OFFCURVE",
"533.665 121.429 CURVE"
);
},
{
closed = 1;
nodes = (
"126.823 207.707 OFFCURVE",
"128.441 204.293 OFFCURVE",
"124.649 195.358 CURVE",
"120.96 186.669 OFFCURVE",
"117.096 186.234 OFFCURVE",
"107.693 187.057 CURVE",
"98.909 187.826 OFFCURVE",
"96.368 190.035 OFFCURVE",
"94.384 198.626 CURVE",
"92.579 206.447 OFFCURVE",
"95.939 208.152 OFFCURVE",
"102.82 212.286 CURVE",
"110.008 216.605 OFFCURVE",
"113.168 219.577 OFFCURVE",
"119.497 214.075 CURVE"
);
},
{
closed = 1;
nodes = (
"674.023 137.442 OFFCURVE",
"679.393 137.213 OFFCURVE",
"677.59 129.401 CURVE",
"675.786 121.589 OFFCURVE",
"670.858 123.737 OFFCURVE",
"662.872 123.038 CURVE",
"655.662 122.407 OFFCURVE",
"651.941 120.868 OFFCURVE",
"649.113 127.53 CURVE",
"646.203 134.385 OFFCURVE",
"649.163 136.416 OFFCURVE",
"654.783 141.302 CURVE",
"659.451 145.36 OFFCURVE",
"661.849 144.757 OFFCURVE",
"667.15 141.572 CURVE"
);
},
{
closed = 1;
nodes = (
"261.772 451.01 OFFCURVE",
"262.649 447.108 OFFCURVE",
"256.745 438.676 CURVE",
"250.322 429.503 OFFCURVE",
"246.86 426.6 OFFCURVE",
"236.153 429.874 CURVE",
"222.668 433.996 OFFCURVE",
"215.25 434.431 OFFCURVE",
"215.004 448.529 CURVE",
"214.754 462.841 OFFCURVE",
"221.629 464.196 OFFCURVE",
"235.163 468.856 CURVE",
"245.833 472.53 OFFCURVE",
"248.786 468.243 OFFCURVE",
"255.577 459.231 CURVE"
);
},
{
closed = 1;
nodes = (
"454.231 245.547 OFFCURVE",
"451.642 244.137 OFFCURVE",
"448.202 240.316 CURVE",
"445.781 237.627 OFFCURVE",
"444.272 238.961 OFFCURVE",
"440.966 240.432 CURVE",
"436.535 242.405 OFFCURVE",
"432.548 241.222 OFFCURVE",
"433.055 246.045 CURVE",
"433.64 251.613 OFFCURVE",
"435.653 252.639 OFFCURVE",
"441.129 253.803 CURVE",
"446.605 254.967 OFFCURVE",
"448.861 254.849 OFFCURVE",
"451.66 250 CURVE"
);
},
{
closed = 1;
nodes = (
"302.722 364.54 OFFCURVE",
"304.819 362.262 OFFCURVE",
"300.778 358.222 CURVE",
"296.738 354.181 OFFCURVE",
"294.46 356.278 OFFCURVE",
"289.368 358.872 CURVE",
"285.424 360.882 OFFCURVE",
"285.394 362.723 OFFCURVE",
"286.086 367.095 CURVE",
"286.89 372.173 OFFCURVE",
"286.358 375.073 OFFCURVE",
"291.436 375.877 CURVE",
"296.721 376.714 OFFCURVE",
"297.698 374.4 OFFCURVE",
"300.128 369.632 CURVE"
);
}
);
width = 755;
}
);
leftKerningGroup = A;
rightKerningGroup = A;
unicode = 0041;
userData = {
com.typemytype.robofont.guides = (
{
angle = 0;
isGlobal = 0;
magnetic = 5;
x = 0;
y = 680;
},
{
angle = 90;
isGlobal = 0;
magnetic = 5;
x = 35;
y = 0;
},
{
angle = 90;
isGlobal = 0;
magnetic = 5;
x = 637;
y = 0;
},
{
angle = 90;
isGlobal = 0;
magnetic = 5;
x = 336;
y = 0;
}
);
};
},
{
color = 1;
glyphname = Aogonek;
layers = (
{
hints = (
{
horizontal = 1;
place = "{-2147483648, 0}";
type = Tag;
name = hr01;
}
);
layerId = "EC64484B-0978-4CB1-9EE9-C40A2D8C4059";
paths = (
{
closed = 1;
nodes = (
"733 -220 OFFCURVE",
"745 -208 OFFCURVE",
"745 -193 CURVE SMOOTH",
"745 -125 LINE SMOOTH",
"745 -110 OFFCURVE",
"733 -98 OFFCURVE",
"718 -98 CURVE SMOOTH",
"708 -98 LINE SMOOTH",
"669 -98 OFFCURVE",
"658 -70 OFFCURVE",
"658 -49 CURVE SMOOTH",
"658 -29 OFFCURVE",
"668 -2 OFFCURVE",
"702 0 CURVE SMOOTH",
"733 0 LINE SMOOTH",
"745 0 OFFCURVE",
"755 10 OFFCURVE",
"755 22 CURVE SMOOTH",
"755 24 OFFCURVE",
"755 26 OFFCURVE",
"754 29 CURVE SMOOTH",
"531 667 LINE",
"527 682 OFFCURVE",
"513 700 OFFCURVE",
"486 700 CURVE SMOOTH",
"269 700 LINE SMOOTH",
"242 700 OFFCURVE",
"228 682 OFFCURVE",
"224 667 CURVE",
"1 29 LINE SMOOTH",
"0 26 OFFCURVE",
"0 24 OFFCURVE",
"0 22 CURVE SMOOTH",
"0 10 OFFCURVE",
"10 0 OFFCURVE",
"22 0 CURVE SMOOTH",
"207 0 LINE SMOOTH",
"233 0 OFFCURVE",
"242 14 OFFCURVE",
"246 25 CURVE SMOOTH",
"270 91 LINE",
"485 91 LINE",
"509 25 LINE SMOOTH",
"512 15 OFFCURVE",
"519 3 OFFCURVE",
"537 0 CURVE",
"534 -15 OFFCURVE",
"532 -31 OFFCURVE",
"532 -49 CURVE SMOOTH",
"532 -144 OFFCURVE",
"583 -220 OFFCURVE",
"704 -220 CURVE SMOOTH",
"718 -220 LINE SMOOTH"
);
},
{
closed = 1;
nodes = (
"434 286 LINE",
"321 286 LINE",
"377 472 LINE"
);
},
{
closed = 1;
nodes = (
"240.082 512.512 OFFCURVE",
"244.725 513.139 OFFCURVE",
"244.991 505.523 CURVE",
"245.299 496.712 OFFCURVE",
"243.415 493.92 OFFCURVE",
"235.13 490.905 CURVE",
"225.618 487.443 OFFCURVE",
"221.26 485.326 OFFCURVE",
"215.028 493.302 CURVE",
"209.154 500.82 OFFCURVE",
"214.717 503.801 OFFCURVE",
"220.052 511.71 CURVE",
"223.695 517.112 OFFCURVE",
"226.493 516.409 OFFCURVE",
"232.756 514.613 CURVE"
);
},
{
closed = 1;
nodes = (
"339.926 554.091 OFFCURVE",
"347.722 548.161 OFFCURVE",
"353.038 523.148 CURVE",
"358.074 499.456 OFFCURVE",
"349.976 493.202 OFFCURVE",
"329 481.091 CURVE",
"310.844 470.609 OFFCURVE",
"303.498 475.448 OFFCURVE",
"287.919 489.476 CURVE",
"272.339 503.504 OFFCURVE",
"266.758 510.304 OFFCURVE",
"275.285 529.456 CURVE",
"285.003 551.282 OFFCURVE",
"290.735 559.262 OFFCURVE",
"314.495 556.764 CURVE"
);
},
{
closed = 1;
nodes = (
"480.872 527.621 OFFCURVE",
"493.631 519.128 OFFCURVE",
"478.795 495.384 CURVE",
"460.994 466.897 OFFCURVE",
"451.078 457.656 OFFCURVE",
"418.485 465.782 CURVE",
"388.17 473.341 OFFCURVE",
"391.287 489.764 OFFCURVE",
"389.107 520.931 CURVE",
"387.435 544.845 OFFCURVE",
"396.912 549.325 OFFCURVE",
"419.14 558.306 CURVE",
"439.863 566.678 OFFCURVE",
"448.509 566.19 OFFCURVE",
"462.876 549.069 CURVE"
);
},
{
closed = 1;
nodes = (
"277.926 187.047 OFFCURVE",
"273.271 177.958 OFFCURVE",
"251.863 162.403 CURVE",
"231.404 147.54 OFFCURVE",
"221.771 149.158 OFFCURVE",
"201.313 164.021 CURVE",
"180.855 178.885 OFFCURVE",
"176.339 187.547 OFFCURVE",
"184.154 211.597 CURVE",
"194.275 242.749 OFFCURVE",
"193.245 262 OFFCURVE",
"226 262 CURVE",
"259.138 262 OFFCURVE",
"259.508 243.731 OFFCURVE",
"269.749 212.215 CURVE"
);
},
{
closed = 1;
nodes = (
"676.53 122.374 OFFCURVE",
"681.361 120.999 OFFCURVE",
"680.988 110.302 CURVE",
"680.635 100.205 OFFCURVE",
"674.295 101.288 OFFCURVE",
"664.583 98.504 CURVE",
"657.51 96.475 OFFCURVE",
"655.166 98.189 OFFCURVE",
"651.052 104.29 CURVE",
"645.717 112.199 OFFCURVE",
"640.154 115.18 OFFCURVE",
"646.028 122.698 CURVE",
"652.405 130.859 OFFCURVE",
"656.739 129.578 OFFCURVE",
"666.472 126.035 CURVE"
);
},
{
closed = 1;
nodes = (
"580.368 68.032 OFFCURVE",
"585.572 66.627 OFFCURVE",
"585.987 54.768 CURVE",
"586.532 39.156 OFFCURVE",
"588.94 31.152 OFFCURVE",
"574.261 25.809 CURVE",
"559.939 20.596 OFFCURVE",
"557.623 29.677 OFFCURVE",
"548.24 41.687 CURVE",
"538.368 54.322 OFFCURVE",
"528.504 58.601 OFFCURVE",
"537.471 71.894 CURVE",
"546.277 84.95 OFFCURVE",
"553.823 75.643 OFFCURVE",
"568.961 71.303 CURVE"
);
},
{
closed = 1;
nodes = (
"291.576 598.05 OFFCURVE",
"293.121 595.843 OFFCURVE",
"292.998 588.791 CURVE",
"292.87 581.433 OFFCURVE",
"291.838 578.719 OFFCURVE",
"284.801 576.568 CURVE",
"277.764 574.417 OFFCURVE",
"275.391 576.089 OFFCURVE",
"271.17 582.117 CURVE",
"267.433 587.455 OFFCURVE",
"269.092 589.814 OFFCURVE",
"273.014 595.018 CURVE",
"276.935 600.222 OFFCURVE",
"278.746 602.468 OFFCURVE",
"284.907 600.346 CURVE"
);
},
{
closed = 1;
nodes = (
"607.367 359.181 OFFCURVE",
"609.369 355.415 OFFCURVE",
"607.815 344.356 CURVE",
"606.436 334.545 OFFCURVE",
"601.188 334.933 OFFCURVE",
"591.431 333.213 CURVE",
"582.712 331.675 OFFCURVE",
"579.029 331.671 OFFCURVE",
"574.873 339.488 CURVE",
"570.831 347.09 OFFCURVE",
"573.668 349.838 OFFCURVE",
"579.649 356.031 CURVE",
"586.396 363.017 OFFCURVE",
"588.599 368.335 OFFCURVE",
"597.329 364.077 CURVE"
);
},
{
closed = 1;
nodes = (
"671.114 -127.301 OFFCURVE",
"674.447 -128.056 OFFCURVE",
"673.968 -134.907 CURVE",
"673.473 -141.989 OFFCURVE",
"670.55 -142.956 OFFCURVE",
"663.661 -144.673 CURVE",
"658.293 -146.012 OFFCURVE",
"657.995 -142.401 OFFCURVE",
"655.064 -137.709 CURVE",
"651.694 -132.317 OFFCURVE",
"646.954 -130.515 OFFCURVE",
"651.041 -125.644 CURVE",
"655.456 -120.383 OFFCURVE",
"658.379 -122.156 OFFCURVE",
"664.746 -124.728 CURVE"
);
},
{
closed = 1;
nodes = (
"554.258 485.991 OFFCURVE",
"558.586 483.602 OFFCURVE",
"559.879 471.3 CURVE",
"561.201 458.725 OFFCURVE",
"558.092 454.958 OFFCURVE",
"546.541 449.816 CURVE",
"535.527 444.912 OFFCURVE",
"531.204 446.658 OFFCURVE",
"523.137 455.617 CURVE",
"513.198 466.656 OFFCURVE",
"505.458 470.636 OFFCURVE",
"512.885 483.5 CURVE",
"520.312 496.364 OFFCURVE",
"527.629 491.651 OFFCURVE",
"542.158 488.563 CURVE"
);
},
{
closed = 1;
nodes = (
"448.67 221.968 OFFCURVE",
"457.281 214.216 OFFCURVE",
"461.494 184.237 CURVE",
"465.707 154.258 OFFCURVE",
"459.567 144.433 OFFCURVE",
"432.357 131.162 CURVE",
"408.187 119.373 OFFCURVE",
"400.627 130.564 OFFCURVE",
"381.946 149.908 CURVE",
"366.797 165.596 OFFCURVE",
"368.859 174.176 OFFCURVE",
"379.097 193.432 CURVE",
"391.345 216.468 OFFCURVE",
"393.162 231.756 OFFCURVE",
"418.856 227.225 CURVE"
);
},
{
closed = 1;
nodes = (
"230.925 447.367 OFFCURVE",
"233.877 444.193 OFFCURVE",
"228.634 441.405 CURVE",
"223.495 438.672 OFFCURVE",
"223.019 443.641 OFFCURVE",
"218.832 447.684 CURVE",
"214.955 451.428 OFFCURVE",
"210.75 451.978 OFFCURVE",
"213.113 456.822 CURVE",
"215.948 462.633 OFFCURVE",
"218.128 463.793 OFFCURVE",
"224.531 462.893 CURVE",
"230.009 462.123 OFFCURVE",
"228.933 458.663 OFFCURVE",
"229.894 453.216 CURVE"
);
},
{
closed = 1;
nodes = (
"249.629 575.799 OFFCURVE",
"251.497 573.856 OFFCURVE",
"248.621 568.667 CURVE",
"245.486 563.012 OFFCURVE",
"243.248 561.968 OFFCURVE",
"236.901 563.202 CURVE",
"231.077 564.334 OFFCURVE",
"230.79 567.014 OFFCURVE",
"230.067 572.903 CURVE",
"229.422 578.154 OFFCURVE",
"230.402 579.921 OFFCURVE",
"235.196 582.157 CURVE",
"239.991 584.392 OFFCURVE",
"241.974 584.007 OFFCURVE",
"245.582 580.138 CURVE"
);
},
{
closed = 1;
nodes = (
"599.676 -114.292 OFFCURVE",
"600.786 -118.019 OFFCURVE",
"594.229 -124.809 CURVE",
"587.078 -132.214 OFFCURVE",
"583.362 -133.691 OFFCURVE",
"574.109 -129.178 CURVE",
"564.6 -124.54 OFFCURVE",
"562.703 -120.972 OFFCURVE",
"564.175 -110.495 CURVE",
"565.448 -101.439 OFFCURVE",
"570.91 -102.77 OFFCURVE",
"579.916 -101.182 CURVE",
"587.822 -99.788 OFFCURVE",
"591.476 -98.87 OFFCURVE",
"595.244 -105.958 CURVE"
);
}
);
width = 755;
}
);
leftKerningGroup = A;
rightKerningGroup = A;
unicode = 0104;
},
{
color = 1;
glyphname = AE;
layers = (
{
anchors = (
{
name = bottom;
position = "{503, 0}";
},
{
name = top;
position = "{503, 700}";
}
);
layerId = "EC64484B-0978-4CB1-9EE9-C40A2D8C4059";
paths = (
{
closed = 1;
nodes = (
"237 0 OFFCURVE",
"246 14 OFFCURVE",
"250 25 CURVE SMOOTH",
"274 91 LINE",
"423 91 LINE",
"423 27 LINE SMOOTH",
"423 12 OFFCURVE",
"435 0 OFFCURVE",
"450 0 CURVE SMOOTH",
"941 0 LINE SMOOTH",
"956 0 OFFCURVE",
"968 12 OFFCURVE",
"968 27 CURVE SMOOTH",
"968 168 LINE SMOOTH",
"968 183 OFFCURVE",
"956 195 OFFCURVE",
"941 195 CURVE SMOOTH",
"663 195 LINE",
"663 258 LINE",
"911 258 LINE SMOOTH",
"926 258 OFFCURVE",
"938 270 OFFCURVE",
"938 285 CURVE SMOOTH",
"938 415 LINE SMOOTH",
"938 430 OFFCURVE",
"926 442 OFFCURVE",
"911 442 CURVE SMOOTH",
"663 442 LINE",
"663 505 LINE",
"933 505 LINE SMOOTH",
"948 505 OFFCURVE",
"960 517 OFFCURVE",
"960 532 CURVE SMOOTH",
"960 673 LINE SMOOTH",
"960 688 OFFCURVE",
"948 700 OFFCURVE",
"933 700 CURVE SMOOTH",
"273 700 LINE SMOOTH",
"246 700 OFFCURVE",
"232 682 OFFCURVE",
"228 667 CURVE",
"154 454 OFFCURVE",
"79 242 OFFCURVE",
"5 29 CURVE SMOOTH",
"4 26 OFFCURVE",
"4 24 OFFCURVE",
"4 22 CURVE SMOOTH",
"4 10 OFFCURVE",
"14 0 OFFCURVE",
"26 0 CURVE SMOOTH",
"211 0 LINE SMOOTH"
);
},
{
closed = 1;
nodes = (
"423 505 LINE",
"423 286 LINE",
"325 286 LINE",
"391 505 LINE"
);
},
{
closed = 1;
nodes = (
"244.989 357.473 OFFCURVE",
"245.956 354.55 OFFCURVE",
"247.673 347.661 CURVE",
"249.654 339.716 OFFCURVE",
"252.423 335.771 OFFCURVE",
"245.479 331.431 CURVE",
"237.247 326.287 OFFCURVE",
"233.509 325.738 OFFCURVE",
"226.073 331.977 CURVE",
"218.637 338.217 OFFCURVE",
"218.529 341.994 OFFCURVE",
"222.165 350.994 CURVE",
"225.39 358.976 OFFCURVE",
"229.319 358.569 OFFCURVE",
"237.907 357.968 CURVE"
);
},
{
closed = 1;
nodes = (
"640.248 267.437 OFFCURVE",
"637.105 253.337 OFFCURVE",
"606.282 231.755 CURVE",
"574.498 209.499 OFFCURVE",
"559.667 208.14 OFFCURVE",
"528.678 231.491 CURVE",
"502.313 251.359 OFFCURVE",
"522.322 266.157 OFFCURVE",
"533.07 297.372 CURVE",
"540.848 319.961 OFFCURVE",
"545.863 328.41 OFFCURVE",
"569.75 327.993 CURVE",
"601.932 327.432 OFFCURVE",
"619.837 334.199 OFFCURVE",
"629.247 303.419 CURVE"
);
},
{
closed = 1;
nodes = (
"838.662 589.105 OFFCURVE",
"832.654 579.335 OFFCURVE",
"816.096 558.142 CURVE",
"802.342 540.538 OFFCURVE",
"792.707 545.349 OFFCURVE",
"771.713 552.99 CURVE",
"753.758 559.525 OFFCURVE",
"750.353 566.021 OFFCURVE",
"751.019 585.117 CURVE",
"751.926 611.08 OFFCURVE",
"743.694 626.825 OFFCURVE",
"768.667 633.986 CURVE",
"797.224 642.174 OFFCURVE",
"807.01 636.029 OFFCURVE",
"823.623 611.4 CURVE"
);
},
{
closed = 1;
nodes = (
"223.504 415.499 OFFCURVE",
"226.677 414.781 OFFCURVE",
"225.911 408.538 CURVE",
"224.888 400.214 OFFCURVE",
"225.285 395.894 OFFCURVE",
"217.053 394.294 CURVE",
"208.82 392.694 OFFCURVE",
"207.57 396.847 OFFCURVE",
"203.505 404.182 CURVE",
"199.937 410.618 OFFCURVE",
"199.474 413.484 OFFCURVE",
"204.492 418.866 CURVE",
"209.038 423.74 OFFCURVE",
"211.763 420.974 OFFCURVE",
"217.804 418.157 CURVE"
);
},
{
closed = 1;
nodes = (
"471.776 222.013 OFFCURVE",
"474.751 217.026 OFFCURVE",
"477.559 202.579 CURVE",
"480.251 188.732 OFFCURVE",
"477.974 183.848 OFFCURVE",
"465.635 177.009 CURVE",
"453.035 170.025 OFFCURVE",
"447.486 169.891 OFFCURVE",
"436.95 179.716 CURVE",
"423.441 192.314 OFFCURVE",
"413.567 196.473 OFFCURVE",
"421.373 213.214 CURVE",
"429.261 230.13 OFFCURVE",
"438.643 226.081 OFFCURVE",
"457.169 223.806 CURVE"
);
},
{
closed = 1;
nodes = (
"318.112 190.203 OFFCURVE",
"306.267 179.065 OFFCURVE",
"291.507 153.5 CURVE",
"278.844 131.567 OFFCURVE",
"271.417 124.718 OFFCURVE",
"246.644 129.983 CURVE",
"223.088 134.99 OFFCURVE",
"222.714 146.287 OFFCURVE",
"220.197 170.237 CURVE",
"217.954 191.577 OFFCURVE",
"221.348 199.073 OFFCURVE",
"240.951 207.801 CURVE",
"267.248 219.51 OFFCURVE",
"279.098 233.533 OFFCURVE",
"298.359 212.14 CURVE"
);
},
{
closed = 1;
nodes = (
"448.292 591.759 OFFCURVE",
"442.931 582.526 OFFCURVE",
"421.082 566.061 CURVE",
"398.202 548.821 OFFCURVE",
"387.641 542.972 OFFCURVE",
"364.174 559.404 CURVE",
"343.337 573.994 OFFCURVE",
"359.786 585.861 OFFCURVE",
"367.223 610.186 CURVE",
"374.169 632.904 OFFCURVE",
"369.41 649.578 OFFCURVE",
"393.162 649.993 CURVE",
"421.372 650.485 OFFCURVE",
"430.199 644.304 OFFCURVE",
"439.385 617.627 CURVE"
);
},
{
closed = 1;
nodes = (
"592.354 640.444 OFFCURVE",
"591.838 631.945 OFFCURVE",
"594.651 615.994 CURVE",
"597.104 602.079 OFFCURVE",
"596.213 596.56 OFFCURVE",
"583.737 589.926 CURVE",
"571.924 583.645 OFFCURVE",
"567.731 588.319 OFFCURVE",
"558.107 597.613 CURVE",
"549.434 605.988 OFFCURVE",
"547.84 610.37 OFFCURVE",
"553.125 621.206 CURVE",
"560.055 635.415 OFFCURVE",
"560.66 644.898 OFFCURVE",
"576.314 642.698 CURVE"
);
},
{
closed = 1;
nodes = (
"599.108 120.692 OFFCURVE",
"617.423 113.934 OFFCURVE",
"602.339 89.795 CURVE",
"587.478 66.013 OFFCURVE",
"573.469 82.166 OFFCURVE",
"546.258 88.951 CURVE",
"516.561 96.355 OFFCURVE",
"493.288 85.073 OFFCURVE",
"491.153 115.605 CURVE",
"488.724 150.35 OFFCURVE",
"501.103 157.948 OFFCURVE",
"533.397 170.995 CURVE",
"559.042 181.357 OFFCURVE",
"563.032 163.686 OFFCURVE",
"580.812 142.498 CURVE"
);
},
{
closed = 1;
nodes = (
"830.147 323.986 OFFCURVE",
"837.353 313.624 OFFCURVE",
"820.059 305.56 CURVE",
"802.766 297.496 OFFCURVE",
"799.461 309.677 OFFCURVE",
"786.448 323.632 CURVE",
"777.719 332.992 OFFCURVE",
"781.178 338.018 OFFCURVE",
"787.382 349.211 CURVE",
"794.497 362.047 OFFCURVE",
"795.128 371.267 OFFCURVE",
"809.533 368.467 CURVE",
"824.952 365.47 OFFCURVE",
"825.907 358.515 OFFCURVE",
"827.821 342.925 CURVE"
);
},
{
closed = 1;
nodes = (
"586.32 452.007 OFFCURVE",
"587.913 450.534 OFFCURVE",
"585.389 447.185 CURVE",
"582.559 443.43 OFFCURVE",
"580.842 442.905 OFFCURVE",
"576.395 444.436 CURVE",
"572.431 445.801 OFFCURVE",
"572.928 447.912 OFFCURVE",
"573 452.105 CURVE",
"573.088 457.077 OFFCURVE",
"571.321 460.109 OFFCURVE",
"576.076 461.563 CURVE",
"580.832 463.017 OFFCURVE",
"581.063 459.515 OFFCURVE",
"583.915 455.441 CURVE"
);
}
);
width = 1005;
}
);
leftKerningGroup = AE;
rightKerningGroup = E;
unicode = 00C6;
userData = {
com.typemytype.robofont.guides = (
{
angle = 0;
isGlobal = 0;
magnetic = 5;
x = 0;
y = 505;
},
{
angle = 90;
isGlobal = 0;
magnetic = 5;
x = 431;
y = 0;
}
);
};
},
{
color = 1;
glyphname = B;
layers = (
{
hints = (
{
horizontal = 1;
place = "{-2147483648, 0}";
type = Tag;
name = hr00;
}
);
layerId = "EC64484B-0978-4CB1-9EE9-C40A2D8C4059";
paths = (
{
closed = 1;
nodes = (
"605 0 OFFCURVE",
"706 70 OFFCURVE",
"706 220 CURVE SMOOTH",
"706 286 OFFCURVE",
"662 344 OFFCURVE",
"611 365 CURVE",
"643 381 OFFCURVE",
"691 426 OFFCURVE",
"691 490 CURVE SMOOTH",
"691 630 OFFCURVE",
"605 700 OFFCURVE",
"414 700 CURVE SMOOTH",
"82 700 LINE SMOOTH",
"67 700 OFFCURVE",
"55 688 OFFCURVE",
"55 673 CURVE SMOOTH",
"55 27 LINE SMOOTH",
"55 12 OFFCURVE",
"67 0 OFFCURVE",
"82 0 CURVE SMOOTH",
"424 0 LINE SMOOTH"
);
},
{
closed = 1;
nodes = (
"389 528 LINE SMOOTH",
"418 528 OFFCURVE",
"430 503 OFFCURVE",
"430 482 CURVE SMOOTH",
"430 461 OFFCURVE",
"418 437 OFFCURVE",
"389 437 CURVE SMOOTH",
"305 437 LINE",
"305 528 LINE"
);
},
{
closed = 1;
nodes = (
"398 270 LINE SMOOTH",
"428 270 OFFCURVE",
"444 245 OFFCURVE",
"444 221 CURVE SMOOTH",
"444 199 OFFCURVE",
"431 172 OFFCURVE",
"398 172 CURVE SMOOTH",
"305 172 LINE",
"305 270 LINE"
);
},
{
closed = 1;
nodes = (
"284.2 638.483 OFFCURVE",
"279.975 639.453 OFFCURVE",
"274.394 637.422 CURVE",
"270.234 635.908 OFFCURVE",
"268.421 635.586 OFFCURVE",
"265.696 639.075 CURVE",
"262.97 642.563 OFFCURVE",
"263.721 644.244 OFFCURVE",
"266.197 647.914 CURVE",
"269.072 652.177 OFFCURVE",
"269.814 655.03 OFFCURVE",
"274.756 653.613 CURVE",
"281.02 651.817 OFFCURVE",
"283.765 650.931 OFFCURVE",
"283.993 644.419 CURVE"
);
},
{
closed = 1;
nodes = (
"252.091 495.571 OFFCURVE",
"253.987 491.312 OFFCURVE",
"249.471 480.133 CURVE",
"244.37 467.509 OFFCURVE",
"241.838 462.111 OFFCURVE",
"228.256 463.061 CURVE",
"209.445 464.376 OFFCURVE",
"198.661 460.752 OFFCURVE",
"194.099 479.049 CURVE",
"188.976 499.596 OFFCURVE",
"193.495 506.46 OFFCURVE",
"211.453 517.682 CURVE",
"226.095 526.831 OFFCURVE",
"229.63 514.419 OFFCURVE",
"242.856 503.321 CURVE"
);
},
{
closed = 1;
nodes = (
"282.387 112.044 OFFCURVE",
"273.319 98.947 OFFCURVE",
"268.375 73.512 CURVE",
"264.868 55.468 OFFCURVE",
"256.658 54.449 OFFCURVE",
"238.412 52.209 CURVE",
"220.837 50.051 OFFCURVE",
"213.482 50.428 OFFCURVE",
"205.998 66.476 CURVE",
"194.323 91.513 OFFCURVE",
"176.605 102.116 OFFCURVE",
"196.808 120.956 CURVE",
"219.854 142.447 OFFCURVE",
"232.165 139.883 OFFCURVE",
"259.725 124.606 CURVE"
);
},
{
closed = 1;
nodes = (
"497.144 581.037 OFFCURVE",
"498.678 575.934 OFFCURVE",
"492.191 563.733 CURVE",
"486.466 552.967 OFFCURVE",
"480.229 557.126 OFFCURVE",
"468.222 559.243 CURVE",
"459.502 560.781 OFFCURVE",
"458.368 564.284 OFFCURVE",
"457.136 573.052 CURVE",
"455.596 584.008 OFFCURVE",
"451.412 589.923 OFFCURVE",
"461.356 594.773 CURVE",
"473.248 600.574 OFFCURVE",
"478.354 600.495 OFFCURVE",
"487.545 590.977 CURVE"
);
},
{
closed = 1;
nodes = (
"165.206 390.013 OFFCURVE",
"167.138 384.077 OFFCURVE",
"158.483 370.75 CURVE",
"149.828 357.423 OFFCURVE",
"143.62 356.773 OFFCURVE",
"128.271 360.886 CURVE",
"114.555 364.561 OFFCURVE",
"113.773 370.669 OFFCURVE",
"113.03 384.849 CURVE",
"112.409 396.699 OFFCURVE",
"117.471 398.552 OFFCURVE",
"128.549 402.804 CURVE",
"140.994 407.582 OFFCURVE",
"146.817 412.722 OFFCURVE",
"155.206 402.362 CURVE"
);
},
{
closed = 1;
nodes = (
"273.175 316.106 OFFCURVE",
"274.252 313.362 OFFCURVE",
"269.42 311.603 CURVE",
"264.589 309.845 OFFCURVE",
"263.649 312.639 OFFCURVE",
"260.484 316.69 CURVE",
"258.119 319.718 OFFCURVE",
"258.877 321.17 OFFCURVE",
"261.026 324.355 CURVE",
"263.371 327.832 OFFCURVE",
"264.174 329.846 OFFCURVE",
"268.205 328.69 CURVE",
"272.461 327.47 OFFCURVE",
"272.841 325.669 OFFCURVE",
"272.996 321.244 CURVE"
);
},
{
closed = 1;
nodes = (
"394.202 339.756 OFFCURVE",
"396.144 337.723 OFFCURVE",
"392.541 334.908 CURVE",
"388.129 331.461 OFFCURVE",
"386.05 330.579 OFFCURVE",
"381.408 333.71 CURVE",
"376.767 336.84 OFFCURVE",
"376.805 339.099 OFFCURVE",
"378.349 344.481 CURVE",
"379.892 349.862 OFFCURVE",
"381.056 351.799 OFFCURVE",
"386.651 351.994 CURVE",
"391.621 352.167 OFFCURVE",
"390.937 348.725 OFFCURVE",
"392.638 344.052 CURVE"
);
},
{
closed = 1;
nodes = (
"163.752 260.943 OFFCURVE",
"161.695 258.629 OFFCURVE",
"159.19 253.493 CURVE",
"156.993 248.988 OFFCURVE",
"155.711 247.39 OFFCURVE",
"150.747 248.088 CURVE",
"145.203 248.867 OFFCURVE",
"143.124 249.75 OFFCURVE",
"142.152 255.264 CURVE",
"141.223 260.534 OFFCURVE",
"143.519 261.551 OFFCURVE",
"148.244 264.064 CURVE",
"153.29 266.746 OFFCURVE",
"155.531 268.882 OFFCURVE",
"159.641 264.913 CURVE"
);
},
{
closed = 1;
nodes = (
"366.203 643.351 OFFCURVE",
"375.696 642.913 OFFCURVE",
"373.769 627.222 CURVE",
"371.795 611.146 OFFCURVE",
"363.288 611.513 OFFCURVE",
"347.389 608.423 CURVE",
"331.124 605.261 OFFCURVE",
"323.045 600.995 OFFCURVE",
"315.012 615.486 CURVE",
"304.969 633.604 OFFCURVE",
"301.081 641.766 OFFCURVE",
"315.209 656.916 CURVE",
"327.93 670.558 OFFCURVE",
"334.969 657.916 OFFCURVE",
"351.875 650.032 CURVE"
);
},
{
closed = 1;
nodes = (
"460.934 343.988 OFFCURVE",
"459.458 338.803 OFFCURVE",
"456.387 327.341 CURVE",
"453.648 317.122 OFFCURVE",
"450.508 314.578 OFFCURVE",
"439.942 314.025 CURVE",
"425.45 313.265 OFFCURVE",
"417.127 308.059 OFFCURVE",
"411.926 321.607 CURVE",
"405.71 337.8 OFFCURVE",
"406.641 344.399 OFFCURVE",
"420.12 355.314 CURVE",
"432.26 365.145 OFFCURVE",
"437.881 358.959 OFFCURVE",
"450.982 350.451 CURVE"
);
},
{
closed = 1;
nodes = (
"520.774 521.066 OFFCURVE",
"526.149 521.117 OFFCURVE",
"524.757 513.222 CURVE",
"523.301 504.962 OFFCURVE",
"518.975 505.284 OFFCURVE",
"510.67 504.117 CURVE",
"503.685 503.135 OFFCURVE",
"501.306 504.4 OFFCURVE",
"498.214 510.74 CURVE",
"494.846 517.646 OFFCURVE",
"493.747 520.733 OFFCURVE",
"499.275 526.071 CURVE",
"504.48 531.098 OFFCURVE",
"507.305 528.227 OFFCURVE",
"513.695 524.829 CURVE"
);
},
{
closed = 1;
nodes = (
"469.4 79.971 OFFCURVE",
"469.967 76.235 OFFCURVE",
"467.455 66.859 CURVE",
"464.592 56.175 OFFCURVE",
"464.144 50.608 OFFCURVE",
"453.099 50.029 CURVE",
"441.589 49.426 OFFCURVE",
"439.326 53.789 OFFCURVE",
"435.196 64.549 CURVE",
"431.776 73.458 OFFCURVE",
"435.773 75.875 OFFCURVE",
"443.19 81.88 CURVE",
"450.332 87.664 OFFCURVE",
"453.551 90.263 OFFCURVE",
"461.259 85.257 CURVE"
);
},
{
closed = 1;
nodes = (
"603.381 93.957 OFFCURVE",
"604.435 89.188 OFFCURVE",
"601.376 76.92 CURVE",
"598.75 66.387 OFFCURVE",
"592.875 67.794 OFFCURVE",
"582.046 67.037 CURVE",
"573.535 66.441 OFFCURVE",
"571.216 68.844 OFFCURVE",
"568.019 76.756 CURVE",
"565.043 84.122 OFFCURVE",
"566.557 86.851 OFFCURVE",
"572.644 91.959 CURVE",
"581.002 98.972 OFFCURVE",
"583.405 106.439 OFFCURVE",
"592.658 100.657 CURVE"
);
},
{
closed = 1;
nodes = (
"180.375 185.353 OFFCURVE",
"182.976 179.919 OFFCURVE",
"176.267 166.164 CURVE",
"169.179 151.631 OFFCURVE",
"164.115 148.022 OFFCURVE",
"148.103 150.272 CURVE",
"131.805 152.563 OFFCURVE",
"127.283 156.93 OFFCURVE",
"124.425 173.138 CURVE",
"121.839 187.805 OFFCURVE",
"128.521 190.433 OFFCURVE",
"141.672 197.425 CURVE",
"153.915 203.935 OFFCURVE",
"159.392 205.616 OFFCURVE",
"169.366 195.983 CURVE"
);
},
{
closed = 1;
nodes = (
"374.313 83.766 OFFCURVE",
"370.979 79.609 OFFCURVE",
"358.355 73.988 CURVE",
"345.731 68.368 OFFCURVE",
"340.411 68.671 OFFCURVE",
"331.165 78.941 CURVE",
"322.444 88.626 OFFCURVE",
"325.163 93.714 OFFCURVE",
"331.679 105 CURVE",
"337.557 115.181 OFFCURVE",
"341.659 117.007 OFFCURVE",
"353.158 114.563 CURVE",
"365.906 111.853 OFFCURVE",
"371.506 110.469 OFFCURVE",
"372.869 97.509 CURVE"
);
},
{
closed = 1;
nodes = (
"319.685 373.123 OFFCURVE",
"323.588 370.295 OFFCURVE",
"318.434 363.931 CURVE",
"312.516 356.622 OFFCURVE",
"309.046 355.692 OFFCURVE",
"300.266 359.063 CURVE",
"292.621 361.997 OFFCURVE",
"294.587 366.398 OFFCURVE",
"295.015 374.576 CURVE",
"295.424 382.376 OFFCURVE",
"294.573 386.467 OFFCURVE",
"302.118 388.489 CURVE",
"309.662 390.51 OFFCURVE",
"310.971 386.542 OFFCURVE",
"315.225 379.991 CURVE"
);
},
{
closed = 1;
nodes = (
"274.491 392.819 OFFCURVE",
"280.828 385.023 OFFCURVE",
"267.945 367.927 CURVE",
"255.328 351.183 OFFCURVE",
"246.057 356.808 OFFCURVE",
"226.233 363.634 CURVE",
"210.352 369.103 OFFCURVE",
"208.711 375.678 OFFCURVE",
"209.004 392.471 CURVE",
"209.303 409.591 OFFCURVE",
"210.562 416.639 OFFCURVE",
"226.936 421.645 CURVE",
"244.647 427.06 OFFCURVE",
"251.59 425.525 OFFCURVE",
"262.213 410.354 CURVE"
);
},
{
closed = 1;
nodes = (
"559.429 249.048 OFFCURVE",
"564.156 245.007 OFFCURVE",
"565.847 228.927 CURVE",
"567.918 209.221 OFFCURVE",
"571.557 199.344 OFFCURVE",
"553.456 191.285 CURVE",
"534.751 182.957 OFFCURVE",
"528.663 190.041 OFFCURVE",
"514.963 205.257 CURVE",
"503.151 218.375 OFFCURVE",
"504.059 225.213 OFFCURVE",
"512.885 240.5 CURVE",
"521.124 254.77 OFFCURVE",
"527.496 255.836 OFFCURVE",
"543.614 252.41 CURVE"
);
},
{
closed = 1;
nodes = (
"637.523 442.836 OFFCURVE",
"638.332 441.489 OFFCURVE",
"637.973 437.39 CURVE",
"637.588 432.98 OFFCURVE",
"637.113 431.201 OFFCURVE",
"632.8 430.205 CURVE",
"627.232 428.92 OFFCURVE",
"624.514 427.436 OFFCURVE",
"621.571 432.335 CURVE",
"618.084 438.139 OFFCURVE",
"617.501 440.762 OFFCURVE",
"621.943 445.873 CURVE",
"625.84 450.355 OFFCURVE",
"628.268 446.764 OFFCURVE",
"633.735 444.444 CURVE"
);
},
{
closed = 1;
nodes = (
"162.818 514.582 OFFCURVE",
"169.713 508.639 OFFCURVE",
"170.944 485.146 CURVE",
"172.083 463.415 OFFCURVE",
"161.783 460.924 OFFCURVE",
"141.468 453.125 CURVE",
"124.693 446.686 OFFCURVE",
"118.771 450.786 OFFCURVE",
"107.463 464.75 CURVE",
"96.736 477.997 OFFCURVE",
"96.395 484.499 OFFCURVE",
"105.679 498.795 CURVE",
"116.784 515.895 OFFCURVE",
"120.399 525.948 OFFCURVE",
"140.094 520.671 CURVE"
);
},
{
closed = 1;
nodes = (
"533.105 629.61 OFFCURVE",
"534.962 626.036 OFFCURVE",
"528.573 622.639 CURVE",
"521.039 618.633 OFFCURVE",
"517.718 618.283 OFFCURVE",
"511.58 624.21 CURVE",
"505.442 630.137 OFFCURVE",
"505.676 633.468 OFFCURVE",
"509.417 641.137 CURVE",
"512.681 647.83 OFFCURVE",
"516.157 646.929 OFFCURVE",
"523.531 645.893 CURVE",
"529.656 645.032 OFFCURVE",
"530.774 642.828 OFFCURVE",
"531.848 636.736 CURVE"
);
},
{
closed = 1;
nodes = (
"166.555 579.818 OFFCURVE",
"173.34 570.943 OFFCURVE",
"157.698 555.302 CURVE",
"140.242 537.845 OFFCURVE",
"130.929 536.37 OFFCURVE",
"108.932 547.578 CURVE",
"85.557 559.488 OFFCURVE",
"77.475 566.441 OFFCURVE",
"81.579 592.352 CURVE",
"85.9 619.638 OFFCURVE",
"93.362 627.1 OFFCURVE",
"120.648 631.421 CURVE",
"144.349 635.175 OFFCURVE",
"145.618 620.909 OFFCURVE",
"156.512 599.528 CURVE"
);
},
{
closed = 1;
nodes = (
"580.284 519.87 OFFCURVE",
"580.025 518.047 OFFCURVE",
"578.657 513.837 CURVE",
"577.47 510.183 OFFCURVE",
"575.842 510 OFFCURVE",
"572 510 CURVE",
"567.428 510 OFFCURVE",
"564.853 508.87 OFFCURVE",
"563.44 513.219 CURVE",
"561.966 517.757 OFFCURVE",
"564.025 518.859 OFFCURVE",
"567.886 521.663 CURVE",
"571.467 524.265 OFFCURVE",
"573.121 525.074 OFFCURVE",
"576.702 522.472 CURVE"
);
}
);
width = 734;
}
);
leftKerningGroup = I;
unicode = 0042;
userData = {
com.typemytype.robofont.guides = (
{
angle = 0;
isGlobal = 0;
magnetic = 5;
x = 0;
y = 271;
},
{
angle = 0;
isGlobal = 0;
magnetic = 5;
x = 0;
y = 437;
},
{
angle = 0;
isGlobal = 0;
magnetic = 5;
x = 0;
y = 521;
},
{
angle = 0;
isGlobal = 0;
magnetic = 5;
x = 0;
y = 198;
},
{
angle = 0;
isGlobal = 0;
magnetic = 5;
x = 0;
y = 9;
},
{
angle = 90;
isGlobal = 0;
magnetic = 5;
x = 355;
y = 0;
},
{
angle = 90;
isGlobal = 0;
magnetic = 5;
x = 583;
y = 0;
},
{
angle = 90;
isGlobal = 0;
magnetic = 5;
x = 94;
y = 0;
}
);
};
},
{
color = 1;
glyphname = C;
layers = (
{
anchors = (
{
name = bottom;
position = "{367, 0}";
},
{
name = top;
position = "{367, 700}";
}
);
layerId = "EC64484B-0978-4CB1-9EE9-C40A2D8C4059";
paths = (
{
closed = 1;
nodes = (
"542 -10 OFFCURVE",
"706 64 OFFCURVE",
"709 246 CURVE SMOOTH",
"709 258 OFFCURVE",
"699 268 OFFCURVE",
"687 268 CURVE SMOOTH",
"483 268 LINE SMOOTH",
"461 268 OFFCURVE",
"453 262 OFFCURVE",
"446 239 CURVE SMOOTH",
"433 199 OFFCURVE",
"405 185 OFFCURVE",
"371 185 CURVE SMOOTH",
"327 185 OFFCURVE",
"299 205 OFFCURVE",
"297 266 CURVE SMOOTH",
"295 323 OFFCURVE",
"295 379 OFFCURVE",
"297 434 CURVE SMOOTH",
"299 495 OFFCURVE",
"327 515 OFFCURVE",
"371 515 CURVE SMOOTH",
"405 515 OFFCURVE",
"431 504 OFFCURVE",
"446 461 CURVE SMOOTH",
"454 439 OFFCURVE",
"461 432 OFFCURVE",
"483 432 CURVE SMOOTH",
"687 432 LINE SMOOTH",
"699 432 OFFCURVE",
"709 442 OFFCURVE",
"709 454 CURVE SMOOTH",
"706 636 OFFCURVE",
"542 710 OFFCURVE",
"372 710 CURVE SMOOTH",
"185 710 OFFCURVE",
"45 625 OFFCURVE",
"37 439 CURVE SMOOTH",
"35 382 OFFCURVE",
"35 315 OFFCURVE",
"37 261 CURVE SMOOTH",
"45 70 OFFCURVE",
"180 -10 OFFCURVE",
"372 -10 CURVE SMOOTH"
);
},
{
closed = 1;
nodes = (
"194.474 387.675 OFFCURVE",
"218.318 397.01 OFFCURVE",
"224.089 360.576 CURVE",
"229.837 324.287 OFFCURVE",
"203.712 326.476 OFFCURVE",
"170.976 309.796 CURVE",
"146.266 297.206 OFFCURVE",
"135.254 294.035 OFFCURVE",
"115.645 313.645 CURVE",
"89.251 340.039 OFFCURVE",
"69.01 348.883 OFFCURVE",
"85.957 382.141 CURVE",
"102.519 414.647 OFFCURVE",
"122.007 399.153 OFFCURVE",
"158.04 393.446 CURVE"
);
},
{
closed = 1;
nodes = (
"311.273 563.389 OFFCURVE",
"312.053 561.721 OFFCURVE",
"309.389 558.185 CURVE",
"306.725 554.65 OFFCURVE",
"304.907 554.94 OFFCURVE",
"300.721 556.381 CURVE",
"297.088 557.632 OFFCURVE",
"296.934 559.263 OFFCURVE",
"297 563.105 CURVE",
"297.068 566.946 OFFCURVE",
"297.279 568.571 OFFCURVE",
"300.953 569.694 CURVE",
"304.888 570.897 OFFCURVE",
"306.374 570.385 OFFCURVE",
"308.734 567.015 CURVE"
);
},
{
closed = 1;
nodes = (
"451.533 590.206 OFFCURVE",
"431.677 586.917 OFFCURVE",
"410.306 568.34 CURVE",
"396.058 555.954 OFFCURVE",
"388.731 558.562 OFFCURVE",
"372.549 568.285 CURVE",
"349.811 581.948 OFFCURVE",
"329.417 580.3 OFFCURVE",
"335.384 606.147 CURVE",
"341.824 634.042 OFFCURVE",
"355.82 633.345 OFFCURVE",
"384.339 635.84 CURVE",
"413.948 638.431 OFFCURVE",
"428.856 643.63 OFFCURVE",
"440.469 616.272 CURVE"
);
},
{
closed = 1;
nodes = (
"144.915 454.693 OFFCURVE",
"148.452 453.454 OFFCURVE",
"145.876 447.929 CURVE",
"142.895 441.536 OFFCURVE",
"140.538 440.23 OFFCURVE",
"133.538 441.089 CURVE",
"126.234 441.986 OFFCURVE",
"123.643 443.296 OFFCURVE",
"122.239 450.519 CURVE",
"121 456.895 OFFCURVE",
"125.441 456.848 OFFCURVE",
"131.122 459.997 CURVE",
"135.234 462.277 OFFCURVE",
"137.017 462.058 OFFCURVE",
"140.456 458.851 CURVE"
);
},
{
closed = 1;
nodes = (
"400.045 79.672 OFFCURVE",
"401.664 76.977 OFFCURVE",
"400.947 68.78 CURVE",
"400.332 61.751 OFFCURVE",
"395.899 62.818 OFFCURVE",
"389.025 61.231 CURVE",
"381.352 59.459 OFFCURVE",
"377.341 55.01 OFFCURVE",
"373.285 61.759 CURVE",
"369.288 68.411 OFFCURVE",
"375.871 69.392 OFFCURVE",
"380.962 75.248 CURVE",
"385.493 80.461 OFFCURVE",
"386.113 85.586 OFFCURVE",
"392.47 82.887 CURVE"
);
},
{
closed = 1;
nodes = (
"513.069 177.403 OFFCURVE",
"509.384 165.739 OFFCURVE",
"508.995 143.459 CURVE",
"508.613 121.552 OFFCURVE",
"511.233 110.241 OFFCURVE",
"490.28 103.835 CURVE",
"470.038 97.647 OFFCURVE",
"468.024 111.175 OFFCURVE",
"455.883 128.513 CURVE",
"445.268 143.673 OFFCURVE",
"438.91 150.284 OFFCURVE",
"450.048 165.064 CURVE",
"463.98 183.553 OFFCURVE",
"470.11 192.194 OFFCURVE",
"492 184.657 CURVE"
);
},
{
closed = 1;
nodes = (
"214.609 543.356 OFFCURVE",
"201.759 543.962 OFFCURVE",
"183.159 536.067 CURVE",
"166.656 529.062 OFFCURVE",
"159.102 524.164 OFFCURVE",
"147.34 537.694 CURVE",
"132.533 554.727 OFFCURVE",
"125.375 562.286 OFFCURVE",
"136.999 581.632 CURVE",
"148.082 600.077 OFFCURVE",
"158.556 593.097 OFFCURVE",
"179.524 588.257 CURVE",
"199.753 583.587 OFFCURVE",
"211.038 584.168 OFFCURVE",
"212.848 563.486 CURVE"
);
},
{
closed = 1;
nodes = (
"307.129 70.836 OFFCURVE",
"295.582 68.813 OFFCURVE",
"286.321 58.159 CURVE",
"279.443 50.247 OFFCURVE",
"276.835 45.494 OFFCURVE",
"267.185 49.59 CURVE",
"257.536 53.686 OFFCURVE",
"259.143 58.864 OFFCURVE",
"260.057 69.307 CURVE",
"260.939 79.391 OFFCURVE",
"260.863 84.236 OFFCURVE",
"270.726 86.513 CURVE",
"285.025 89.814 OFFCURVE",
"292.299 95.515 OFFCURVE",
"299.858 82.936 CURVE"
);
},
{
closed = 1;
nodes = (
"638.783 541.183 OFFCURVE",
"628.4 528.423 OFFCURVE",
"594.856 504.936 CURVE",
"564.674 483.802 OFFCURVE",
"550.919 489.706 OFFCURVE",
"521.493 511.881 CURVE",
"495.134 531.744 OFFCURVE",
"496.142 545.048 OFFCURVE",
"506.888 576.255 CURVE",
"518.867 611.047 OFFCURVE",
"521.43 629.632 OFFCURVE",
"558.222 628.989 CURVE",
"600.259 628.256 OFFCURVE",
"614.518 620.55 OFFCURVE",
"626.81 580.343 CURVE"
);
},
{
closed = 1;
nodes = (
"237.181 116.786 OFFCURVE",
"217.311 118.203 OFFCURVE",
"193.514 105.012 CURVE",
"175.69 95.132 OFFCURVE",
"167.67 92.041 OFFCURVE",
"152.766 105.94 CURVE",
"132.287 125.037 OFFCURVE",
"116.319 130.866 OFFCURVE",
"128.153 156.244 CURVE",
"142.329 186.644 OFFCURVE",
"151.898 195.648 OFFCURVE",
"185.19 191.56 CURVE",
"218.483 187.472 OFFCURVE",
"225.589 176.421 OFFCURVE",
"231.989 143.494 CURVE"
);
},
{
closed = 1;
nodes = (
"633.431 167.678 OFFCURVE",
"630.498 161.817 OFFCURVE",
"622.128 148.929 CURVE",
"613.384 135.464 OFFCURVE",
"609.743 128.867 OFFCURVE",
"594.235 133.022 CURVE",
"579.337 137.014 OFFCURVE",
"581.836 145.498 OFFCURVE",
"581.029 160.901 CURVE",
"580.398 172.941 OFFCURVE",
"583.577 176.351 OFFCURVE",
"594.833 180.672 CURVE",
"608.345 185.858 OFFCURVE",
"614.652 190.869 OFFCURVE",
"623.76 179.621 CURVE"
);
},
{
closed = 1;
nodes = (
"254.338 230.755 OFFCURVE",
"256.277 223.659 OFFCURVE",
"242.615 216.395 CURVE",
"228.302 208.785 OFFCURVE",
"222.599 212.037 OFFCURVE",
"210.939 223.297 CURVE",
"199.73 234.121 OFFCURVE",
"197.902 239.831 OFFCURVE",
"204.733 253.836 CURVE",
"210.914 266.509 OFFCURVE",
"217.82 263.768 OFFCURVE",
"231.783 261.805 CURVE",
"244.355 260.038 OFFCURVE",
"249.446 258.497 OFFCURVE",
"251.651 245.994 CURVE"
);
},
{
closed = 1;
nodes = (
"107.795 527.635 OFFCURVE",
"106.712 521.295 OFFCURVE",
"109.496 511.583 CURVE",
"111.603 504.238 OFFCURVE",
"110.604 501.495 OFFCURVE",
"104.27 497.223 CURVE",
"94.879 490.889 OFFCURVE",
"91.766 482.902 OFFCURVE",
"82.84 489.876 CURVE",
"73.803 496.936 OFFCURVE",
"79.922 502.013 OFFCURVE",
"83.844 512.788 CURVE",
"87.361 522.451 OFFCURVE",
"87.421 528.347 OFFCURVE",
"97.698 527.988 CURVE"
);
}
);
width = 733;
}
);
leftKerningGroup = O;
rightKerningGroup = C;
unicode = 0043;
userData = {
com.typemytype.robofont.guides = (
{
angle = 0;
isGlobal = 0;
magnetic = 5;
x = 0;
y = 434;
},
{
angle = 0;
isGlobal = 0;
magnetic = 5;
x = 0;
y = 266;
},
{
angle = 0;
isGlobal = 0;
magnetic = 5;
x = 0;
y = 710;
},
{
angle = 0;
isGlobal = 0;
magnetic = 5;
x = 0;
y = "-10";
},
{
angle = 90;
isGlobal = 0;
magnetic = 5;
x = 599;
y = 0;
},
{
angle = 90;
isGlobal = 0;
magnetic = 5;
x = 209;
y = 0;
},
{
angle = 90;
isGlobal = 0;
magnetic = 5;
x = 149;
y = 0;
},
{
angle = 90;
isGlobal = 0;
magnetic = 5;
x = 332;
y = 0;
}
);
};
},
{
color = 1;
glyphname = Ccedilla;
layers = (
{
hints = (
{
horizontal = 1;
place = "{-2147483648, 0}";
type = Tag;
name = hr00;
}
);
layerId = "EC64484B-0978-4CB1-9EE9-C40A2D8C4059";
paths = (
{
closed = 1;
nodes = (
"426 -220 OFFCURVE",
"465 -183 OFFCURVE",
"465 -130 CURVE SMOOTH",
"465 -77 OFFCURVE",
"435 -40 OFFCURVE",
"384 -40 CURVE SMOOTH",
"380 -40 OFFCURVE",
"362 -42 OFFCURVE",
"354 -45 CURVE",
"372 -10 LINE",
"542 -10 OFFCURVE",
"706 64 OFFCURVE",
"709 246 CURVE SMOOTH",
"709 258 OFFCURVE",
"699 268 OFFCURVE",
"687 268 CURVE SMOOTH",
"483 268 LINE SMOOTH",
"461 268 OFFCURVE",
"453 262 OFFCURVE",
"446 239 CURVE SMOOTH",
"433 199 OFFCURVE",
"405 185 OFFCURVE",
"371 185 CURVE SMOOTH",
"327 185 OFFCURVE",
"299 205 OFFCURVE",
"297 266 CURVE SMOOTH",
"295 323 OFFCURVE",
"295 379 OFFCURVE",
"297 434 CURVE SMOOTH",
"299 495 OFFCURVE",
"327 515 OFFCURVE",
"371 515 CURVE SMOOTH",
"405 515 OFFCURVE",
"431 504 OFFCURVE",
"446 461 CURVE SMOOTH",
"454 439 OFFCURVE",
"461 432 OFFCURVE",
"483 432 CURVE SMOOTH",
"687 432 LINE SMOOTH",
"699 432 OFFCURVE",
"709 442 OFFCURVE",
"709 454 CURVE SMOOTH",
"706 636 OFFCURVE",
"542 710 OFFCURVE",
"372 710 CURVE SMOOTH",
"185 710 OFFCURVE",
"45 625 OFFCURVE",
"37 439 CURVE SMOOTH",
"35 382 OFFCURVE",
"35 315 OFFCURVE",
"37 261 CURVE SMOOTH",
"44 91 OFFCURVE",
"151 10 OFFCURVE",
"309 -6 CURVE",
"289 -52 LINE SMOOTH",
"280 -71 OFFCURVE",
"282 -76 OFFCURVE",
"291 -85 CURVE SMOOTH",
"312 -106 LINE SMOOTH",
"325 -119 OFFCURVE",
"348 -106 OFFCURVE",
"366 -106 CURVE SMOOTH",
"386 -106 OFFCURVE",
"394 -118 OFFCURVE",
"394 -130 CURVE SMOOTH",
"394 -142 OFFCURVE",
"385 -154 OFFCURVE",
"366 -154 CURVE SMOOTH",
"332 -154 OFFCURVE",
"327 -136 OFFCURVE",
"310 -151 CURVE SMOOTH",
"289 -169 LINE SMOOTH",
"266 -189 OFFCURVE",
"313 -220 OFFCURVE",
"366 -220 CURVE SMOOTH"
);
},
{
closed = 1;
nodes = (
"418.629 75.587 OFFCURVE",
"416.154 66.955 OFFCURVE",
"397.626 52.48 CURVE",
"378.131 37.248 OFFCURVE",
"368.906 33.688 OFFCURVE",
"348.396 47.522 CURVE",
"329.912 59.99 OFFCURVE",
"338.978 70.562 OFFCURVE",
"345.123 91.993 CURVE",
"350.643 111.242 OFFCURVE",
"351.661 121.278 OFFCURVE",
"371.674 121.977 CURVE",
"394.598 122.777 OFFCURVE",
"402.742 119.235 OFFCURVE",
"410.588 97.681 CURVE"
);
},
{
closed = 1;
nodes = (
"178.789 249.781 OFFCURVE",
"174.675 231.056 OFFCURVE",
"181.871 202.193 CURVE",
"187.731 178.691 OFFCURVE",
"188.857 168.521 OFFCURVE",
"168.316 155.686 CURVE",
"138.537 137.077 OFFCURVE",
"126.905 116.805 OFFCURVE",
"100.005 139.377 CURVE",
"73.553 161.573 OFFCURVE",
"94.977 175.968 OFFCURVE",
"107.913 207.984 CURVE",
"119.186 235.886 OFFCURVE",
"119.096 253.955 OFFCURVE",
"149.116 251.856 CURVE"
);
},
{
closed = 1;
nodes = (
"227.623 471.894 OFFCURVE",
"239.238 469.182 OFFCURVE",
"232.542 451.74 CURVE",
"224.421 430.583 OFFCURVE",
"218.538 423.869 OFFCURVE",
"195.907 425.055 CURVE",
"173.543 426.227 OFFCURVE",
"169.023 434.051 OFFCURVE",
"163.227 455.683 CURVE",
"158.578 473.032 OFFCURVE",
"170.954 473.668 OFFCURVE",
"186.018 483.451 CURVE",
"197.376 490.827 OFFCURVE",
"202.579 492.175 OFFCURVE",
"213.104 483.652 CURVE"
);
},
{
closed = 1;
nodes = (
"577.564 580.141 OFFCURVE",
"560.383 571.228 OFFCURVE",
"535.038 546.752 CURVE",
"509.962 522.536 OFFCURVE",
"500.325 506.477 OFFCURVE",
"469.545 522.843 CURVE",
"437.171 540.056 OFFCURVE",
"438.499 555.788 OFFCURVE",
"444.866 591.898 CURVE",
"450.349 622.992 OFFCURVE",
"462.775 627.119 OFFCURVE",
"494.041 631.513 CURVE",
"529.132 636.445 OFFCURVE",
"546.584 643.658 OFFCURVE",
"562.118 611.809 CURVE"
);
},
{
closed = 1;
nodes = (
"631.64 212.693 OFFCURVE",
"639.714 212.254 OFFCURVE",
"644.02 194.983 CURVE",
"649.424 173.306 OFFCURVE",
"653.202 163.221 OFFCURVE",
"634.257 151.382 CURVE",
"614.271 138.893 OFFCURVE",
"605.627 142.742 OFFCURVE",
"587.574 157.89 CURVE",
"570.903 171.879 OFFCURVE",
"570.469 180.307 OFFCURVE",
"578.621 200.486 CURVE",
"585.69 217.982 OFFCURVE",
"595.06 215.251 OFFCURVE",
"613.883 213.934 CURVE"
);
},
{
closed = 1;
nodes = (
"487.292 133.548 OFFCURVE",
"492.109 135.131 OFFCURVE",
"491.998 128.773 CURVE",
"491.865 121.133 OFFCURVE",
"490.108 118.802 OFFCURVE",
"482.801 116.568 CURVE",
"476.233 114.56 OFFCURVE",
"474.748 117.639 OFFCURVE",
"470.808 123.264 CURVE",
"466.869 128.89 OFFCURVE",
"464.485 131.339 OFFCURVE",
"468.618 136.824 CURVE",
"472.445 141.902 OFFCURVE",
"475.266 137.689 OFFCURVE",
"481.279 135.619 CURVE"
);
},
{
closed = 1;
nodes = (
"261.494 552.346 OFFCURVE",
"252.289 553.165 OFFCURVE",
"238.498 548.146 CURVE",
"224.708 543.127 OFFCURVE",
"218.183 536.581 OFFCURVE",
"209.148 548.146 CURVE",
"199.757 560.166 OFFCURVE",
"205.231 565.656 OFFCURVE",
"213.761 578.302 CURVE",
"220.27 587.951 OFFCURVE",
"225.498 585.55 OFFCURVE",
"236.686 582.341 CURVE",
"250.493 578.382 OFFCURVE",
"260.481 581.367 OFFCURVE",
"260.982 567.012 CURVE"
);
},
{
closed = 1;
nodes = (
"218.892 87.502 OFFCURVE",
"222.094 85.95 OFFCURVE",
"224.455 77.141 CURVE",
"226.493 69.535 OFFCURVE",
"220.505 69.74 OFFCURVE",
"213.902 65.452 CURVE",
"207.984 61.609 OFFCURVE",
"205.673 57.68 OFFCURVE",
"200.19 62.12 CURVE",
"193.559 67.49 OFFCURVE",
"191.939 70.41 OFFCURVE",
"194.996 78.376 CURVE",
"198.156 86.607 OFFCURVE",
"200.98 88.441 OFFCURVE",
"209.785 87.979 CURVE"
);
},
{
closed = 1;
nodes = (
"396.197 598.335 OFFCURVE",
"393.839 595.737 OFFCURVE",
"392.89 590.855 CURVE",
"391.861 585.564 OFFCURVE",
"393.69 581.739 OFFCURVE",
"388.341 581.082 CURVE",
"381.619 580.257 OFFCURVE",
"378.986 580.791 OFFCURVE",
"376.124 586.929 CURVE",
"373.143 593.321 OFFCURVE",
"373.657 595.966 OFFCURVE",
"378.816 600.776 CURVE",
"383.582 605.22 OFFCURVE",
"386.149 603.905 OFFCURVE",
"391.848 600.746 CURVE"
);
},
{
closed = 1;
nodes = (
"111.025 537.369 OFFCURVE",
"109.265 536.101 OFFCURVE",
"106.459 532.985 CURVE",
"103.653 529.869 OFFCURVE",
"102.577 527.986 OFFCURVE",
"98.746 529.692 CURVE",
"94.167 531.73 OFFCURVE",
"92.525 532.956 OFFCURVE",
"93.049 537.941 CURVE",
"93.527 542.488 OFFCURVE",
"96.28 541.918 OFFCURVE",
"100.753 542.869 CURVE",
"104.854 543.741 OFFCURVE",
"106.832 544.631 OFFCURVE",
"108.928 541 CURVE"
);
},
{
closed = 1;
nodes = (
"324.754 641.096 OFFCURVE",
"325.968 635.386 OFFCURVE",
"319.752 621.425 CURVE",
"313.874 608.222 OFFCURVE",
"307.968 607.615 OFFCURVE",
"293.596 609.126 CURVE",
"280.437 610.509 OFFCURVE",
"277.232 614.484 OFFCURVE",
"274.481 627.426 CURVE",
"271.384 641.994 OFFCURVE",
"269.102 648.802 OFFCURVE",
"282 656.249 CURVE",
"295.762 664.194 OFFCURVE",
"301.588 661.955 OFFCURVE",
"313.397 651.322 CURVE"
);
},
{
closed = 1;
nodes = (
"244.15 373.777 OFFCURVE",
"248.504 372.899 OFFCURVE",
"245.967 366.92 CURVE",
"243.429 360.942 OFFCURVE",
"239.773 363.464 OFFCURVE",
"233.303 364.03 CURVE",
"226.423 364.632 OFFCURVE",
"221.912 362.122 OFFCURVE",
"220.359 368.851 CURVE",
"218.684 376.107 OFFCURVE",
"221.951 377.593 OFFCURVE",
"228.335 381.429 CURVE",
"233.233 384.372 OFFCURVE",
"234.936 381.787 OFFCURVE",
"239.248 378.038 CURVE"
);
},
{
closed = 1;
nodes = (
"115.097 433.766 OFFCURVE",
"116.535 430.272 OFFCURVE",
"112.279 421.548 CURVE",
"107.333 411.405 OFFCURVE",
"105.252 406.634 OFFCURVE",
"94.077 408.204 CURVE",
"81.557 409.964 OFFCURVE",
"77.53 412.728 OFFCURVE",
"75.334 425.18 CURVE",
"73.231 437.106 OFFCURVE",
"77.387 440.09 OFFCURVE",
"88.08 445.776 CURVE",
"97.225 450.639 OFFCURVE",
"100.664 447.704 OFFCURVE",
"108.115 440.509 CURVE"
);
}
);
width = 733;
}
);
leftKerningGroup = O;
rightKerningGroup = C;
unicode = 00C7;
userData = {
com.typemytype.robofont.guides = (
{
angle = 0;
isGlobal = 0;
magnetic = 5;
x = 0;
y = "-174";
},
{
angle = 0;
isGlobal = 0;
magnetic = 5;
x = 0;
y = "-220";
},
{
angle = 0;
isGlobal = 0;
magnetic = 5;
x = 0;
y = "-96";
},
{
angle = 0;
isGlobal = 0;
magnetic = 5;
x = 0;
y = "-50";
},
{
angle = 0;
isGlobal = 0;
magnetic = 5;
x = 0;
y = "-135";
},
{
angle = 90;
isGlobal = 0;
magnetic = 5;
x = 331;
y = 0;
},
{
angle = 90;
isGlobal = 0;
magnetic = 5;
x = 342;
y = 0;
}
);
};
},
{
color = 1;
glyphname = D;
layers = (
{
hints = (
{
horizontal = 1;
place = "{-2147483648, 0}";
type = Tag;
name = hr00;
}
);
layerId = "EC64484B-0978-4CB1-9EE9-C40A2D8C4059";
paths = (
{
closed = 1;
nodes = (
"566 0 OFFCURVE",
"696 87 OFFCURVE",
"704 276 CURVE SMOOTH",
"706 330 OFFCURVE",
"706 368 OFFCURVE",
"704 425 CURVE SMOOTH",
"697 604 OFFCURVE",
"557 700 OFFCURVE",
"370 700 CURVE SMOOTH",
"82 700 LINE SMOOTH",
"67 700 OFFCURVE",
"55 688 OFFCURVE",
"55 673 CURVE SMOOTH",
"55 27 LINE SMOOTH",
"55 12 OFFCURVE",
"67 0 OFFCURVE",
"82 0 CURVE SMOOTH",
"375 0 LINE SMOOTH"
);
},
{
closed = 1;
nodes = (
"365 505 LINE SMOOTH",
"410 505 OFFCURVE",
"447 481 OFFCURVE",
"450 425 CURVE SMOOTH",
"453 370 OFFCURVE",
"453 333 OFFCURVE",
"450 276 CURVE SMOOTH",
"447 220 OFFCURVE",
"414 195 OFFCURVE",
"370 195 CURVE SMOOTH",
"305 195 LINE",
"305 505 LINE"
);
},
{
closed = 1;
nodes = (
"225.754 300.286 OFFCURVE",
"222.962 293.023 OFFCURVE",
"204.89 283.815 CURVE",
"184.871 273.615 OFFCURVE",
"175.895 270.122 OFFCURVE",
"160.009 286.009 CURVE",
"145.195 300.822 OFFCURVE",
"154.541 309.046 OFFCURVE",
"164.052 327.712 CURVE",
"171.524 342.376 OFFCURVE",
"177.125 345.23 OFFCURVE",
"193.38 342.655 CURVE",
"211.536 339.78 OFFCURVE",
"219.706 338.475 OFFCURVE",
"222.581 320.319 CURVE"
);
},
{
closed = 1;
nodes = (
"220 503.105 OFFCURVE",
"215.559 503.152 OFFCURVE",
"209.878 500.003 CURVE",
"205.766 497.723 OFFCURVE",
"203.983 497.942 OFFCURVE",
"200.544 501.149 CURVE",
"195.794 505.579 OFFCURVE",
"191.473 506.608 OFFCURVE",
"194.218 512.494 CURVE",
"197.12 518.718 OFFCURVE",
"200.402 517.762 OFFCURVE",
"207.219 516.925 CURVE",
"214.035 516.089 OFFCURVE",
"217.451 516.222 OFFCURVE",
"218.761 509.481 CURVE"
);
},
{
closed = 1;
nodes = (
"198.894 160.926 OFFCURVE",
"199.725 158.743 OFFCURVE",
"195.635 156.285 CURVE",
"191.101 153.561 OFFCURVE",
"189.088 153.737 OFFCURVE",
"185.095 157.208 CURVE",
"181.494 160.338 OFFCURVE",
"182.692 162.343 OFFCURVE",
"184.556 166.735 CURVE",
"185.97 170.066 OFFCURVE",
"187.831 169.296 OFFCURVE",
"191.436 168.981 CURVE",
"195.04 168.666 OFFCURVE",
"197.007 169.1 OFFCURVE",
"197.821 165.575 CURVE"
);
},
{
closed = 1;
nodes = (
"383.525 653.534 OFFCURVE",
"384.045 643.529 OFFCURVE",
"375.712 619.326 CURVE",
"368.706 598.98 OFFCURVE",
"357.009 603.629 OFFCURVE",
"335.494 604.004 CURVE",
"316.871 604.329 OFFCURVE",
"308.931 605.248 OFFCURVE",
"303.486 623.059 CURVE",
"297.556 642.456 OFFCURVE",
"299.31 650.037 OFFCURVE",
"315.925 661.67 CURVE",
"335.467 675.354 OFFCURVE",
"344.029 683.296 OFFCURVE",
"363.082 668.939 CURVE"
);
},
{
closed = 1;
nodes = (
"591.011 324.422 OFFCURVE",
"595.366 322.574 OFFCURVE",
"597.614 311.007 CURVE",
"599.813 299.693 OFFCURVE",
"595.807 296.845 OFFCURVE",
"585.727 291.257 CURVE",
"575.646 285.669 OFFCURVE",
"571.108 283.781 OFFCURVE",
"562.678 291.642 CURVE",
"553.202 300.478 OFFCURVE",
"550.679 304.978 OFFCURVE",
"556.155 316.72 CURVE",
"561.416 328.003 OFFCURVE",
"566.959 327.376 OFFCURVE",
"579.316 325.858 CURVE"
);
},
{
closed = 1;
nodes = (
"200.127 621.852 OFFCURVE",
"199.19 619.104 OFFCURVE",
"192.232 616.708 CURVE",
"184.414 614.016 OFFCURVE",
"180.997 613.369 OFFCURVE",
"176.02 619.973 CURVE",
"171.531 625.93 OFFCURVE",
"176.349 628.052 OFFCURVE",
"180.628 634.162 CURVE",
"183.662 638.496 OFFCURVE",
"185.572 639.153 OFFCURVE",
"190.631 637.607 CURVE",
"196.646 635.768 OFFCURVE",
"199.888 635.498 OFFCURVE",
"199.998 629.209 CURVE"
);
},
{
closed = 1;
nodes = (
"414.378 116.438 OFFCURVE",
"414.26 113.1 OFFCURVE",
"410.79 105.306 CURVE",
"407.846 98.695 OFFCURVE",
"404.152 100.298 OFFCURVE",
"396.955 101.055 CURVE",
"388.161 101.979 OFFCURVE",
"382.232 98.608 OFFCURVE",
"380.393 107.258 CURVE",
"378.361 116.818 OFFCURVE",
"382.035 119.103 OFFCURVE",
"390.5 123.99 CURVE",
"398.136 128.399 OFFCURVE",
"401.485 128.047 OFFCURVE",
"408.037 122.147 CURVE"
);
},
{
closed = 1;
nodes = (
"273.836 270.008 OFFCURVE",
"274.945 268.801 OFFCURVE",
"273.444 265.265 CURVE",
"271.942 261.728 OFFCURVE",
"270.304 261.688 OFFCURVE",
"266.477 262.023 CURVE",
"262.964 262.33 OFFCURVE",
"261.947 263.214 OFFCURVE",
"261.154 266.65 CURVE",
"260.21 270.736 OFFCURVE",
"259.285 272.698 OFFCURVE",
"262.88 274.857 CURVE",
"266.474 277.017 OFFCURVE",
"267.772 275.279 OFFCURVE",
"270.936 272.528 CURVE"
);
},
{
closed = 1;
nodes = (
"383.806 59.597 OFFCURVE",
"387.56 59.275 OFFCURVE",
"388.815 51.347 CURVE",
"389.982 43.979 OFFCURVE",
"384.732 44.367 OFFCURVE",
"378.086 40.981 CURVE",
"373.62 38.705 OFFCURVE",
"371.888 39.799 OFFCURVE",
"368.343 43.343 CURVE",
"364.799 46.888 OFFCURVE",
"363.705 48.62 OFFCURVE",
"365.981 53.086 CURVE",
"368.837 58.69 OFFCURVE",
"369.665 61.836 OFFCURVE",
"375.877 60.852 CURVE"
);
},
{
closed = 1;
nodes = (
"492.476 573.385 OFFCURVE",
"489.973 568.868 OFFCURVE",
"477.72 563.155 CURVE",
"466.647 557.991 OFFCURVE",
"463.168 562.788 OFFCURVE",
"454.836 571.724 CURVE",
"446.256 580.924 OFFCURVE",
"440.91 584.633 OFFCURVE",
"447.009 595.635 CURVE",
"453.448 607.251 OFFCURVE",
"458.97 607.148 OFFCURVE",
"472.007 604.614 CURVE",
"484.725 602.142 OFFCURVE",
"489.25 599.663 OFFCURVE",
"490.829 586.803 CURVE"
);
},
{
closed = 1;
nodes = (
"528.582 316.785 OFFCURVE",
"522.856 314.428 OFFCURVE",
"513.851 307.392 CURVE",
"507.067 302.092 OFFCURVE",
"503.868 304.409 OFFCURVE",
"496.73 309.223 CURVE",
"488.023 315.096 OFFCURVE",
"480.918 315.692 OFFCURVE",
"483.814 325.788 CURVE",
"486.669 335.746 OFFCURVE",
"493.228 331.631 OFFCURVE",
"503.581 331.993 CURVE",
"514.355 332.369 OFFCURVE",
"520.986 337.654 OFFCURVE",
"524.673 327.524 CURVE"
);
},
{
closed = 1;
nodes = (
"487.166 283.556 OFFCURVE",
"490.528 284.126 OFFCURVE",
"489.912 279.747 CURVE",
"489.297 275.369 OFFCURVE",
"486.222 276.844 OFFCURVE",
"481.868 276.076 CURVE",
"478.974 275.566 OFFCURVE",
"477.965 276.058 OFFCURVE",
"476.585 278.653 CURVE",
"474.51 282.556 OFFCURVE",
"471.455 284.072 OFFCURVE",
"474.526 287.252 CURVE",
"477.597 290.432 OFFCURVE",
"479.218 287.432 OFFCURVE",
"483.192 285.494 CURVE"
);
},
{
closed = 1;
nodes = (
"116.034 500.373 OFFCURVE",
"114.732 498.014 OFFCURVE",
"111.947 492.775 CURVE",
"109.318 487.831 OFFCURVE",
"107.777 486.18 OFFCURVE",
"102.264 487.152 CURVE",
"96.75 488.124 OFFCURVE",
"95.867 490.203 OFFCURVE",
"95.088 495.747 CURVE",
"94.39 500.711 OFFCURVE",
"95.988 501.993 OFFCURVE",
"100.493 504.19 CURVE",
"105.629 506.695 OFFCURVE",
"107.943 508.752 OFFCURVE",
"111.913 504.641 CURVE"
);
},
{
closed = 1;
nodes = (
"643.752 465.164 OFFCURVE",
"638.638 463.911 OFFCURVE",
"633.364 458.636 CURVE",
"629.405 454.677 OFFCURVE",
"627.448 453.548 OFFCURVE",
"622.46 456.09 CURVE",
"617.472 458.632 OFFCURVE",
"617.235 460.878 OFFCURVE",
"618.111 466.408 CURVE",
"619.215 473.377 OFFCURVE",
"617.841 477.724 OFFCURVE",
"624.81 478.828 CURVE",
"633.237 480.162 OFFCURVE",
"636.491 479.412 OFFCURVE",
"640.365 471.81 CURVE"
);
},
{
closed = 1;
nodes = (
"157.232 416.282 OFFCURVE",
"159.209 414.797 OFFCURVE",
"158.993 408.616 CURVE",
"158.694 400.042 OFFCURVE",
"160.933 395.023 OFFCURVE",
"152.686 392.659 CURVE",
"144.587 390.336 OFFCURVE",
"144.421 396.423 OFFCURVE",
"139.71 403.408 CURVE",
"135.869 409.102 OFFCURVE",
"133.528 411.592 OFFCURVE",
"137.756 417.004 CURVE",
"141.984 422.415 OFFCURVE",
"144.967 420.746 OFFCURVE",
"151.42 418.397 CURVE"
);
},
{
closed = 1;
nodes = (
"356.027 66.681 OFFCURVE",
"341.823 60.646 OFFCURVE",
"311.919 46.06 CURVE",
"288.268 34.525 OFFCURVE",
"280.944 45.674 OFFCURVE",
"262.665 64.603 CURVE",
"247.923 79.869 OFFCURVE",
"250.017 88.224 OFFCURVE",
"259.98 106.962 CURVE",
"271.251 128.159 OFFCURVE",
"274.345 140.47 OFFCURVE",
"297.988 136.301 CURVE",
"329.889 130.676 OFFCURVE",
"346.888 131.707 OFFCURVE",
"351.397 99.629 CURVE"
);
},
{
closed = 1;
nodes = (
"197.206 552.551 OFFCURVE",
"198.783 549.887 OFFCURVE",
"193.991 546.775 CURVE",
"188.568 543.253 OFFCURVE",
"186.102 543.382 OFFCURVE",
"181.077 547.451 CURVE",
"176.053 551.52 OFFCURVE",
"175.414 553.906 OFFCURVE",
"177.731 559.942 CURVE",
"179.947 565.716 OFFCURVE",
"182.347 566.31 OFFCURVE",
"188.523 565.986 CURVE",
"193.868 565.706 OFFCURVE",
"194.342 563.24 OFFCURVE",
"195.727 558.071 CURVE"
);
},
{
closed = 1;
nodes = (
"567.544 565.122 OFFCURVE",
"565.924 563.868 OFFCURVE",
"561.381 561.75 CURVE",
"556.202 559.335 OFFCURVE",
"553.852 557.319 OFFCURVE",
"549.955 561.498 CURVE",
"545.909 565.837 OFFCURVE",
"547.252 568.174 OFFCURVE",
"550.128 573.363 CURVE",
"552.442 577.536 OFFCURVE",
"554.652 576.782 OFFCURVE",
"559.336 575.871 CURVE",
"564.019 574.961 OFFCURVE",
"566.351 574.833 OFFCURVE",
"566.933 570.097 CURVE"
);
},
{
closed = 1;
nodes = (
"579.283 458.413 OFFCURVE",
"570.478 452.834 OFFCURVE",
"564.407 439.815 CURVE",
"559.014 428.25 OFFCURVE",
"558.619 420.631 OFFCURVE",
"545.953 422.186 CURVE",
"531.654 423.942 OFFCURVE",
"528.19 428.279 OFFCURVE",
"525.441 442.421 CURVE",
"522.907 455.457 OFFCURVE",
"527.203 458.928 OFFCURVE",
"538.819 465.367 CURVE",
"551.979 472.662 OFFCURVE",
"557.773 478.471 OFFCURVE",
"568.778 468.209 CURVE"
);
}
);
width = 740;
}
);
leftKerningGroup = I;
rightKerningGroup = D;
unicode = 0044;
userData = {
com.typemytype.robofont.guides = (
{
angle = 0;
isGlobal = 0;
magnetic = 5;
x = 0;
y = 425;
},
{
angle = 0;
isGlobal = 0;
magnetic = 5;
x = 0;
y = 276;
},
{
angle = 0;
isGlobal = 0;
magnetic = 5;
x = 0;
y = 9;
},
{
angle = 90;
isGlobal = 0;
magnetic = 5;
x = 320;
y = 0;
},
{
angle = 90;
isGlobal = 0;
magnetic = 5;
x = 603;
y = 0;
},
{
angle = 90;
isGlobal = 0;
magnetic = 5;
x = 94;
y = 0;
}
);
};
},
{
color = 1;
glyphname = Eth;
layers = (
{
hints = (
{
horizontal = 1;
place = "{-2147483648, 0}";
type = Tag;
name = hr00;
}
);
layerId = "EC64484B-0978-4CB1-9EE9-C40A2D8C4059";
paths = (
{
closed = 1;
nodes = (
"586 0 OFFCURVE",
"729 87 OFFCURVE",
"729 276 CURVE SMOOTH",
"729 425 LINE SMOOTH",
"729 604 OFFCURVE",
"581 700 OFFCURVE",
"394 700 CURVE SMOOTH",
"106 700 LINE SMOOTH",
"91 700 OFFCURVE",
"79 688 OFFCURVE",
"79 673 CURVE SMOOTH",
"79 429 LINE",
"41 429 LINE SMOOTH",
"26 429 OFFCURVE",
"14 417 OFFCURVE",
"14 402 CURVE SMOOTH",
"14 301 LINE SMOOTH",
"14 286 OFFCURVE",
"26 274 OFFCURVE",
"41 274 CURVE SMOOTH",
"79 274 LINE",
"79 27 LINE SMOOTH",
"79 12 OFFCURVE",
"91 0 OFFCURVE",
"106 0 CURVE SMOOTH",
"395 0 LINE SMOOTH"
);
},
{
closed = 1;
nodes = (
"385 274 LINE SMOOTH",
"400 274 OFFCURVE",
"412 286 OFFCURVE",
"412 301 CURVE SMOOTH",
"412 402 LINE SMOOTH",
"412 417 OFFCURVE",
"400 429 OFFCURVE",
"385 429 CURVE SMOOTH",
"329 429 LINE",
"329 505 LINE",
"394 505 LINE SMOOTH",
"439 505 OFFCURVE",
"469 481 OFFCURVE",
"469 425 CURVE SMOOTH",
"469 276 LINE SMOOTH",
"469 220 OFFCURVE",
"438 195 OFFCURVE",
"394 195 CURVE SMOOTH",
"329 195 LINE",
"329 274 LINE"
);
},
{
closed = 1;
nodes = (
"633.079 158.343 OFFCURVE",
"631.649 144.139 OFFCURVE",
"605.255 117.745 CURVE",
"582.578 95.069 OFFCURVE",
"570.415 112.8 OFFCURVE",
"541.84 127.36 CURVE",
"515.371 140.847 OFFCURVE",
"498.067 142.731 OFFCURVE",
"502.714 172.073 CURVE",
"508.141 206.335 OFFCURVE",
"516.352 216.835 OFFCURVE",
"550.614 222.261 CURVE",
"586.338 227.919 OFFCURVE",
"599.713 223.828 OFFCURVE",
"616.133 191.601 CURVE"
);
},
{
closed = 1;
nodes = (
"641.492 378.197 OFFCURVE",
"648.391 368.117 OFFCURVE",
"651.71 336.54 CURVE",
"655.672 298.844 OFFCURVE",
"663.319 279.728 OFFCURVE",
"628.692 264.311 CURVE",
"586.944 245.724 OFFCURVE",
"568.64 242.171 OFFCURVE",
"538.062 276.131 CURVE",
"511.07 306.109 OFFCURVE",
"538.994 319.066 OFFCURVE",
"559.163 354 CURVE",
"574.116 379.899 OFFCURVE",
"581.183 391.016 OFFCURVE",
"610.435 384.798 CURVE"
);
},
{
closed = 1;
nodes = (
"396.455 588.095 OFFCURVE",
"400.005 581.448 OFFCURVE",
"388.074 570.706 CURVE",
"376.611 560.385 OFFCURVE",
"370.858 567.101 OFFCURVE",
"357.5 574.813 CURVE",
"347.295 580.705 OFFCURVE",
"346.965 585.424 OFFCURVE",
"349.415 596.95 CURVE",
"351.678 607.594 OFFCURVE",
"355.297 609.764 OFFCURVE",
"366.118 610.901 CURVE",
"378.629 612.216 OFFCURVE",
"384.808 614.254 OFFCURVE",
"389.925 602.762 CURVE"
);
},
{
closed = 1;
nodes = (
"171.632 190.454 OFFCURVE",
"163.15 189.217 OFFCURVE",
"154.866 181.492 CURVE",
"145.96 173.188 OFFCURVE",
"144.53 163.231 OFFCURVE",
"133.88 169.135 CURVE",
"122.372 175.513 OFFCURVE",
"124.839 181.71 OFFCURVE",
"127.349 194.625 CURVE",
"129.374 205.041 OFFCURVE",
"133.396 206.58 OFFCURVE",
"143.928 207.873 CURVE",
"155.842 209.336 OFFCURVE",
"161.772 211.599 OFFCURVE",
"166.845 200.72 CURVE"
);
},
{
closed = 1;
nodes = (
"441.909 85.036 OFFCURVE",
"439.233 75.917 OFFCURVE",
"440.885 60.195 CURVE",
"442.175 47.919 OFFCURVE",
"439.818 43.836 OFFCURVE",
"428.541 38.816 CURVE",
"414.1 32.386 OFFCURVE",
"407.541 25.509 OFFCURVE",
"396.963 37.257 CURVE",
"384.964 50.583 OFFCURVE",
"385.053 57.47 OFFCURVE",
"394.019 73 CURVE",
"402.985 88.53 OFFCURVE",
"408.905 92.051 OFFCURVE",
"426.445 88.323 CURVE"
);
},
{
closed = 1;
nodes = (
"130.132 563.948 OFFCURVE",
"128.155 562.705 OFFCURVE",
"124.5 559.638 CURVE",
"121.108 556.792 OFFCURVE",
"119.515 555.87 OFFCURVE",
"115.761 558.216 CURVE",
"111.222 561.052 OFFCURVE",
"109.002 562.227 OFFCURVE",
"110.297 567.419 CURVE",
"111.541 572.408 OFFCURVE",
"114.383 571.624 OFFCURVE",
"119.512 571.983 CURVE",
"124.271 572.316 OFFCURVE",
"126.557 572.795 OFFCURVE",
"128.345 568.371 CURVE"
);
},
{
closed = 1;
nodes = (
"247.761 327.927 OFFCURVE",
"243.527 322.213 OFFCURVE",
"226.609 314.68 CURVE",
"207.584 306.21 OFFCURVE",
"198.952 301.428 OFFCURVE",
"185.017 316.904 CURVE",
"169.873 333.724 OFFCURVE",
"169.774 342.399 OFFCURVE",
"181.091 362 CURVE",
"191.449 379.94 OFFCURVE",
"200.391 378.608 OFFCURVE",
"220.653 374.301 CURVE",
"239.051 370.39 OFFCURVE",
"243.859 365.051 OFFCURVE",
"245.825 346.345 CURVE"
);
},
{
closed = 1;
nodes = (
"295.383 368.164 OFFCURVE",
"296.685 367.169 OFFCURVE",
"295.821 363.425 CURVE",
"294.664 358.416 OFFCURVE",
"294.993 355.486 OFFCURVE",
"289.872 355.038 CURVE",
"284.75 354.59 OFFCURVE",
"284.565 357.532 OFFCURVE",
"282.556 362.265 CURVE",
"280.949 366.052 OFFCURVE",
"281.302 367.584 OFFCURVE",
"284.408 370.283 CURVE",
"287.307 372.804 OFFCURVE",
"288.797 372.122 OFFCURVE",
"292.09 370.143 CURVE"
);
},
{
closed = 1;
nodes = (
"507.033 624.6 OFFCURVE",
"504.619 621.558 OFFCURVE",
"502.56 615.219 CURVE",
"500.379 608.509 OFFCURVE",
"501.056 604 OFFCURVE",
"494 604 CURVE",
"487.094 604 OFFCURVE",
"488.526 608.96 OFFCURVE",
"486.392 615.528 CURVE",
"484.626 620.962 OFFCURVE",
"482.911 623.54 OFFCURVE",
"487.534 626.899 CURVE",
"493.278 631.072 OFFCURVE",
"495.897 632.69 OFFCURVE",
"501.641 628.517 CURVE"
);
},
{
closed = 1;
nodes = (
"239.091 154.21 OFFCURVE",
"234.357 150.696 OFFCURVE",
"228.607 142.171 CURVE",
"224.31 135.801 OFFCURVE",
"221.079 136.347 OFFCURVE",
"213.692 138.465 CURVE",
"205.976 140.677 OFFCURVE",
"202.289 141.454 OFFCURVE",
"202.009 149.477 CURVE",
"201.668 159.245 OFFCURVE",
"201.659 163.572 OFFCURVE",
"210.844 166.914 CURVE",
"221.366 170.744 OFFCURVE",
"225.867 171.137 OFFCURVE",
"232.76 162.313 CURVE"
);
},
{
closed = 1;
nodes = (
"211.179 534.354 OFFCURVE",
"205.387 532.634 OFFCURVE",
"196.388 526.564 CURVE",
"187.389 520.494 OFFCURVE",
"183.625 515.769 OFFCURVE",
"175.071 522.452 CURVE",
"165.989 529.548 OFFCURVE",
"167.143 534.326 OFFCURVE",
"171.086 545.156 CURVE",
"174.349 554.124 OFFCURVE",
"178.952 553.325 OFFCURVE",
"188.489 552.991 CURVE",
"199.151 552.619 OFFCURVE",
"205.246 555.044 OFFCURVE",
"208.186 544.788 CURVE"
);
},
{
closed = 1;
nodes = (
"377.203 149.518 OFFCURVE",
"377.584 145.856 OFFCURVE",
"376.966 137.023 CURVE",
"376.275 127.14 OFFCURVE",
"377.209 121.961 OFFCURVE",
"367.597 119.564 CURVE",
"357.038 116.932 OFFCURVE",
"353.501 119.233 OFFCURVE",
"347.735 128.461 CURVE",
"342.678 136.554 OFFCURVE",
"346.141 139.689 OFFCURVE",
"352.275 147 CURVE",
"357.967 153.781 OFFCURVE",
"360.785 156.152 OFFCURVE",
"368.994 152.835 CURVE"
);
},
{
closed = 1;
nodes = (
"150.745 339.272 OFFCURVE",
"145.67 338.68 OFFCURVE",
"137.08 335.033 CURVE",
"130.046 332.048 OFFCURVE",
"127.202 332.704 OFFCURVE",
"122.189 338.471 CURVE",
"116.308 345.236 OFFCURVE",
"112.811 348.072 OFFCURVE",
"117.428 355.756 CURVE",
"122.29 363.847 OFFCURVE",
"126.177 363.739 OFFCURVE",
"135.374 361.616 CURVE",
"144.898 359.417 OFFCURVE",
"149.08 358.306 OFFCURVE",
"149.932 348.569 CURVE"
);
},
{
closed = 1;
nodes = (
"588.934 462.914 OFFCURVE",
"585.148 456.887 OFFCURVE",
"570.207 446.425 CURVE",
"553.912 435.015 OFFCURVE",
"546.62 429.478 OFFCURVE",
"530.733 441.45 CURVE",
"516.271 452.348 OFFCURVE",
"528.194 460.39 OFFCURVE",
"534.09 477.511 CURVE",
"539.711 493.836 OFFCURVE",
"536.348 506.296 OFFCURVE",
"553.611 505.995 CURVE",
"573.336 505.65 OFFCURVE",
"577.834 499.222 OFFCURVE",
"583.602 480.356 CURVE"
);
},
{
closed = 1;
nodes = (
"607.84 576.38 OFFCURVE",
"610.128 568.426 OFFCURVE",
"597.55 551.733 CURVE",
"586.306 536.812 OFFCURVE",
"577.851 545.225 OFFCURVE",
"560.186 551.308 CURVE",
"542.521 557.39 OFFCURVE",
"530.68 555.966 OFFCURVE",
"531.006 574.646 CURVE",
"531.361 595.022 OFFCURVE",
"539.155 598.643 OFFCURVE",
"558.644 604.602 CURVE",
"577.21 610.278 OFFCURVE",
"584.716 609.404 OFFCURVE",
"595.851 593.502 CURVE"
);
},
{
closed = 1;
nodes = (
"332.37 164.403 OFFCURVE",
"337.214 165.902 OFFCURVE",
"336.992 159.546 CURVE",
"336.759 152.885 OFFCURVE",
"332.888 153.186 OFFCURVE",
"326.481 151.349 CURVE",
"320.074 149.512 OFFCURVE",
"316.95 147.205 OFFCURVE",
"313.223 152.73 CURVE",
"308.95 159.065 OFFCURVE",
"309.051 161.982 OFFCURVE",
"313.756 168.004 CURVE",
"317.671 173.015 OFFCURVE",
"320.418 168.753 OFFCURVE",
"326.394 166.578 CURVE"
);
},
{
closed = 1;
nodes = (
"187.354 97.389 OFFCURVE",
"190.376 95.51 OFFCURVE",
"191.803 86.503 CURVE",
"193.772 74.07 OFFCURVE",
"198.565 67.439 OFFCURVE",
"187.35 61.725 CURVE",
"174.995 55.43 OFFCURVE",
"170.249 58.639 OFFCURVE",
"160.444 68.444 CURVE",
"149.912 78.975 OFFCURVE",
"144.29 83.441 OFFCURVE",
"151.052 96.712 CURVE",
"157.266 108.908 OFFCURVE",
"164.827 100.957 OFFCURVE",
"178.347 98.815 CURVE"
);
},
{
closed = 1;
nodes = (
"276.264 509.877 OFFCURVE",
"275.39 508.025 OFFCURVE",
"272.304 504.075 CURVE",
"269.009 499.858 OFFCURVE",
"267.609 497.773 OFFCURVE",
"262.58 499.603 CURVE",
"257.319 501.518 OFFCURVE",
"256.81 503.719 OFFCURVE",
"257.005 509.314 CURVE",
"257.18 514.324 OFFCURVE",
"258.977 515.308 OFFCURVE",
"263.795 516.69 CURVE",
"268.613 518.072 OFFCURVE",
"270.658 518.188 OFFCURVE",
"273.461 514.033 CURVE"
);
},
{
closed = 1;
nodes = (
"318.172 595.63 OFFCURVE",
"322.269 594.213 OFFCURVE",
"318.948 589.29 CURVE",
"315.162 583.676 OFFCURVE",
"312.477 583.56 OFFCURVE",
"305.968 585.426 CURVE",
"299.753 587.208 OFFCURVE",
"298.232 589.154 OFFCURVE",
"298.007 595.616 CURVE",
"297.791 601.797 OFFCURVE",
"299.768 603.282 OFFCURVE",
"305.58 605.397 CURVE",
"310.411 607.155 OFFCURVE",
"311.351 604.361 OFFCURVE",
"314.516 600.31 CURVE"
);
}
);
width = 766;
}
);
leftKerningGroup = I;
rightKerningGroup = D;
unicode = 00D0;
userData = {
com.typemytype.robofont.guides = (
{
angle = 0;
isGlobal = 0;
magnetic = 5;
x = 0;
y = 350;
}
);
};
},
{
color = 1;
glyphname = Dcroat;
layers = (
{
hints = (
{
horizontal = 1;
place = "{-2147483648, 0}";
type = Tag;
name = hr00;
}
);
layerId = "EC64484B-0978-4CB1-9EE9-C40A2D8C4059";
paths = (
{
closed = 1;
nodes = (
"586 0 OFFCURVE",
"720 87 OFFCURVE",
"728 276 CURVE SMOOTH",
"730 330 OFFCURVE",
"730 368 OFFCURVE",
"728 425 CURVE SMOOTH",
"721 604 OFFCURVE",
"581 700 OFFCURVE",
"394 700 CURVE SMOOTH",
"106 700 LINE SMOOTH",
"91 700 OFFCURVE",
"79 688 OFFCURVE",
"79 673 CURVE SMOOTH",
"79 430 LINE",
"41 430 LINE SMOOTH",
"26 430 OFFCURVE",
"14 418 OFFCURVE",
"14 403 CURVE SMOOTH",
"14 302 LINE SMOOTH",
"14 287 OFFCURVE",
"26 275 OFFCURVE",
"41 275 CURVE SMOOTH",
"79 275 LINE",
"79 27 LINE SMOOTH",
"79 12 OFFCURVE",
"91 0 OFFCURVE",
"106 0 CURVE SMOOTH",
"395 0 LINE SMOOTH"
);
},
{
closed = 1;
nodes = (
"385 275 LINE SMOOTH",
"400 275 OFFCURVE",
"412 287 OFFCURVE",
"412 302 CURVE SMOOTH",
"412 403 LINE SMOOTH",
"412 418 OFFCURVE",
"400 430 OFFCURVE",
"385 430 CURVE SMOOTH",
"329 430 LINE",
"329 505 LINE",
"394 505 LINE SMOOTH",
"439 505 OFFCURVE",
"471 481 OFFCURVE",
"474 425 CURVE SMOOTH",
"477 370 OFFCURVE",
"477 333 OFFCURVE",
"474 276 CURVE SMOOTH",
"471 220 OFFCURVE",
"438 195 OFFCURVE",
"394 195 CURVE SMOOTH",
"329 195 LINE",
"329 275 LINE"
);
},
{
closed = 1;
nodes = (
"273.415 446.147 OFFCURVE",
"271.916 438.433 OFFCURVE",
"256.87 424.403 CURVE",
"241.606 410.169 OFFCURVE",
"233.8 408.396 OFFCURVE",
"215.547 418.514 CURVE",
"199.043 427.662 OFFCURVE",
"202.896 436.629 OFFCURVE",
"206.496 455.152 CURVE",
"209.416 470.174 OFFCURVE",
"214.764 472.949 OFFCURVE",
"229.953 474.814 CURVE",
"247.91 477.018 OFFCURVE",
"257.075 481.188 OFFCURVE",
"264.721 464.792 CURVE"
);
},
{
closed = 1;
nodes = (
"300.943 606.52 OFFCURVE",
"304.458 605.219 OFFCURVE",
"301.786 599.74 CURVE",
"298.929 593.883 OFFCURVE",
"296.061 594.19 OFFCURVE",
"289.608 595.097 CURVE",
"284.517 595.813 OFFCURVE",
"285 598.721 OFFCURVE",
"284.106 603.784 CURVE",
"283.392 607.836 OFFCURVE",
"284.081 609.249 OFFCURVE",
"287.714 611.181 CURVE",
"291.622 613.259 OFFCURVE",
"293.373 613.83 OFFCURVE",
"296.557 610.755 CURVE"
);
},
{
closed = 1;
nodes = (
"349.238 56.095 OFFCURVE",
"353.003 55.971 OFFCURVE",
"354.672 48.119 CURVE",
"356.929 37.501 OFFCURVE",
"359.901 32.241 OFFCURVE",
"350.5 26.813 CURVE",
"341.099 21.386 OFFCURVE",
"338.03 26.589 OFFCURVE",
"329.963 33.853 CURVE",
"322.948 40.169 OFFCURVE",
"320.63 43.291 OFFCURVE",
"324.47 51.915 CURVE",
"328.033 59.917 OFFCURVE",
"332.543 57.85 OFFCURVE",
"341.254 56.934 CURVE"
);
},
{
closed = 1;
nodes = (
"633.135 449.942 OFFCURVE",
"628.228 446.933 OFFCURVE",
"622.382 439.176 CURVE",
"616.988 432.017 OFFCURVE",
"614.941 428.008 OFFCURVE",
"606.465 430.926 CURVE",
"597.99 433.845 OFFCURVE",
"598.846 438.264 OFFCURVE",
"599.002 447.227 CURVE",
"599.185 457.729 OFFCURVE",
"595.816 464.012 OFFCURVE",
"605.86 467.082 CURVE",
"617.129 470.528 OFFCURVE",
"620.805 467.55 OFFCURVE",
"627.564 457.898 CURVE"
);
},
{
closed = 1;
nodes = (
"587.829 143.481 OFFCURVE",
"567.486 143.538 OFFCURVE",
"542 128.823 CURVE",
"520.526 116.425 OFFCURVE",
"510.978 108.481 OFFCURVE",
"492.551 125.072 CURVE",
"469.121 146.169 OFFCURVE",
"457.277 155.195 OFFCURVE",
"470.101 183.997 CURVE",
"482.134 211.024 OFFCURVE",
"498.446 199.89 OFFCURVE",
"527.868 196.797 CURVE",
"557.289 193.705 OFFCURVE",
"575.56 201.204 OFFCURVE",
"581.711 172.267 CURVE"
);
},
{
closed = 1;
nodes = (
"626.029 364.426 OFFCURVE",
"634.118 360.103 OFFCURVE",
"628.093 342.605 CURVE",
"621.097 322.287 OFFCURVE",
"615.822 315.631 OFFCURVE",
"594.337 316.006 CURVE",
"571.402 316.406 OFFCURVE",
"563.454 320.37 OFFCURVE",
"556.748 342.305 CURVE",
"550.735 361.972 OFFCURVE",
"562.093 365.14 OFFCURVE",
"578.94 376.936 CURVE",
"592.185 386.211 OFFCURVE",
"598.336 385.294 OFFCURVE",
"611.249 375.563 CURVE"
);
},
{
closed = 1;
nodes = (
"515.404 661.708 OFFCURVE",
"520.914 646.949 OFFCURVE",
"528.711 610.267 CURVE",
"535.742 577.186 OFFCURVE",
"528.288 566.412 OFFCURVE",
"499 549.503 CURVE",
"468.613 531.959 OFFCURVE",
"454.92 527.704 OFFCURVE",
"428.845 551.182 CURVE",
"401.966 575.384 OFFCURVE",
"401.476 589.362 OFFCURVE",
"416.187 622.404 CURVE",
"431.545 656.897 OFFCURVE",
"440.558 669.574 OFFCURVE",
"478.108 665.627 CURVE"
);
},
{
closed = 1;
nodes = (
"676.207 235.477 OFFCURVE",
"686.349 233.068 OFFCURVE",
"679.605 220.385 CURVE",
"672.541 207.1 OFFCURVE",
"665.172 210.706 OFFCURVE",
"650.353 213.319 CURVE",
"638.749 215.365 OFFCURVE",
"636.825 219.687 OFFCURVE",
"635.185 231.356 CURVE",
"633.708 241.863 OFFCURVE",
"637.011 244.628 OFFCURVE",
"646.548 249.279 CURVE",
"655.529 253.66 OFFCURVE",
"659.288 252.997 OFFCURVE",
"666.229 245.809 CURVE"
);
},
{
closed = 1;
nodes = (
"200.042 125.408 OFFCURVE",
"210.297 125.45 OFFCURVE",
"213.52 105.101 CURVE",
"216.619 85.531 OFFCURVE",
"204.458 84.829 OFFCURVE",
"186.804 75.834 CURVE",
"170.83 67.695 OFFCURVE",
"163.635 62.281 OFFCURVE",
"150.958 74.958 CURVE",
"134.498 91.418 OFFCURVE",
"125.228 98.235 OFFCURVE",
"135.796 118.976 CURVE",
"145.998 139 OFFCURVE",
"157.496 132.146 OFFCURVE",
"179.693 128.631 CURVE"
);
},
{
closed = 1;
nodes = (
"619.219 538.042 OFFCURVE",
"607.303 534.638 OFFCURVE",
"594.825 521.718 CURVE",
"582.629 509.087 OFFCURVE",
"579.438 497.845 OFFCURVE",
"563.657 505.542 CURVE",
"544.056 515.102 OFFCURVE",
"537.344 520.832 OFFCURVE",
"540.38 542.428 CURVE",
"543.379 563.767 OFFCURVE",
"551.874 566.741 OFFCURVE",
"573.096 570.483 CURVE",
"593.372 574.059 OFFCURVE",
"601.12 572.079 OFFCURVE",
"610.786 553.901 CURVE"
);
},
{
closed = 1;
nodes = (
"240.031 355.752 OFFCURVE",
"246.205 345.291 OFFCURVE",
"253.544 315.854 CURVE",
"259.877 290.455 OFFCURVE",
"248.866 284.798 OFFCURVE",
"226.667 270.926 CURVE",
"202.282 255.689 OFFCURVE",
"192.031 242.619 OFFCURVE",
"170.004 261.102 CURVE",
"149.033 278.698 OFFCURVE",
"167.929 289.856 OFFCURVE",
"178.184 315.238 CURVE",
"188.122 339.834 OFFCURVE",
"183.304 359.719 OFFCURVE",
"209.767 357.868 CURVE"
);
},
{
closed = 1;
nodes = (
"276.656 567.278 OFFCURVE",
"267.857 562.237 OFFCURVE",
"262.887 550.53 CURVE",
"259.296 542.069 OFFCURVE",
"257.675 538.264 OFFCURVE",
"248.518 539.065 CURVE",
"238.564 539.936 OFFCURVE",
"235.683 542.44 OFFCURVE",
"233.436 552.176 CURVE",
"230.565 564.609 OFFCURVE",
"226.186 570.857 OFFCURVE",
"237.124 577.429 CURVE",
"249.976 585.152 OFFCURVE",
"255.741 585.459 OFFCURVE",
"267.058 575.622 CURVE"
);
},
{
closed = 1;
nodes = (
"654.625 303.052 OFFCURVE",
"653.906 300.463 OFFCURVE",
"650.119 294.849 CURVE",
"646.149 288.963 OFFCURVE",
"644.241 286.547 OFFCURVE",
"637.417 288.504 CURVE",
"630.815 290.397 OFFCURVE",
"631.246 293.788 OFFCURVE",
"631.006 300.651 CURVE",
"630.79 306.832 OFFCURVE",
"631.426 309.221 OFFCURVE",
"637.238 311.337 CURVE",
"643.601 313.653 OFFCURVE",
"646.287 313.724 OFFCURVE",
"650.456 308.388 CURVE"
);
},
{
closed = 1;
nodes = (
"256.812 618.111 OFFCURVE",
"253.152 616.625 OFFCURVE",
"245.288 613.124 CURVE",
"237.734 609.761 OFFCURVE",
"234.386 608.818 OFFCURVE",
"228.853 614.963 CURVE",
"222.537 621.978 OFFCURVE",
"220.558 625.325 OFFCURVE",
"225.278 633.5 CURVE",
"229.49 640.796 OFFCURVE",
"233.838 636.533 OFFCURVE",
"242.079 634.781 CURVE",
"249.921 633.115 OFFCURVE",
"255.074 634.646 OFFCURVE",
"255.912 626.672 CURVE"
);
},
{
closed = 1;
nodes = (
"181.788 446.024 OFFCURVE",
"182.914 442.972 OFFCURVE",
"177.26 440.214 CURVE",
"171.781 437.542 OFFCURVE",
"170.48 441.057 OFFCURVE",
"166.245 445.443 CURVE",
"162.763 449.048 OFFCURVE",
"161.7 450.799 OFFCURVE",
"164.053 455.225 CURVE",
"166.293 459.438 OFFCURVE",
"168.517 458.722 OFFCURVE",
"173.216 457.894 CURVE",
"177.914 457.065 OFFCURVE",
"180.248 456.977 OFFCURVE",
"180.912 452.253 CURVE"
);
},
{
closed = 1;
nodes = (
"183.014 180.423 OFFCURVE",
"181.131 179.347 OFFCURVE",
"178.015 176.541 CURVE",
"175.594 174.361 OFFCURVE",
"174.322 175.041 OFFCURVE",
"171.5 176.67 CURVE",
"168.678 178.299 OFFCURVE",
"167.454 179.061 OFFCURVE",
"168.131 182.247 CURVE",
"168.864 185.697 OFFCURVE",
"169.865 186.598 OFFCURVE",
"173.373 186.967 CURVE",
"177.543 187.405 OFFCURVE",
"179.603 188.085 OFFCURVE",
"181.308 184.254 CURVE"
);
},
{
closed = 1;
nodes = (
"200.242 549.821 OFFCURVE",
"201.108 548.197 OFFCURVE",
"198.632 544.526 CURVE",
"195.64 540.09 OFFCURVE",
"194.388 537.912 OFFCURVE",
"189.244 539.387 CURVE",
"184.301 540.805 OFFCURVE",
"185.184 543.617 OFFCURVE",
"185.004 548.756 CURVE",
"184.861 552.868 OFFCURVE",
"185.739 554.171 OFFCURVE",
"189.606 555.578 CURVE",
"193.472 556.985 OFFCURVE",
"194.983 556.552 OFFCURVE",
"197.516 553.31 CURVE"
);
},
{
closed = 1;
nodes = (
"150.601 565.493 OFFCURVE",
"150.527 563.856 OFFCURVE",
"149.926 560.061 CURVE",
"149.148 555.15 OFFCURVE",
"150.476 551.901 OFFCURVE",
"145.564 551.123 CURVE",
"140.035 550.247 OFFCURVE",
"138.523 551.926 OFFCURVE",
"135.981 556.914 CURVE",
"133.905 560.988 OFFCURVE",
"136.524 562.009 OFFCURVE",
"139.757 565.243 CURVE",
"142.474 567.959 OFFCURVE",
"143.755 568.981 OFFCURVE",
"147.178 567.237 CURVE"
);
}
);
width = 764;
}
);
leftKerningGroup = I;
rightKerningGroup = D;
unicode = 0110;
userData = {
com.typemytype.robofont.guides = (
{
angle = 0;
isGlobal = 0;
magnetic = 5;
x = 0;
y = 352;
},
{
angle = 90;
isGlobal = 0;
magnetic = 5;
x = 340;
y = 0;
},
{
angle = 90;
isGlobal = 0;
magnetic = 5;
x = 105;
y = 0;
}
);
};
},
{
color = 1;
glyphname = E;
layers = (
{
anchors = (
{
name = bottom;
position = "{334, 0}";
},
{
name = ogonek;
position = "{600, 10}";
},
{
name = top;
position = "{334, 700}";
},
{
name = topleft;
position = "{20, 700}";
}
);
layerId = "EC64484B-0978-4CB1-9EE9-C40A2D8C4059";
paths = (
{
closed = 1;
nodes = (
"618 0 OFFCURVE",
"630 12 OFFCURVE",
"630 27 CURVE SMOOTH",
"630 168 LINE SMOOTH",
"630 183 OFFCURVE",
"618 195 OFFCURVE",
"603 195 CURVE SMOOTH",
"295 195 LINE",
"295 258 LINE",
"573 258 LINE SMOOTH",
"588 258 OFFCURVE",
"600 270 OFFCURVE",
"600 285 CURVE SMOOTH",
"600 415 LINE SMOOTH",
"600 430 OFFCURVE",
"588 442 OFFCURVE",
"573 442 CURVE SMOOTH",
"295 442 LINE",
"295 505 LINE",
"595 505 LINE SMOOTH",
"610 505 OFFCURVE",
"622 517 OFFCURVE",
"622 532 CURVE SMOOTH",
"622 673 LINE SMOOTH",
"622 688 OFFCURVE",
"610 700 OFFCURVE",
"595 700 CURVE SMOOTH",
"82 700 LINE SMOOTH",
"67 700 OFFCURVE",
"55 688 OFFCURVE",
"55 673 CURVE SMOOTH",
"55 27 LINE SMOOTH",
"55 12 OFFCURVE",
"67 0 OFFCURVE",
"82 0 CURVE SMOOTH",
"603 0 LINE SMOOTH"
);
},
{
closed = 1;
nodes = (
"280.615 634.741 OFFCURVE",
"281.649 628.906 OFFCURVE",
"270.242 624.528 CURVE",
"257.89 619.786 OFFCURVE",
"253.23 621.872 OFFCURVE",
"244.903 632.155 CURVE",
"237.435 641.377 OFFCURVE",
"240.441 645.851 OFFCURVE",
"246.904 655.804 CURVE",
"252.511 664.437 OFFCURVE",
"256.456 665.085 OFFCURVE",
"266.4 662.421 CURVE",
"276.343 659.756 OFFCURVE",
"279.437 657.222 OFFCURVE",
"279.975 646.942 CURVE"
);
},
{
closed = 1;
nodes = (
"457.363 584.594 OFFCURVE",
"464.929 572.7 OFFCURVE",
"443.687 558.905 CURVE",
"422.277 545.001 OFFCURVE",
"414.184 555.957 OFFCURVE",
"394.344 572.023 CURVE",
"379.989 583.647 OFFCURVE",
"387.041 591.715 OFFCURVE",
"393.66 608.959 CURVE",
"401.887 630.39 OFFCURVE",
"396.536 648.137 OFFCURVE",
"419.46 646.936 CURVE",
"444.009 645.649 OFFCURVE",
"444.445 632.804 OFFCURVE",
"450.807 609.059 CURVE"
);
},
{
closed = 1;
nodes = (
"560.055 86.068 OFFCURVE",
"558.794 81.81 OFFCURVE",
"551.12 73.287 CURVE",
"543.016 64.287 OFFCURVE",
"539.115 60.976 OFFCURVE",
"528.052 65.902 CURVE",
"514.117 72.106 OFFCURVE",
"506.564 73.861 OFFCURVE",
"508.159 89.031 CURVE",
"509.776 104.42 OFFCURVE",
"517.082 105.28 OFFCURVE",
"532.218 108.497 CURVE",
"544.636 111.137 OFFCURVE",
"547.973 106.995 OFFCURVE",
"554.321 96 CURVE"
);
},
{
closed = 1;
nodes = (
"156.724 294.338 OFFCURVE",
"158.291 291.143 OFFCURVE",
"154.728 282.748 CURVE",
"149.653 270.791 OFFCURVE",
"150.674 261.967 OFFCURVE",
"137.734 263.099 CURVE",
"122.212 264.457 OFFCURVE",
"117.197 267.744 OFFCURVE",
"113.692 282.926 CURVE",
"110.708 295.85 OFFCURVE",
"120.905 295.026 OFFCURVE",
"132.274 301.858 CURVE",
"139.832 306.398 OFFCURVE",
"143.187 306.105 OFFCURVE",
"149.841 300.321 CURVE"
);
},
{
closed = 1;
nodes = (
"202.368 197.099 OFFCURVE",
"202.838 191.731 OFFCURVE",
"195.572 179.639 CURVE",
"189.093 168.856 OFFCURVE",
"183.208 171.631 OFFCURVE",
"170.951 174.461 CURVE",
"155.195 178.099 OFFCURVE",
"143.535 173.015 OFFCURVE",
"142.126 189.124 CURVE",
"140.435 208.447 OFFCURVE",
"144.251 214.798 OFFCURVE",
"162.106 222.377 CURVE",
"177.886 229.075 OFFCURVE",
"181.866 220.683 OFFCURVE",
"193.113 207.745 CURVE"
);
},
{
closed = 1;
nodes = (
"280.003 356.353 OFFCURVE",
"280.348 353.47 OFFCURVE",
"278.692 346.301 CURVE",
"277.169 339.703 OFFCURVE",
"274.705 338.632 OFFCURVE",
"267.959 338.042 CURVE",
"259.412 337.294 OFFCURVE",
"254.704 334.46 OFFCURVE",
"251.351 342.358 CURVE",
"247.76 350.818 OFFCURVE",
"250.879 353.536 OFFCURVE",
"257.815 359.566 CURVE",
"263.812 364.779 OFFCURVE",
"266.885 364.235 OFFCURVE",
"273.695 360.143 CURVE"
);
},
{
closed = 1;
nodes = (
"379.258 342.931 OFFCURVE",
"380.939 335.708 OFFCURVE",
"368.524 321.919 CURVE",
"354.044 305.837 OFFCURVE",
"347.5 298.656 OFFCURVE",
"327.731 307.458 CURVE",
"305.98 317.142 OFFCURVE",
"300.736 324.607 OFFCURVE",
"303.225 348.286 CURVE",
"305.713 371.964 OFFCURVE",
"312.395 378.176 OFFCURVE",
"335.684 383.126 CURVE",
"356.192 387.485 OFFCURVE",
"359.498 377.157 OFFCURVE",
"369.981 359 CURVE"
);
},
{
closed = 1;
nodes = (
"201.142 102.28 OFFCURVE",
"200.438 93.917 OFFCURVE",
"196.323 74.555 CURVE",
"190.952 49.289 OFFCURVE",
"197.124 31.985 OFFCURVE",
"171.435 29.285 CURVE",
"141.89 26.18 OFFCURVE",
"133.32 33.93 OFFCURVE",
"121.236 61.07 CURVE",
"109.64 87.116 OFFCURVE",
"112.694 97.594 OFFCURVE",
"133.882 116.671 CURVE",
"152.579 133.506 OFFCURVE",
"162.211 124.757 OFFCURVE",
"184 112.177 CURVE"
);
},
{
closed = 1;
nodes = (
"182.128 387.596 OFFCURVE",
"177.687 387.488 OFFCURVE",
"172.12 384.143 CURVE",
"166.895 381.003 OFFCURVE",
"164.728 377.944 OFFCURVE",
"160.127 381.943 CURVE",
"154.069 387.21 OFFCURVE",
"151.056 389.472 OFFCURVE",
"154.192 396.861 CURVE",
"157.056 403.607 OFFCURVE",
"161.396 399.608 OFFCURVE",
"168.697 398.97 CURVE",
"175.167 398.404 OFFCURVE",
"179.206 400.253 OFFCURVE",
"180.667 393.924 CURVE"
);
},
{
closed = 1;
nodes = (
"432.294 68.846 OFFCURVE",
"437.87 64.048 OFFCURVE",
"430.605 50.385 CURVE",
"423.341 36.723 OFFCURVE",
"416.245 38.662 OFFCURVE",
"401.006 41.349 CURVE",
"386.774 43.859 OFFCURVE",
"381.264 46.07 OFFCURVE",
"379.253 60.381 CURVE",
"376.857 77.432 OFFCURVE",
"375.497 85.214 OFFCURVE",
"390.972 92.761 CURVE",
"405.864 100.025 OFFCURVE",
"410.035 91.896 OFFCURVE",
"421.545 79.977 CURVE"
);
},
{
closed = 1;
nodes = (
"248.769 167.386 OFFCURVE",
"251.038 164.75 OFFCURVE",
"247.808 157.139 CURVE",
"244.474 149.285 OFFCURVE",
"241.28 148.31 OFFCURVE",
"232.78 149.053 CURVE",
"223.273 149.885 OFFCURVE",
"218.608 149.653 OFFCURVE",
"216.461 158.951 CURVE",
"214.315 168.249 OFFCURVE",
"218.61 170.085 OFFCURVE",
"226.789 175 CURVE",
"233.6 179.093 OFFCURVE",
"236.532 178.024 OFFCURVE",
"242.529 172.811 CURVE"
);
},
{
closed = 1;
nodes = (
"174.376 445.185 OFFCURVE",
"175.181 443.089 OFFCURVE",
"173.659 437.412 CURVE",
"172.21 432.004 OFFCURVE",
"170.062 431.305 OFFCURVE",
"164.471 431.012 CURVE",
"159.188 430.735 OFFCURVE",
"157.494 431.836 OFFCURVE",
"155.598 436.775 CURVE",
"153.888 441.229 OFFCURVE",
"155.887 442.437 OFFCURVE",
"159.595 445.44 CURVE",
"163.59 448.676 OFFCURVE",
"165.134 451.187 OFFCURVE",
"169.446 448.387 CURVE"
);
},
{
closed = 1;
nodes = (
"443.432 304.343 OFFCURVE",
"442.8 303.153 OFFCURVE",
"439.63 301.607 CURVE",
"434.786 299.244 OFFCURVE",
"432.831 295.481 OFFCURVE",
"429.087 299.359 CURVE",
"424.596 304.01 OFFCURVE",
"424.252 306.455 OFFCURVE",
"427.288 312.164 CURVE",
"430.323 317.873 OFFCURVE",
"432.543 318.956 OFFCURVE",
"438.91 317.833 CURVE",
"444.218 316.897 OFFCURVE",
"442.191 313.173 OFFCURVE",
"442.942 307.835 CURVE"
);
},
{
closed = 1;
nodes = (
"219 330.202 OFFCURVE",
"219.588 324.13 OFFCURVE",
"207.416 320.175 CURVE",
"194 315.815 OFFCURVE",
"188.875 317.48 OFFCURVE",
"180.584 328.893 CURVE",
"173.061 339.247 OFFCURVE",
"177.106 343.814 OFFCURVE",
"184.629 354.168 CURVE",
"192.151 364.522 OFFCURVE",
"195.245 369.78 OFFCURVE",
"207.416 365.825 CURVE",
"219.588 361.87 OFFCURVE",
"219 355.798 OFFCURVE",
"219 343 CURVE"
);
}
);
width = 667;
}
);
leftKerningGroup = I;
rightKerningGroup = E;
unicode = 0045;
userData = {
com.typemytype.robofont.guides = (
{
angle = 0;
isGlobal = 0;
magnetic = 5;
x = 0;
y = 334;
},
{
angle = 0;
isGlobal = 0;
magnetic = 5;
x = 0;
y = 9;
},
{
angle = 0;
isGlobal = 0;
magnetic = 5;
x = 0;
y = 376;
},
{
angle = 0;
isGlobal = 0;
magnetic = 5;
x = 0;
y = 691;
},
{
angle = 0;
isGlobal = 0;
magnetic = 5;
x = 0;
y = 649;
},
{
angle = 90;
isGlobal = 0;
magnetic = 5;
x = 664;
y = 0;
},
{
angle = 90;
isGlobal = 0;
magnetic = 5;
x = 94;
y = 0;
},
{
angle = 90;
isGlobal = 0;
magnetic = 5;
x = 511;
y = 0;
}
);
};
},
{
color = 1;
glyphname = Eogonek;
layers = (
{
hints = (
{
horizontal = 1;
place = "{-2147483648, 0}";
type = Tag;
name = hr01;
}
);
layerId = "EC64484B-0978-4CB1-9EE9-C40A2D8C4059";
paths = (
{
closed = 1;
nodes = (
"618 -220 OFFCURVE",
"630 -208 OFFCURVE",
"630 -193 CURVE SMOOTH",
"630 -125 LINE SMOOTH",
"630 -110 OFFCURVE",
"618 -98 OFFCURVE",
"603 -98 CURVE SMOOTH",
"593 -98 LINE SMOOTH",
"554 -98 OFFCURVE",
"543 -70 OFFCURVE",
"543 -49 CURVE SMOOTH",
"543 -28 OFFCURVE",
"554 0 OFFCURVE",
"593 0 CURVE SMOOTH",
"603 0 LINE SMOOTH",
"618 0 OFFCURVE",
"630 12 OFFCURVE",
"630 27 CURVE SMOOTH",
"630 168 LINE SMOOTH",
"630 183 OFFCURVE",
"618 195 OFFCURVE",
"603 195 CURVE SMOOTH",
"295 195 LINE",
"295 258 LINE",
"573 258 LINE SMOOTH",
"588 258 OFFCURVE",
"600 270 OFFCURVE",
"600 285 CURVE SMOOTH",
"600 415 LINE SMOOTH",
"600 430 OFFCURVE",
"588 442 OFFCURVE",
"573 442 CURVE SMOOTH",
"295 442 LINE",
"295 505 LINE",
"595 505 LINE SMOOTH",
"610 505 OFFCURVE",
"622 517 OFFCURVE",
"622 532 CURVE SMOOTH",
"622 673 LINE SMOOTH",
"622 688 OFFCURVE",
"610 700 OFFCURVE",
"595 700 CURVE SMOOTH",
"82 700 LINE SMOOTH",
"67 700 OFFCURVE",
"55 688 OFFCURVE",
"55 673 CURVE SMOOTH",
"55 27 LINE SMOOTH",
"55 12 OFFCURVE",
"67 0 OFFCURVE",
"82 0 CURVE SMOOTH",
"422 0 LINE",
"419 -16 OFFCURVE",
"417 -31 OFFCURVE",
"417 -49 CURVE SMOOTH",
"417 -144 OFFCURVE",
"468 -220 OFFCURVE",
"589 -220 CURVE SMOOTH",
"603 -220 LINE SMOOTH"
);
},
{
closed = 1;
nodes = (
"515.689 631.252 OFFCURVE",
"522.379 631.462 OFFCURVE",
"521.987 620.232 CURVE",
"521.594 609.002 OFFCURVE",
"514.936 609.678 OFFCURVE",
"504.135 606.581 CURVE",
"494.404 603.791 OFFCURVE",
"489.909 601.983 OFFCURVE",
"484.248 610.375 CURVE",
"478.817 618.428 OFFCURVE",
"483.776 621.35 OFFCURVE",
"489.756 629.004 CURVE",
"494.847 635.519 OFFCURVE",
"497.36 637.923 OFFCURVE",
"505.13 635.095 CURVE"
);
},
{
closed = 1;
nodes = (
"442.277 93.317 OFFCURVE",
"447.579 83.964 OFFCURVE",
"432.418 78.743 CURVE",
"417.399 73.572 OFFCURVE",
"416.385 84.88 OFFCURVE",
"406.826 97.566 CURVE",
"397.018 110.582 OFFCURVE",
"385.62 114.578 OFFCURVE",
"394.968 127.928 CURVE",
"404.316 141.279 OFFCURVE",
"411.969 131.935 OFFCURVE",
"427.555 127.17 CURVE",
"438.523 123.817 OFFCURVE",
"441.797 120.816 OFFCURVE",
"441.997 109.349 CURVE"
);
},
{
closed = 1;
nodes = (
"311.059 103.593 OFFCURVE",
"293.185 99.344 OFFCURVE",
"274.92 81.08 CURVE",
"257.232 63.391 OFFCURVE",
"252.589 47.093 OFFCURVE",
"230.3 58.45 CURVE",
"208.146 69.738 OFFCURVE",
"219.48 83.135 OFFCURVE",
"223.369 107.693 CURVE",
"227.652 134.732 OFFCURVE",
"217.201 154.028 OFFCURVE",
"244.24 158.311 CURVE",
"275.63 163.282 OFFCURVE",
"284.904 154.925 OFFCURVE",
"299.332 126.608 CURVE"
);
},
{
closed = 1;
nodes = (
"538.718 364.32 OFFCURVE",
"540.706 359.774 OFFCURVE",
"532.642 356.351 CURVE",
"523.444 352.447 OFFCURVE",
"519.726 353.306 OFFCURVE",
"513.17 360.847 CURVE",
"506.614 368.388 OFFCURVE",
"506.282 372.191 OFFCURVE",
"511.428 380.756 CURVE",
"515.767 387.977 OFFCURVE",
"520.04 383.639 OFFCURVE",
"528.25 381.744 CURVE",
"534.599 380.278 OFFCURVE",
"537.386 379.537 OFFCURVE",
"537.954 373.046 CURVE"
);
},
{
closed = 1;
nodes = (
"249.689 406.085 OFFCURVE",
"260.378 399.064 OFFCURVE",
"253.426 371.178 CURVE",
"245.595 339.771 OFFCURVE",
"238.266 329.397 OFFCURVE",
"205.976 327.139 CURVE",
"175.904 325.036 OFFCURVE",
"172.497 339.567 OFFCURVE",
"161.204 367.517 CURVE",
"151.936 390.456 OFFCURVE",
"157.337 398.739 OFFCURVE",
"176.288 414.642 CURVE",
"195.24 430.544 OFFCURVE",
"204.336 434.424 OFFCURVE",
"225.316 421.314 CURVE"
);
},
{
closed = 1;
nodes = (
"441.405 638.107 OFFCURVE",
"449.144 633.746 OFFCURVE",
"440.622 623.942 CURVE",
"430.596 612.409 OFFCURVE",
"424.909 611.096 OFFCURVE",
"410.841 617.067 CURVE",
"397.77 622.615 OFFCURVE",
"397.846 628.772 OFFCURVE",
"399.084 642.917 CURVE",
"400.162 655.24 OFFCURVE",
"404.448 657.705 OFFCURVE",
"416.501 660.487 CURVE",
"426.93 662.895 OFFCURVE",
"429.202 658.415 OFFCURVE",
"434.715 649.241 CURVE"
);
},
{
closed = 1;
nodes = (
"518.518 -120.347 OFFCURVE",
"524.521 -119.667 OFFCURVE",
"525.843 -130.441 CURVE",
"527.422 -143.301 OFFCURVE",
"526.463 -148.369 OFFCURVE",
"514.72 -153.845 CURVE",
"504.182 -158.759 OFFCURVE",
"501.96 -151.734 OFFCURVE",
"494.03 -143.23 CURVE",
"486.88 -135.563 OFFCURVE",
"482.425 -132.473 OFFCURVE",
"487.508 -123.304 CURVE",
"492.59 -114.135 OFFCURVE",
"497.572 -116.275 OFFCURVE",
"507.862 -118.276 CURVE"
);
},
{
closed = 1;
nodes = (
"139.586 585.013 OFFCURVE",
"144.45 584.034 OFFCURVE",
"142.629 575.466 CURVE",
"140.845 567.074 OFFCURVE",
"135.682 568.957 OFFCURVE",
"127.15 568.06 CURVE",
"118.218 567.121 OFFCURVE",
"113.209 563.474 OFFCURVE",
"109.556 571.679 CURVE",
"105.903 579.883 OFFCURVE",
"111.965 581.165 OFFCURVE",
"118.64 587.175 CURVE",
"123.672 591.706 OFFCURVE",
"126.136 592.778 OFFCURVE",
"132 589.392 CURVE"
);
},
{
closed = 1;
nodes = (
"479.768 356.428 OFFCURVE",
"476.174 347.077 OFFCURVE",
"458.717 328.356 CURVE",
"439.435 307.679 OFFCURVE",
"431.224 297.017 OFFCURVE",
"405.601 308.966 CURVE",
"379.107 321.32 OFFCURVE",
"378.78 333.591 OFFCURVE",
"382.343 362.606 CURVE",
"385.603 389.154 OFFCURVE",
"393.158 396.07 OFFCURVE",
"419.414 401.173 CURVE",
"445.378 406.22 OFFCURVE",
"454.535 401.95 OFFCURVE",
"467.358 378.816 CURVE"
);
},
{
closed = 1;
nodes = (
"518.734 1.337 OFFCURVE",
"519.06 -3.314 OFFCURVE",
"514.544 -14.492 CURVE",
"509.788 -26.263 OFFCURVE",
"507.06 -30.83 OFFCURVE",
"494.396 -29.944 CURVE",
"478.238 -28.814 OFFCURVE",
"469.839 -30.215 OFFCURVE",
"465.921 -14.5 CURVE",
"462.096 0.84 OFFCURVE",
"471.465 2.432 OFFCURVE",
"484.872 10.809 CURVE",
"495.34 17.35 OFFCURVE",
"500.043 17.021 OFFCURVE",
"509.499 9.087 CURVE"
);
},
{
closed = 1;
nodes = (
"224.87 251.445 OFFCURVE",
"226.796 245.508 OFFCURVE",
"225.964 229.639 CURVE",
"225.099 213.125 OFFCURVE",
"223.738 206.302 OFFCURVE",
"207.765 202.022 CURVE",
"187.864 196.69 OFFCURVE",
"178.513 192.48 OFFCURVE",
"167.292 209.759 CURVE",
"154.645 229.234 OFFCURVE",
"154.301 238.127 OFFCURVE",
"168.914 256.173 CURVE",
"181.857 272.155 OFFCURVE",
"190.835 264.51 OFFCURVE",
"210.034 257.14 CURVE"
);
},
{
closed = 1;
nodes = (
"310.637 591.303 OFFCURVE",
"311.828 588.446 OFFCURVE",
"306.649 586.031 CURVE",
"300.214 583.03 OFFCURVE",
"297.334 581.942 OFFCURVE",
"292.492 587.134 CURVE",
"287.65 592.326 OFFCURVE",
"288.937 595.123 OFFCURVE",
"292.379 601.333 CURVE",
"295.256 606.522 OFFCURVE",
"297.893 605.967 OFFCURVE",
"303.717 604.835 CURVE",
"308.638 603.878 OFFCURVE",
"309.329 601.95 OFFCURVE",
"309.94 596.975 CURVE"
);
},
{
closed = 1;
nodes = (
"170.352 113.497 OFFCURVE",
"169.066 112.845 OFFCURVE",
"166.113 111.468 CURVE",
"162.48 109.774 OFFCURVE",
"160.883 107.612 OFFCURVE",
"158.149 110.544 CURVE",
"155.289 113.611 OFFCURVE",
"156.719 115.241 OFFCURVE",
"158.752 118.909 CURVE",
"160.785 122.576 OFFCURVE",
"161.41 124.653 OFFCURVE",
"165.526 123.853 CURVE",
"169.643 123.053 OFFCURVE",
"169.444 120.893 OFFCURVE",
"169.955 116.731 CURVE"
);
},
{
closed = 1;
nodes = (
"558.301 595.02 OFFCURVE",
"556.997 589.121 OFFCURVE",
"557.943 578.307 CURVE",
"558.624 570.526 OFFCURVE",
"554.488 569.926 OFFCURVE",
"547.298 566.874 CURVE",
"541.346 564.348 OFFCURVE",
"538.94 564.904 OFFCURVE",
"534.698 569.783 CURVE",
"527.698 577.836 OFFCURVE",
"518.647 579.184 OFFCURVE",
"524.142 588.331 CURVE",
"530.654 599.169 OFFCURVE",
"535.404 600.306 OFFCURVE",
"547.724 597.462 CURVE"
);
},
{
closed = 1;
nodes = (
"127.369 208.753 OFFCURVE",
"125.724 204.868 OFFCURVE",
"115.498 201.146 CURVE",
"106.533 197.883 OFFCURVE",
"105.418 204.094 OFFCURVE",
"99.544 211.612 CURVE",
"94.602 217.938 OFFCURVE",
"92.076 220.733 OFFCURVE",
"96.564 227.388 CURVE",
"102.634 236.387 OFFCURVE",
"104.354 242.179 OFFCURVE",
"114.788 239.186 CURVE",
"125.868 236.01 OFFCURVE",
"126.587 231.147 OFFCURVE",
"126.989 219.628 CURVE"
);
}
);
width = 667;
}
);
leftKerningGroup = I;
rightKerningGroup = E;
unicode = 0118;
userData = {
com.typemytype.robofont.guides = (
{
angle = 90;
isGlobal = 0;
magnetic = 5;
x = 355;
y = 0;
}
);
};
},
{
color = 1;
glyphname = F;
layers = (
{
hints = (
{
horizontal = 1;
place = "{-2147483648, 0}";
type = Tag;
name = hr00;
}
);
layerId = "EC64484B-0978-4CB1-9EE9-C40A2D8C4059";
paths = (
{
closed = 1;
nodes = (
"288 0 OFFCURVE",
"300 12 OFFCURVE",
"300 27 CURVE SMOOTH",
"300 215 LINE",
"566 215 LINE SMOOTH",
"581 215 OFFCURVE",
"593 227 OFFCURVE",
"593 242 CURVE SMOOTH",
"593 393 LINE SMOOTH",
"593 408 OFFCURVE",
"581 420 OFFCURVE",
"566 420 CURVE SMOOTH",
"300 420 LINE",
"300 494 LINE",
"586 494 LINE SMOOTH",
"601 494 OFFCURVE",
"613 506 OFFCURVE",
"613 521 CURVE SMOOTH",
"613 673 LINE SMOOTH",
"613 688 OFFCURVE",
"601 700 OFFCURVE",
"586 700 CURVE SMOOTH",
"82 700 LINE SMOOTH",
"67 700 OFFCURVE",
"55 688 OFFCURVE",
"55 673 CURVE SMOOTH",
"55 27 LINE SMOOTH",
"55 12 OFFCURVE",
"67 0 OFFCURVE",
"82 0 CURVE SMOOTH",
"273 0 LINE SMOOTH"
);
},
{
closed = 1;
nodes = (
"299.814 312.357 OFFCURVE",
"310.57 308.884 OFFCURVE",
"308.89 284.861 CURVE",
"307.256 261.486 OFFCURVE",
"294.719 261.649 OFFCURVE",
"271.983 255.98 CURVE",
"253.98 251.491 OFFCURVE",
"248.391 256.367 OFFCURVE",
"238.559 272.102 CURVE",
"228.726 287.838 OFFCURVE",
"226.794 294.998 OFFCURVE",
"238.721 309.212 CURVE",
"251.779 324.774 OFFCURVE",
"258.65 328.989 OFFCURVE",
"277.486 321.379 CURVE"
);
},
{
closed = 1;
nodes = (
"126.26 656.731 OFFCURVE",
"126.261 652.069 OFFCURVE",
"120.976 641.233 CURVE",
"116.616 632.293 OFFCURVE",
"111.179 636.733 OFFCURVE",
"101.33 638.117 CURVE",
"94.043 639.141 OFFCURVE",
"91.475 640.496 OFFCURVE",
"90.197 647.743 CURVE",
"88.303 658.488 OFFCURVE",
"83.037 664.302 OFFCURVE",
"92.672 669.425 CURVE",
"103.835 675.361 OFFCURVE",
"108.493 673.889 OFFCURVE",
"117.588 665.106 CURVE"
);
},
{
closed = 1;
nodes = (
"483.395 370.581 OFFCURVE",
"482.687 365.949 OFFCURVE",
"484.659 358.588 CURVE",
"486.948 350.047 OFFCURVE",
"492.219 345.72 OFFCURVE",
"484.804 340.904 CURVE",
"476.606 335.581 OFFCURVE",
"473.156 338.192 OFFCURVE",
"465.56 344.343 CURVE",
"459.638 349.139 OFFCURVE",
"462.933 352.469 OFFCURVE",
"465.664 359.584 CURVE",
"468.395 366.698 OFFCURVE",
"468.175 371.378 OFFCURVE",
"475.785 370.979 CURVE"
);
},
{
closed = 1;
nodes = (
"323.082 369.352 OFFCURVE",
"323.442 367.044 OFFCURVE",
"318.93 365.49 CURVE",
"313.637 363.668 OFFCURVE",
"311.383 363.511 OFFCURVE",
"308.014 367.982 CURVE",
"303.881 373.467 OFFCURVE",
"301.412 375.831 OFFCURVE",
"305.351 381.456 CURVE",
"308.999 386.666 OFFCURVE",
"311.965 382.553 OFFCURVE",
"318.047 380.694 CURVE",
"321.981 379.491 OFFCURVE",
"322.927 378.236 OFFCURVE",
"322.999 374.122 CURVE"
);
},
{
closed = 1;
nodes = (
"251.9 143.878 OFFCURVE",
"242.295 140.795 OFFCURVE",
"224.615 131.395 CURVE",
"210.066 123.659 OFFCURVE",
"204.097 126.131 OFFCURVE",
"192.244 137.578 CURVE",
"182.101 147.373 OFFCURVE",
"186.843 153.094 OFFCURVE",
"193.024 165.767 CURVE",
"199.045 178.113 OFFCURVE",
"201.017 184.659 OFFCURVE",
"214.619 182.747 CURVE",
"233.855 180.043 OFFCURVE",
"245.05 182.729 OFFCURVE",
"248.423 163.599 CURVE"
);
},
{
closed = 1;
nodes = (
"406.94 605.926 OFFCURVE",
"401.685 600.806 OFFCURVE",
"384.109 594.059 CURVE",
"368.578 588.097 OFFCURVE",
"364.041 594.338 OFFCURVE",
"353.571 607.267 CURVE",
"344.845 618.043 OFFCURVE",
"346.997 623.353 OFFCURVE",
"354.549 634.982 CURVE",
"362.661 647.473 OFFCURVE",
"365.861 653.901 OFFCURVE",
"380.247 650.046 CURVE",
"397.673 645.377 OFFCURVE",
"405.011 642.744 OFFCURVE",
"405.955 624.727 CURVE"
);
},
{
closed = 1;
nodes = (
"237.237 572.253 OFFCURVE",
"242.657 566.372 OFFCURVE",
"240.863 545.862 CURVE",
"238.883 523.229 OFFCURVE",
"236.361 514.162 OFFCURVE",
"214.223 509.051 CURVE",
"187.585 502.901 OFFCURVE",
"175.365 499.299 OFFCURVE",
"161.284 522.733 CURVE",
"144.379 550.869 OFFCURVE",
"138.183 563.591 OFFCURVE",
"159.717 588.364 CURVE",
"179.111 610.673 OFFCURVE",
"191.075 591.847 OFFCURVE",
"218.285 580.297 CURVE"
);
},
{
closed = 1;
nodes = (
"568.849 629.672 OFFCURVE",
"575.28 626.27 OFFCURVE",
"569.564 614.012 CURVE",
"563.105 600.161 OFFCURVE",
"558 597.331 OFFCURVE",
"542.831 599.194 CURVE",
"528.224 600.987 OFFCURVE",
"525.249 605.974 OFFCURVE",
"522.441 620.421 CURVE",
"519.857 633.715 OFFCURVE",
"523.489 637.676 OFFCURVE",
"535.334 644.242 CURVE",
"545.926 650.113 OFFCURVE",
"550.101 647.155 OFFCURVE",
"558.958 638.896 CURVE"
);
},
{
closed = 1;
nodes = (
"543.107 337.678 OFFCURVE",
"545.838 335.397 OFFCURVE",
"545.998 326.279 CURVE",
"546.184 315.578 OFFCURVE",
"546.631 310.574 OFFCURVE",
"536.511 307.09 CURVE",
"524.189 302.847 OFFCURVE",
"518.676 301.149 OFFCURVE",
"510.833 311.556 CURVE",
"502.99 321.964 OFFCURVE",
"506.142 326.796 OFFCURVE",
"513.617 337.472 CURVE",
"519.63 346.059 OFFCURVE",
"524.36 343.41 OFFCURVE",
"534.386 340.345 CURVE"
);
},
{
closed = 1;
nodes = (
"141.565 305.305 OFFCURVE",
"141.356 300.2 OFFCURVE",
"143.614 291.145 CURVE",
"145.331 284.256 OFFCURVE",
"142.85 282.434 OFFCURVE",
"136.829 278.671 CURVE",
"130.514 274.725 OFFCURVE",
"127.706 272.489 OFFCURVE",
"122 277.275 CURVE",
"114.412 283.644 OFFCURVE",
"109.672 285.932 OFFCURVE",
"113.384 295.118 CURVE",
"117.46 305.207 OFFCURVE",
"121.401 306.715 OFFCURVE",
"132.256 305.956 CURVE"
);
},
{
closed = 1;
nodes = (
"230.751 57.218 OFFCURVE",
"236.725 50.306 OFFCURVE",
"224.412 39.219 CURVE",
"209.751 26.019 OFFCURVE",
"202.585 22.825 OFFCURVE",
"185.5 32.689 CURVE",
"169.832 41.735 OFFCURVE",
"174.785 50.502 OFFCURVE",
"178.546 68.198 CURVE",
"182.467 86.643 OFFCURVE",
"180.379 97.826 OFFCURVE",
"199.132 99.797 CURVE",
"217.552 101.733 OFFCURVE",
"216.479 89.274 OFFCURVE",
"224.012 72.355 CURVE"
);
}
);
width = 646;
}
);
leftKerningGroup = I;
unicode = 0046;
userData = {
com.typemytype.robofont.guides = (
{
angle = 0;
isGlobal = 0;
magnetic = 5;
x = 0;
y = 320;
},
{
angle = 0;
isGlobal = 0;
magnetic = 5;
x = 0;
y = 691;
},
{
angle = 0;
isGlobal = 0;
magnetic = 5;
x = 0;
y = 649;
},
{
angle = 0;
isGlobal = 0;
magnetic = 5;
x = 0;
y = 362;
},
{
angle = 0;
isGlobal = 0;
magnetic = 5;
x = 0;
y = 9;
},
{
angle = 90;
isGlobal = 0;
magnetic = 5;
x = 761;
y = 0;
},
{
angle = 90;
isGlobal = 0;
magnetic = 5;
x = 94;
y = 0;
},
{
angle = 90;
isGlobal = 0;
magnetic = 5;
x = 487;
y = 0;
},
{
angle = 90;
isGlobal = 0;
magnetic = 5;
x = 139;
y = 0;
}
);
};
},
{
color = 1;
glyphname = G;
layers = (
{
hints = (
{
horizontal = 1;
place = "{-2147483648, 0}";
type = Tag;
name = hr01;
}
);
layerId = "EC64484B-0978-4CB1-9EE9-C40A2D8C4059";
paths = (
{
closed = 1;
nodes = (
"576 -10 OFFCURVE",
"718 85 OFFCURVE",
"718 265 CURVE SMOOTH",
"718 395 LINE SMOOTH",
"718 410 OFFCURVE",
"706 422 OFFCURVE",
"691 422 CURVE SMOOTH",
"416 422 LINE SMOOTH",
"401 422 OFFCURVE",
"389 410 OFFCURVE",
"389 395 CURVE SMOOTH",
"389 284 LINE SMOOTH",
"389 269 OFFCURVE",
"401 257 OFFCURVE",
"416 257 CURVE SMOOTH",
"463 257 LINE",
"463 256 LINE SMOOTH",
"463 205 OFFCURVE",
"428 185 OFFCURVE",
"378 185 CURVE SMOOTH",
"329 185 OFFCURVE",
"299 210 OFFCURVE",
"297 270 CURVE SMOOTH",
"295 327 OFFCURVE",
"295 385 OFFCURVE",
"297 440 CURVE SMOOTH",
"299 490 OFFCURVE",
"325 515 OFFCURVE",
"374 515 CURVE SMOOTH",
"423 515 OFFCURVE",
"438 486 OFFCURVE",
"446 476 CURVE SMOOTH",
"452 469 OFFCURVE",
"460 465 OFFCURVE",
"475 465 CURVE SMOOTH",
"696 465 LINE SMOOTH",
"708 465 OFFCURVE",
"718 475 OFFCURVE",
"718 487 CURVE SMOOTH",
"715 608 OFFCURVE",
"585 710 OFFCURVE",
"374 710 CURVE SMOOTH",
"177 710 OFFCURVE",
"44 622 OFFCURVE",
"37 445 CURVE SMOOTH",
"35 388 OFFCURVE",
"35 319 OFFCURVE",
"37 265 CURVE SMOOTH",
"45 79 OFFCURVE",
"172 -10 OFFCURVE",
"374 -10 CURVE SMOOTH"
);
},
{
closed = 1;
nodes = (
"208.011 374.324 OFFCURVE",
"205.616 370.314 OFFCURVE",
"201.887 361.53 CURVE",
"198.553 353.676 OFFCURVE",
"196.193 351.313 OFFCURVE",
"187.693 352.057 CURVE",
"179.696 352.757 OFFCURVE",
"179.113 356.479 OFFCURVE",
"177.308 364.301 CURVE",
"175.07 373.991 OFFCURVE",
"170.174 379.021 OFFCURVE",
"178.699 384.143 CURVE",
"188.297 389.91 OFFCURVE",
"192.358 387.931 OFFCURVE",
"200.809 380.585 CURVE"
);
},
{
closed = 1;
nodes = (
"539.32 296.194 OFFCURVE",
"539.402 291.464 OFFCURVE",
"536.353 280.082 CURVE",
"533.672 270.078 OFFCURVE",
"529.181 269.564 OFFCURVE",
"518.837 269.022 CURVE",
"509.73 268.545 OFFCURVE",
"507.264 271.111 OFFCURVE",
"503.996 279.624 CURVE",
"501.12 287.119 OFFCURVE",
"504.21 289.274 OFFCURVE",
"510.448 294.326 CURVE",
"518.499 300.845 OFFCURVE",
"520.749 308.254 OFFCURVE",
"529.437 302.612 CURVE"
);
},
{
closed = 1;
nodes = (
"247.903 193.14 OFFCURVE",
"259.005 180.205 OFFCURVE",
"237.509 151.678 CURVE",
"215.59 122.591 OFFCURVE",
"200.205 127.193 OFFCURVE",
"165.768 139.051 CURVE",
"137.167 148.899 OFFCURVE",
"137.479 162.559 OFFCURVE",
"138.007 192.803 CURVE",
"138.541 223.394 OFFCURVE",
"138.076 237.564 OFFCURVE",
"167.335 246.509 CURVE",
"198.289 255.973 OFFCURVE",
"208.849 248.914 OFFCURVE",
"227.415 222.4 CURVE"
);
},
{
closed = 1;
nodes = (
"552.294 152.103 OFFCURVE",
"543.715 141.121 OFFCURVE",
"532.44 116.941 CURVE",
"521.319 93.092 OFFCURVE",
"518.025 80.166 OFFCURVE",
"491.907 83.373 CURVE",
"463.025 86.919 OFFCURVE",
"455.452 95.087 OFFCURVE",
"449.9 123.65 CURVE",
"444.515 151.357 OFFCURVE",
"450.528 160.423 OFFCURVE",
"475.214 174.107 CURVE",
"500.444 188.092 OFFCURVE",
"511.685 189.973 OFFCURVE",
"532.782 170.299 CURVE"
);
},
{
closed = 1;
nodes = (
"477.143 639.019 OFFCURVE",
"477.677 636.917 OFFCURVE",
"473.736 635.482 CURVE",
"469.317 633.874 OFFCURVE",
"467.591 634.369 OFFCURVE",
"464.696 638.075 CURVE",
"461.401 642.292 OFFCURVE",
"459.717 644.155 OFFCURVE",
"462.71 648.592 CURVE",
"465.996 653.465 OFFCURVE",
"468.106 654.233 OFFCURVE",
"473.756 652.613 CURVE",
"478.537 651.242 OFFCURVE",
"476.823 648.179 OFFCURVE",
"476.996 643.209 CURVE"
);
},
{
closed = 1;
nodes = (
"246.929 80.355 OFFCURVE",
"250.152 78.573 OFFCURVE",
"249.998 69.721 CURVE",
"249.843 60.868 OFFCURVE",
"246.56 59.2 OFFCURVE",
"238.093 56.612 CURVE",
"229.626 54.023 OFFCURVE",
"225.972 53.57 OFFCURVE",
"220.894 60.823 CURVE",
"214.953 69.307 OFFCURVE",
"212.593 73.163 OFFCURVE",
"218.826 81.434 CURVE",
"224.788 89.347 OFFCURVE",
"229.191 86.463 OFFCURVE",
"238.558 83.237 CURVE"
);
},
{
closed = 1;
nodes = (
"140.454 428.789 OFFCURVE",
"139.538 421.645 OFFCURVE",
"123.528 413.488 CURVE",
"101.8 402.417 OFFCURVE",
"92.302 390.815 OFFCURVE",
"75.059 408.059 CURVE",
"58.443 424.675 OFFCURVE",
"75.166 432.867 OFFCURVE",
"85.834 453.804 CURVE",
"96.891 475.504 OFFCURVE",
"92.767 495.194 OFFCURVE",
"116.822 491.384 CURVE",
"141.24 487.517 OFFCURVE",
"133.775 470.955 OFFCURVE",
"137.643 446.537 CURVE"
);
},
{
closed = 1;
nodes = (
"238.541 632.163 OFFCURVE",
"245.644 631.625 OFFCURVE",
"244.966 618.692 CURVE",
"244.165 603.409 OFFCURVE",
"241.77 597.881 OFFCURVE",
"226.988 593.92 CURVE",
"213.368 590.271 OFFCURVE",
"210.906 597.282 OFFCURVE",
"203.227 609.107 CURVE",
"195.547 620.933 OFFCURVE",
"190.144 626.034 OFFCURVE",
"199.017 636.992 CURVE",
"207.65 647.652 OFFCURVE",
"213.645 641.72 OFFCURVE",
"226.451 636.804 CURVE"
);
},
{
closed = 1;
nodes = (
"442.698 77.312 OFFCURVE",
"440.509 69.632 OFFCURVE",
"431.371 52.446 CURVE",
"423.767 38.145 OFFCURVE",
"415.957 41.537 OFFCURVE",
"400.006 44.349 CURVE",
"387.746 46.511 OFFCURVE",
"386.917 52.028 OFFCURVE",
"385.185 64.356 CURVE",
"382.858 80.909 OFFCURVE",
"374.071 90.231 OFFCURVE",
"389.095 97.559 CURVE",
"407.325 106.45 OFFCURVE",
"415.087 105.903 OFFCURVE",
"429.177 91.313 CURVE"
);
},
{
closed = 1;
nodes = (
"603.483 611.59 OFFCURVE",
"615.375 602.209 OFFCURVE",
"607.334 567.378 CURVE",
"598.254 528.05 OFFCURVE",
"590.484 513.792 OFFCURVE",
"550.275 510.274 CURVE",
"509.255 506.685 OFFCURVE",
"497.495 517.527 OFFCURVE",
"481.406 555.43 CURVE",
"467.861 587.34 OFFCURVE",
"487.659 593.974 OFFCURVE",
"513.821 616.717 CURVE",
"536.65 636.562 OFFCURVE",
"546.914 645.581 OFFCURVE",
"572.842 630.001 CURVE"
);
},
{
closed = 1;
nodes = (
"398.973 635.435 OFFCURVE",
"387.11 625.838 OFFCURVE",
"374.737 603.516 CURVE",
"361.404 579.463 OFFCURVE",
"361.501 560.763 OFFCURVE",
"334.506 566.011 CURVE",
"306.653 571.425 OFFCURVE",
"309.749 587.085 OFFCURVE",
"306.291 615.247 CURVE",
"303.461 638.295 OFFCURVE",
"307.05 646.439 OFFCURVE",
"328.095 656.252 CURVE",
"352.346 667.561 OFFCURVE",
"363.319 673.669 OFFCURVE",
"381.568 654.1 CURVE"
);
},
{
closed = 1;
nodes = (
"652.374 330.136 OFFCURVE",
"648.298 328.372 OFFCURVE",
"644.389 323.185 CURVE",
"640.72 318.317 OFFCURVE",
"639.858 314.669 OFFCURVE",
"634.093 316.654 CURVE",
"627.424 318.95 OFFCURVE",
"625.879 321.157 OFFCURVE",
"626.002 328.209 CURVE",
"626.13 335.567 OFFCURVE",
"627.162 338.281 OFFCURVE",
"634.199 340.432 CURVE",
"641.506 342.666 OFFCURVE",
"644.266 341.716 OFFCURVE",
"648.649 335.456 CURVE"
);
},
{
closed = 1;
nodes = (
"152.993 356.905 OFFCURVE",
"153.499 355.134 OFFCURVE",
"153.962 350.732 CURVE",
"154.46 345.986 OFFCURVE",
"155.019 343.719 OFFCURVE",
"150.661 341.778 CURVE",
"146.622 339.98 OFFCURVE",
"146.243 343.369 OFFCURVE",
"143.284 346.654 CURVE",
"140.039 350.259 OFFCURVE",
"135.915 350.8 OFFCURVE",
"138.34 355 CURVE",
"141.016 359.635 OFFCURVE",
"143.429 358.938 OFFCURVE",
"148.663 357.825 CURVE"
);
},
{
closed = 1;
nodes = (
"255.779 273.007 OFFCURVE",
"254.926 270.216 OFFCURVE",
"248.824 265.618 CURVE",
"242.478 260.836 OFFCURVE",
"239.478 259.975 OFFCURVE",
"232.97 264.532 CURVE",
"227.042 268.683 OFFCURVE",
"229.321 272.003 OFFCURVE",
"231.437 278.924 CURVE",
"233.002 284.041 OFFCURVE",
"235.51 283.905 OFFCURVE",
"240.86 283.999 CURVE",
"247.354 284.112 OFFCURVE",
"251.177 286.373 OFFCURVE",
"253.292 280.232 CURVE"
);
},
{
closed = 1;
nodes = (
"149.273 314.389 OFFCURVE",
"150.053 312.721 OFFCURVE",
"147.389 309.185 CURVE",
"143.95 304.622 OFFCURVE",
"142.822 301.739 OFFCURVE",
"137.419 303.599 CURVE",
"132.188 305.4 OFFCURVE",
"133.905 308.591 OFFCURVE",
"134.001 314.122 CURVE",
"134.084 318.893 OFFCURVE",
"133.806 321.212 OFFCURVE",
"138.369 322.607 CURVE",
"142.932 324.002 OFFCURVE",
"143.997 321.924 OFFCURVE",
"146.734 318.015 CURVE"
);
},
{
closed = 1;
nodes = (
"617.784 227.487 OFFCURVE",
"615.815 224.897 OFFCURVE",
"613.157 219.196 CURVE",
"610.921 214.402 OFFCURVE",
"609.154 213.422 OFFCURVE",
"603.903 214.067 CURVE",
"597.288 214.879 OFFCURVE",
"593.511 213.977 OFFCURVE",
"592.239 220.519 CURVE",
"590.928 227.261 OFFCURVE",
"594.145 228.417 OFFCURVE",
"600.152 231.746 CURVE",
"605.851 234.905 OFFCURVE",
"608.418 236.22 OFFCURVE",
"613.184 231.776 CURVE"
);
},
{
closed = 1;
nodes = (
"338.276 537.008 OFFCURVE",
"340.288 535.045 OFFCURVE",
"336.785 532.106 CURVE",
"333.282 529.167 OFFCURVE",
"331.698 531.489 OFFCURVE",
"327.82 533.912 CURVE",
"323.603 536.547 OFFCURVE",
"320.094 536.594 OFFCURVE",
"321.297 541.419 CURVE",
"322.651 546.852 OFFCURVE",
"324.787 547.588 OFFCURVE",
"330.372 547.978 CURVE",
"334.933 548.297 OFFCURVE",
"334.85 545.487 OFFCURVE",
"336.563 541.248 CURVE"
);
}
);
width = 753;
}
);
leftKerningGroup = O;
rightKerningGroup = G;
unicode = 0047;
userData = {
com.typemytype.robofont.guides = (
{
angle = 0;
isGlobal = 0;
magnetic = 5;
x = 0;
y = "-10";
},
{
angle = 0;
isGlobal = 0;
magnetic = 5;
x = 0;
y = 260;
},
{
angle = 0;
isGlobal = 0;
magnetic = 5;
x = 0;
y = 440;
},
{
angle = 90;
isGlobal = 0;
magnetic = 5;
x = 334;
y = 0;
},
{
angle = 90;
isGlobal = 0;
magnetic = 5;
x = 133;
y = 0;
},
{
angle = 90;
isGlobal = 0;
magnetic = 5;
x = 604;
y = 0;
},
{
angle = 90;
isGlobal = 0;
magnetic = 5;
x = 67;
y = 0;
}
);
};
},
{
color = 1;
glyphname = H;
layers = (
{
layerId = "EC64484B-0978-4CB1-9EE9-C40A2D8C4059";
paths = (
{
closed = 1;
nodes = (
"293 0 OFFCURVE",
"305 12 OFFCURVE",
"305 27 CURVE SMOOTH",
"305 243 LINE",
"467 243 LINE",
"467 27 LINE SMOOTH",
"467 12 OFFCURVE",
"479 0 OFFCURVE",
"494 0 CURVE SMOOTH",
"690 0 LINE SMOOTH",
"705 0 OFFCURVE",
"717 12 OFFCURVE",
"717 27 CURVE SMOOTH",
"717 673 LINE SMOOTH",
"717 688 OFFCURVE",
"705 700 OFFCURVE",
"690 700 CURVE SMOOTH",
"494 700 LINE SMOOTH",
"479 700 OFFCURVE",
"467 688 OFFCURVE",
"467 673 CURVE SMOOTH",
"467 463 LINE",
"305 463 LINE",
"305 673 LINE SMOOTH",
"305 688 OFFCURVE",
"293 700 OFFCURVE",
"278 700 CURVE SMOOTH",
"82 700 LINE SMOOTH",
"67 700 OFFCURVE",
"55 688 OFFCURVE",
"55 673 CURVE SMOOTH",
"55 27 LINE SMOOTH",
"55 11 OFFCURVE",
"67 0 OFFCURVE",
"82 0 CURVE SMOOTH",
"278 0 LINE SMOOTH"
);
},
{
closed = 1;
nodes = (
"634.845 153.643 OFFCURVE",
"642.639 150.022 OFFCURVE",
"642.994 129.646 CURVE",
"643.413 105.676 OFFCURVE",
"642.992 95.202 OFFCURVE",
"620.325 87.397 CURVE",
"594.104 78.368 OFFCURVE",
"582.758 76.761 OFFCURVE",
"566.068 98.909 CURVE",
"548.021 122.859 OFFCURVE",
"546.204 134.261 OFFCURVE",
"563.404 158.826 CURVE",
"578.305 180.107 OFFCURVE",
"590.512 167.197 OFFCURVE",
"615.356 159.602 CURVE"
);
},
{
closed = 1;
nodes = (
"678.829 530.273 OFFCURVE",
"687.745 518.066 OFFCURVE",
"683.627 478.892 CURVE",
"680.158 445.881 OFFCURVE",
"655.952 457.688 OFFCURVE",
"623.485 450.787 CURVE",
"602.496 446.325 OFFCURVE",
"594.686 448.917 OFFCURVE",
"583.957 467.5 CURVE",
"571.625 488.859 OFFCURVE",
"565.312 498.452 OFFCURVE",
"581.815 516.78 CURVE",
"604.496 541.969 OFFCURVE",
"611.879 560.081 OFFCURVE",
"642.845 546.294 CURVE"
);
},
{
closed = 1;
nodes = (
"225.129 127.388 OFFCURVE",
"238.398 122.167 OFFCURVE",
"231.194 95.283 CURVE",
"223.817 67.752 OFFCURVE",
"210.714 67.551 OFFCURVE",
"182.25 66.059 CURVE",
"152.362 64.493 OFFCURVE",
"137.512 60.631 OFFCURVE",
"126.786 88.573 CURVE",
"116.638 115.009 OFFCURVE",
"136.597 117.603 OFFCURVE",
"158.603 135.423 CURVE",
"175.609 149.194 OFFCURVE",
"183.433 154.465 OFFCURVE",
"201.786 142.547 CURVE"
);
},
{
closed = 1;
nodes = (
"261.535 206.349 OFFCURVE",
"268.052 204.928 OFFCURVE",
"266.905 191.821 CURVE",
"265.776 178.92 OFFCURVE",
"258.668 179.375 OFFCURVE",
"246.049 176.461 CURVE",
"236.526 174.263 OFFCURVE",
"234.177 177.896 OFFCURVE",
"229.142 186.274 CURVE",
"224.446 194.091 OFFCURVE",
"223.942 197.614 OFFCURVE",
"229.925 204.497 CURVE",
"236.72 212.314 OFFCURVE",
"239.89 215.537 OFFCURVE",
"249.424 211.49 CURVE"
);
},
{
closed = 1;
nodes = (
"331.15 394.099 OFFCURVE",
"338.001 389.626 OFFCURVE",
"329.579 380.272 CURVE",
"319.338 368.899 OFFCURVE",
"313.999 366.11 OFFCURVE",
"300.018 372.334 CURVE",
"287.487 377.914 OFFCURVE",
"291.665 385.24 OFFCURVE",
"293.099 398.882 CURVE",
"294.236 409.703 OFFCURVE",
"296.406 413.322 OFFCURVE",
"307.05 415.585 CURVE",
"317.181 417.738 OFFCURVE",
"319.678 413.97 OFFCURVE",
"324.856 405 CURVE"
);
},
{
closed = 1;
nodes = (
"641.644 276.183 OFFCURVE",
"632.511 274.216 OFFCURVE",
"614.577 267.689 CURVE",
"594.156 260.256 OFFCURVE",
"584.494 250.403 OFFCURVE",
"571.116 267.527 CURVE",
"554.801 288.409 OFFCURVE",
"551.217 298.313 OFFCURVE",
"566.035 320.282 CURVE",
"580.561 341.817 OFFCURVE",
"591.331 340.572 OFFCURVE",
"616.301 333.412 CURVE",
"638.141 327.149 OFFCURVE",
"640.185 317.962 OFFCURVE",
"640.978 295.256 CURVE"
);
},
{
closed = 1;
nodes = (
"196.414 231.801 OFFCURVE",
"208.761 228.19 OFFCURVE",
"200.542 209.731 CURVE",
"191.433 189.272 OFFCURVE",
"182.509 187.856 OFFCURVE",
"160.237 190.197 CURVE",
"142.518 192.06 OFFCURVE",
"147.163 204.206 OFFCURVE",
"143.459 221.634 CURVE",
"139.84 238.659 OFFCURVE",
"131.427 247.608 OFFCURVE",
"146.5 256.311 CURVE",
"162.343 265.458 OFFCURVE",
"167.803 257.562 OFFCURVE",
"181.397 245.322 CURVE"
);
},
{
closed = 1;
nodes = (
"258.524 432.862 OFFCURVE",
"254.339 425.333 OFFCURVE",
"239.866 409.812 CURVE",
"228.164 397.263 OFFCURVE",
"221.254 405.81 OFFCURVE",
"205.702 413.061 CURVE",
"193.135 418.921 OFFCURVE",
"188.496 422.284 OFFCURVE",
"190.186 436.047 CURVE",
"192.09 451.554 OFFCURVE",
"194.321 457.504 OFFCURVE",
"209.657 460.486 CURVE",
"229.108 464.266 OFFCURVE",
"238.629 468.753 OFFCURVE",
"248.236 451.423 CURVE"
);
},
{
closed = 1;
nodes = (
"174.259 606.154 OFFCURVE",
"170.907 602.901 OFFCURVE",
"165.032 595.381 CURVE",
"159.581 588.404 OFFCURVE",
"156.848 585.937 OFFCURVE",
"148.528 588.965 CURVE",
"139.107 592.394 OFFCURVE",
"135.661 594.609 OFFCURVE",
"136.011 604.628 CURVE",
"136.324 613.604 OFFCURVE",
"142.335 612.098 OFFCURVE",
"150.968 614.574 CURVE",
"159.601 617.049 OFFCURVE",
"163.901 621.511 OFFCURVE",
"168.923 614.065 CURVE"
);
},
{
closed = 1;
nodes = (
"181.998 327.986 OFFCURVE",
"183.449 324.154 OFFCURVE",
"184.844 314.227 CURVE",
"186.011 305.922 OFFCURVE",
"181.798 304.891 OFFCURVE",
"174.26 301.214 CURVE",
"164.571 296.489 OFFCURVE",
"160.663 288.963 OFFCURVE",
"153.175 296.718 CURVE",
"145.595 304.567 OFFCURVE",
"152.399 308.469 OFFCURVE",
"157.522 318.103 CURVE",
"161.903 326.343 OFFCURVE",
"162.935 331.347 OFFCURVE",
"172.126 329.727 CURVE"
);
},
{
closed = 1;
nodes = (
"275.801 523.516 OFFCURVE",
"279.846 517.545 OFFCURVE",
"270.271 504.366 CURVE",
"261.089 491.729 OFFCURVE",
"254.058 496.25 OFFCURVE",
"239.202 501.077 CURVE",
"222.119 506.627 OFFCURVE",
"210 504.038 OFFCURVE",
"210 522 CURVE",
"210 540.471 OFFCURVE",
"220.707 540.068 OFFCURVE",
"238.275 545.776 CURVE",
"252.25 550.317 OFFCURVE",
"257.588 548.583 OFFCURVE",
"266.225 536.695 CURVE"
);
},
{
closed = 1;
nodes = (
"480.207 337.959 OFFCURVE",
"493.31 323.628 OFFCURVE",
"467.781 302.207 CURVE",
"440.005 278.9 OFFCURVE",
"426.015 283.599 OFFCURVE",
"395.265 302.813 CURVE",
"369.209 319.095 OFFCURVE",
"374.904 333.075 OFFCURVE",
"382.337 362.886 CURVE",
"390.871 397.117 OFFCURVE",
"385.925 419.369 OFFCURVE",
"421.117 421.829 CURVE",
"456.309 424.29 OFFCURVE",
"454.508 401.567 OFFCURVE",
"467.723 368.857 CURVE"
);
}
);
width = 772;
}
);
leftKerningGroup = I;
rightKerningGroup = I;
unicode = 0048;
userData = {
com.typemytype.robofont.guides = (
{
angle = 0;
isGlobal = 0;
magnetic = 5;
x = 0;
y = 350;
},
{
angle = 0;
isGlobal = 0;
magnetic = 5;
x = 0;
y = 9;
},
{
angle = 0;
isGlobal = 0;
magnetic = 5;
x = 0;
y = 691;
},
{
angle = 90;
isGlobal = 0;
magnetic = 5;
x = 94;
y = 0;
},
{
angle = 90;
isGlobal = 0;
magnetic = 5;
x = 139;
y = 0;
},
{
angle = 90;
isGlobal = 0;
magnetic = 5;
x = 543;
y = 0;
},
{
angle = 90;
isGlobal = 0;
magnetic = 5;
x = 588;
y = 0;
}
);
};
},
{
color = 1;
glyphname = Hbar;
layers = (
{
components = (
{
name = H;
}
);
hints = (
{
horizontal = 1;
place = "{-2147483648, 0}";
type = Tag;
name = hr00;
}
);
layerId = "EC64484B-0978-4CB1-9EE9-C40A2D8C4059";
paths = (
{
closed = 1;
nodes = (
"697 521 OFFCURVE",
"709 533 OFFCURVE",
"709 548 CURVE SMOOTH",
"709 616 LINE SMOOTH",
"709 631 OFFCURVE",
"697 643 OFFCURVE",
"682 643 CURVE SMOOTH",
"88 643 LINE SMOOTH",
"73 643 OFFCURVE",
"61 631 OFFCURVE",
"61 616 CURVE SMOOTH",
"61 548 LINE SMOOTH",
"61 533 OFFCURVE",
"73 521 OFFCURVE",
"88 521 CURVE SMOOTH",
"682 521 LINE SMOOTH"
);
},
{
closed = 1;
nodes = (
"163.715 569.48 OFFCURVE",
"159.513 567.337 OFFCURVE",
"149.368 563.238 CURVE",
"138.905 559.011 OFFCURVE",
"134.167 556.857 OFFCURVE",
"126.913 565.501 CURVE",
"119.163 574.737 OFFCURVE",
"119.65 579.374 OFFCURVE",
"126.039 589.598 CURVE",
"132.269 599.568 OFFCURVE",
"136.432 601.25 OFFCURVE",
"147.838 598.406 CURVE",
"159.245 595.562 OFFCURVE",
"162.131 592.122 OFFCURVE",
"162.951 580.395 CURVE"
);
},
{
closed = 1;
nodes = (
"389.468 587.585 OFFCURVE",
"382.565 584.055 OFFCURVE",
"370.545 574.664 CURVE",
"359.085 565.711 OFFCURVE",
"353.958 561.484 OFFCURVE",
"341.902 569.616 CURVE",
"330.53 577.286 OFFCURVE",
"335.916 583.776 OFFCURVE",
"339.697 596.961 CURVE",
"342.874 608.041 OFFCURVE",
"344.748 612.585 OFFCURVE",
"356.267 612.987 CURVE",
"371.305 613.512 OFFCURVE",
"379.105 616.058 OFFCURVE",
"384.251 601.919 CURVE"
);
}
);
width = 772;
}
);
leftKerningGroup = I;
rightKerningGroup = I;
unicode = 0126;
},
{
color = 1;
glyphname = I;
layers = (
{
anchors = (
{
name = bottom;
position = "{184, 0}";
},
{
name = ogonek;
position = "{331, 10}";
},
{
name = top;
position = "{184, 700}";
},
{
name = topleft;
position = "{20, 700}";
}
);
layerId = "EC64484B-0978-4CB1-9EE9-C40A2D8C4059";
paths = (
{
closed = 1;
nodes = (
"301 0 OFFCURVE",
"313 12 OFFCURVE",
"313 27 CURVE SMOOTH",
"313 673 LINE SMOOTH",
"313 688 OFFCURVE",
"301 700 OFFCURVE",
"286 700 CURVE SMOOTH",
"82 700 LINE SMOOTH",
"67 700 OFFCURVE",
"55 688 OFFCURVE",
"55 673 CURVE SMOOTH",
"55 27 LINE SMOOTH",
"55 12 OFFCURVE",
"67 0 OFFCURVE",
"82 0 CURVE SMOOTH",
"286 0 LINE SMOOTH"
);
},
{
closed = 1;
nodes = (
"254.978 487.563 OFFCURVE",
"255.391 485.978 OFFCURVE",
"252.405 483.56 CURVE",
"249.208 480.971 OFFCURVE",
"247.638 480.888 OFFCURVE",
"244.188 483.129 CURVE",
"240.475 485.54 OFFCURVE",
"239.127 486.794 OFFCURVE",
"240.273 491.071 CURVE",
"241.57 495.912 OFFCURVE",
"242.523 497.725 OFFCURVE",
"247.529 497.988 CURVE",
"252.095 498.227 OFFCURVE",
"251.963 495.419 OFFCURVE",
"253.601 491.15 CURVE"
);
},
{
closed = 1;
nodes = (
"266.945 435.967 OFFCURVE",
"271.255 433.388 OFFCURVE",
"268.126 423.153 CURVE",
"265.12 413.319 OFFCURVE",
"259.526 415.182 OFFCURVE",
"249.244 415.002 CURVE",
"240.713 414.853 OFFCURVE",
"237.595 416.049 OFFCURVE",
"234.817 424.116 CURVE",
"231.404 434.029 OFFCURVE",
"228.591 438.664 OFFCURVE",
"236.964 444.973 CURVE",
"245.512 451.414 OFFCURVE",
"249.41 448.246 OFFCURVE",
"258.177 442.106 CURVE"
);
},
{
closed = 1;
nodes = (
"159.622 282.215 OFFCURVE",
"158.871 275.368 OFFCURVE",
"145.338 263.604 CURVE",
"130.648 250.834 OFFCURVE",
"123.658 246.974 OFFCURVE",
"106.974 257 CURVE",
"90.717 266.767 OFFCURVE",
"92.477 275.045 OFFCURVE",
"96.743 293.524 CURVE",
"100.175 308.386 OFFCURVE",
"107.887 307.587 OFFCURVE",
"123.083 308.916 CURVE",
"138.644 310.278 OFFCURVE",
"146.511 313.101 OFFCURVE",
"152.615 298.722 CURVE"
);
},
{
closed = 1;
nodes = (
"169.512 618.577 OFFCURVE",
"174.071 614.735 OFFCURVE",
"169.638 601.861 CURVE",
"165.422 589.616 OFFCURVE",
"158.635 591.777 OFFCURVE",
"145.686 592.003 CURVE",
"134.162 592.204 OFFCURVE",
"129.287 592.838 OFFCURVE",
"125.918 603.86 CURVE",
"122.035 616.561 OFFCURVE",
"121.355 622.042 OFFCURVE",
"132.234 629.66 CURVE",
"143.113 637.277 OFFCURVE",
"148.032 634.764 OFFCURVE",
"158.638 626.771 CURVE"
);
},
{
closed = 1;
nodes = (
"174.561 169.154 OFFCURVE",
"176.016 163.372 OFFCURVE",
"178.614 150.007 CURVE",
"181.345 135.956 OFFCURVE",
"183.609 129.325 OFFCURVE",
"171.09 122.385 CURVE",
"156.678 114.397 OFFCURVE",
"150.273 113.553 OFFCURVE",
"138.222 124.791 CURVE",
"125.081 137.045 OFFCURVE",
"121.404 143.239 OFFCURVE",
"128.998 159.524 CURVE",
"136.178 174.922 OFFCURVE",
"144.184 172.884 OFFCURVE",
"161.047 170.814 CURVE"
);
},
{
closed = 1;
nodes = (
"208.841 500.609 OFFCURVE",
"211.886 489.91 OFFCURVE",
"191.332 478.517 CURVE",
"167.361 465.23 OFFCURVE",
"156.626 462.472 OFFCURVE",
"136.582 481.164 CURVE",
"118.058 498.437 OFFCURVE",
"127.575 508.836 OFFCURVE",
"138.279 531.792 CURVE",
"147.099 550.707 OFFCURVE",
"153.673 555.275 OFFCURVE",
"174.387 552.732 CURVE",
"195.102 550.188 OFFCURVE",
"200.375 544.165 OFFCURVE",
"204.357 523.678 CURVE"
);
},
{
closed = 1;
nodes = (
"257.729 201.022 OFFCURVE",
"262.358 194.689 OFFCURVE",
"252.241 190.602 CURVE",
"241.013 186.065 OFFCURVE",
"237.23 189.51 OFFCURVE",
"229.445 198.787 CURVE",
"222.939 206.541 OFFCURVE",
"225.915 210.364 OFFCURVE",
"231.279 218.949 CURVE",
"237.867 229.492 OFFCURVE",
"237.985 238.265 OFFCURVE",
"250.048 235.257 CURVE",
"261.864 232.311 OFFCURVE",
"256.119 224.054 OFFCURVE",
"256.968 211.907 CURVE"
);
},
{
closed = 1;
nodes = (
"215.928 412.272 OFFCURVE",
"222.298 408.758 OFFCURVE",
"216.369 396.602 CURVE",
"210.525 384.621 OFFCURVE",
"203.695 388.32 OFFCURVE",
"190.495 390.175 CURVE",
"178.037 391.926 OFFCURVE",
"171.549 391.444 OFFCURVE",
"169.365 403.832 CURVE",
"166.915 417.725 OFFCURVE",
"169.277 422.568 OFFCURVE",
"181.733 429.191 CURVE",
"193.033 435.199 OFFCURVE",
"196.992 430.558 OFFCURVE",
"206.199 421.667 CURVE"
);
},
{
closed = 1;
nodes = (
"164.957 360.127 OFFCURVE",
"165.782 356.956 OFFCURVE",
"159.81 352.12 CURVE",
"152.93 346.548 OFFCURVE",
"149.711 344.759 OFFCURVE",
"142.286 349.581 CURVE",
"135.066 354.27 OFFCURVE",
"136.215 358.049 OFFCURVE",
"138.443 366.365 CURVE",
"140.22 372.998 OFFCURVE",
"143.618 372.627 OFFCURVE",
"150.477 372.986 CURVE",
"156.984 373.327 OFFCURVE",
"159.868 373.384 OFFCURVE",
"162.203 367.3 CURVE"
);
},
{
closed = 1;
nodes = (
"282.852 307.685 OFFCURVE",
"282.499 305.454 OFFCURVE",
"280.222 300.339 CURVE",
"278.183 295.76 OFFCURVE",
"276.149 295.52 OFFCURVE",
"271.164 296.044 CURVE",
"266.993 296.482 OFFCURVE",
"267.003 298.651 OFFCURVE",
"266.131 302.753 CURVE",
"265.259 306.854 OFFCURVE",
"264.369 308.832 OFFCURVE",
"268 310.928 CURVE",
"272.635 313.604 OFFCURVE",
"274.714 315.012 OFFCURVE",
"278.691 311.431 CURVE"
);
},
{
closed = 1;
nodes = (
"209.472 346.069 OFFCURVE",
"208.7 341.8 OFFCURVE",
"208.993 333.419 CURVE",
"209.298 324.665 OFFCURVE",
"211.046 320.021 OFFCURVE",
"202.814 317.025 CURVE",
"193.693 313.705 OFFCURVE",
"190.368 315.5 OFFCURVE",
"184.392 323.149 CURVE",
"178.941 330.126 OFFCURVE",
"180.442 333.489 OFFCURVE",
"185.393 340.829 CURVE",
"190.344 348.169 OFFCURVE",
"192.899 350.821 OFFCURVE",
"201.41 348.38 CURVE"
);
},
{
closed = 1;
nodes = (
"143 66.067 OFFCURVE",
"140.424 65.274 OFFCURVE",
"134.781 63.44 CURVE",
"128.442 61.381 OFFCURVE",
"125.4 58.967 OFFCURVE",
"121.483 64.359 CURVE",
"116.813 70.787 OFFCURVE",
"116.004 73.801 OFFCURVE",
"120.674 80.229 CURVE",
"124.733 85.816 OFFCURVE",
"127.904 81.743 OFFCURVE",
"134.472 79.608 CURVE",
"139.907 77.843 OFFCURVE",
"143 77.714 OFFCURVE",
"143 72 CURVE"
);
},
{
closed = 1;
nodes = (
"278.12 470.122 OFFCURVE",
"277.215 467.779 OFFCURVE",
"275.65 462.661 CURVE",
"274.276 458.164 OFFCURVE",
"272.841 457.083 OFFCURVE",
"268.14 457.001 CURVE",
"263.438 456.919 OFFCURVE",
"261.967 457.949 OFFCURVE",
"260.436 462.395 CURVE",
"258.905 466.842 OFFCURVE",
"259.43 468.559 OFFCURVE",
"263.185 471.389 CURVE",
"267.459 474.61 OFFCURVE",
"269.352 476.261 OFFCURVE",
"273.736 473.192 CURVE"
);
},
{
closed = 1;
nodes = (
"248.713 260.244 OFFCURVE",
"247.968 259.009 OFFCURVE",
"246.193 256.277 CURVE",
"244.223 253.242 OFFCURVE",
"243.683 251.302 OFFCURVE",
"240.188 252.239 CURVE",
"236.693 253.175 OFFCURVE",
"237.196 255.125 OFFCURVE",
"237.007 258.738 CURVE",
"236.853 261.673 OFFCURVE",
"237.464 262.615 OFFCURVE",
"240.208 263.668 CURVE",
"243.25 264.835 OFFCURVE",
"244.613 265.308 OFFCURVE",
"246.663 262.776 CURVE"
);
},
{
closed = 1;
nodes = (
"261.49 55.56 OFFCURVE",
"264.899 55.597 OFFCURVE",
"263.607 51.369 CURVE",
"262.27 46.996 OFFCURVE",
"259.676 48.081 OFFCURVE",
"255.105 48 CURVE",
"251.263 47.934 OFFCURVE",
"249.632 48.088 OFFCURVE",
"248.381 51.721 CURVE",
"246.707 56.582 OFFCURVE",
"244.876 58.892 OFFCURVE",
"248.982 61.986 CURVE",
"252.855 64.905 OFFCURVE",
"253.895 60.878 OFFCURVE",
"257.868 58.096 CURVE"
);
}
);
width = 368;
}
);
leftKerningGroup = I;
rightKerningGroup = I;
unicode = 0049;
userData = {
com.typemytype.robofont.guides = (
{
angle = 90;
isGlobal = 0;
magnetic = 5;
x = 85;
y = 0;
},
{
angle = 90;
isGlobal = 0;
magnetic = 5;
x = 148;
y = 0;
}
);
};
},
{
color = 1;
glyphname = IJ;
layers = (
{
hints = (
{
horizontal = 1;
place = "{-2147483648, 0}";
type = Tag;
name = hr01;
}
);
layerId = "EC64484B-0978-4CB1-9EE9-C40A2D8C4059";
paths = (
{
closed = 1;
nodes = (
"301 0 OFFCURVE",
"313 12 OFFCURVE",
"313 27 CURVE SMOOTH",
"313 673 LINE SMOOTH",
"313 688 OFFCURVE",
"301 700 OFFCURVE",
"286 700 CURVE SMOOTH",
"82 700 LINE SMOOTH",
"67 700 OFFCURVE",
"55 688 OFFCURVE",
"55 673 CURVE SMOOTH",
"55 27 LINE SMOOTH",
"55 12 OFFCURVE",
"67 0 OFFCURVE",
"82 0 CURVE SMOOTH",
"286 0 LINE SMOOTH"
);
},
{
closed = 1;
nodes = (
"628 -10 OFFCURVE",
"758 45 OFFCURVE",
"758 258 CURVE SMOOTH",
"758 673 LINE SMOOTH",
"758 688 OFFCURVE",
"746 700 OFFCURVE",
"731 700 CURVE SMOOTH",
"526 700 LINE SMOOTH",
"511 700 OFFCURVE",
"499 688 OFFCURVE",
"499 673 CURVE SMOOTH",
"499 298 LINE SMOOTH",
"499 227 OFFCURVE",
"476 205 OFFCURVE",
"420 205 CURVE SMOOTH",
"405 205 OFFCURVE",
"393 193 OFFCURVE",
"393 178 CURVE SMOOTH",
"393 17 LINE SMOOTH",
"393 2 OFFCURVE",
"405 -10 OFFCURVE",
"420 -10 CURVE SMOOTH"
);
},
{
closed = 1;
nodes = (
"735.8 263.292 OFFCURVE",
"708.507 262.447 OFFCURVE",
"667.934 243.528 CURVE",
"632.085 226.811 OFFCURVE",
"615.857 217.603 OFFCURVE",
"588.88 246.532 CURVE",
"561.253 276.158 OFFCURVE",
"568.26 292.114 OFFCURVE",
"587.899 327.543 CURVE",
"606.899 361.819 OFFCURVE",
"617.887 373.192 OFFCURVE",
"656.357 365.714 CURVE",
"702.495 356.745 OFFCURVE",
"724.616 354.377 OFFCURVE",
"730.344 307.725 CURVE"
);
},
{
closed = 1;
nodes = (
"558.311 139.653 OFFCURVE",
"554.597 126.668 OFFCURVE",
"551.786 99.923 CURVE",
"548.618 69.779 OFFCURVE",
"555.122 51.613 OFFCURVE",
"525.475 45.311 CURVE",
"492.617 38.327 OFFCURVE",
"483.03 47.909 OFFCURVE",
"466.235 77 CURVE",
"452.236 101.246 OFFCURVE",
"465.283 109.29 OFFCURVE",
"484.017 130.096 CURVE",
"502.012 150.081 OFFCURVE",
"509.176 161.529 OFFCURVE",
"533.744 150.591 CURVE"
);
},
{
closed = 1;
nodes = (
"180.259 618.754 OFFCURVE",
"174.199 616.995 OFFCURVE",
"167.336 610.368 CURVE",
"161.303 604.542 OFFCURVE",
"158.893 600.936 OFFCURVE",
"151.488 604.873 CURVE",
"142.637 609.579 OFFCURVE",
"139.533 612.253 OFFCURVE",
"141.273 622.126 CURVE",
"142.833 630.97 OFFCURVE",
"148.576 628.643 OFFCURVE",
"157.469 629.893 CURVE",
"166.77 631.2 OFFCURVE",
"171.96 635.77 OFFCURVE",
"176.077 627.329 CURVE"
);
},
{
closed = 1;
nodes = (
"197.846 230.174 OFFCURVE",
"195.832 229.371 OFFCURVE",
"192.355 227.026 CURVE",
"188.879 224.681 OFFCURVE",
"187.379 223.114 OFFCURVE",
"184.075 225.696 CURVE",
"180.586 228.421 OFFCURVE",
"180.908 230.234 OFFCURVE",
"182.422 234.394 CURVE",
"183.829 238.261 OFFCURVE",
"185.132 239.139 OFFCURVE",
"189.244 238.996 CURVE",
"193.669 238.841 OFFCURVE",
"195.47 238.461 OFFCURVE",
"196.69 234.205 CURVE"
);
},
{
closed = 1;
nodes = (
"728.566 465.193 OFFCURVE",
"729.81 463.601 OFFCURVE",
"729.995 458.314 CURVE",
"730.161 453.546 OFFCURVE",
"727.878 453.054 OFFCURVE",
"723.394 451.422 CURVE",
"718.196 449.53 OFFCURVE",
"715.738 446.868 OFFCURVE",
"712.332 451.228 CURVE",
"708.926 455.587 OFFCURVE",
"712.103 457.328 OFFCURVE",
"715.197 461.914 CURVE",
"717.865 465.87 OFFCURVE",
"718.894 467.967 OFFCURVE",
"723.481 466.651 CURVE"
);
},
{
closed = 1;
nodes = (
"636.415 605.056 OFFCURVE",
"633.428 597.875 OFFCURVE",
"622.871 582.224 CURVE",
"613.479 568.3 OFFCURVE",
"606.703 568.416 OFFCURVE",
"590.558 573.046 CURVE",
"571.703 578.452 OFFCURVE",
"560.708 578.071 OFFCURVE",
"560.023 597.674 CURVE",
"559.189 621.55 OFFCURVE",
"560.843 631.236 OFFCURVE",
"583.293 639.407 CURVE",
"604.832 647.246 OFFCURVE",
"610.681 637.994 OFFCURVE",
"624.792 619.932 CURVE"
);
},
{
closed = 1;
nodes = (
"183 467.936 OFFCURVE",
"186.321 461.496 OFFCURVE",
"175.798 458.077 CURVE",
"161.968 453.583 OFFCURVE",
"155.704 451.365 OFFCURVE",
"147.157 463.13 CURVE",
"139.429 473.766 OFFCURVE",
"149.946 476.593 OFFCURVE",
"157.674 487.229 CURVE",
"163.076 494.665 OFFCURVE",
"165.512 498.008 OFFCURVE",
"174.253 495.168 CURVE",
"182.995 492.328 OFFCURVE",
"183 488.191 OFFCURVE",
"183 479 CURVE"
);
},
{
closed = 1;
nodes = (
"666.126 479.247 OFFCURVE",
"667.754 475.116 OFFCURVE",
"666.954 463.675 CURVE",
"665.984 449.808 OFFCURVE",
"668.02 442.165 OFFCURVE",
"654.532 438.802 CURVE",
"640.851 435.391 OFFCURVE",
"638.511 442.444 OFFCURVE",
"631.039 454.402 CURVE",
"623.168 466.998 OFFCURVE",
"616.237 472.262 OFFCURVE",
"625.785 483.641 CURVE",
"635.333 495.02 OFFCURVE",
"641.72 489.108 OFFCURVE",
"655.492 483.544 CURVE"
);
},
{
closed = 1;
nodes = (
"677.047 113.485 OFFCURVE",
"677.399 110.136 OFFCURVE",
"672.99 102.5 CURVE",
"668.431 94.602 OFFCURVE",
"665.594 92.454 OFFCURVE",
"656.673 94.35 CURVE",
"645.495 96.726 OFFCURVE",
"639.315 96.334 OFFCURVE",
"638.121 107.7 CURVE",
"636.855 119.745 OFFCURVE",
"641.208 122.432 OFFCURVE",
"652.272 127.357 CURVE",
"661.519 131.475 OFFCURVE",
"664.374 127.559 OFFCURVE",
"671.147 120.037 CURVE"
);
},
{
closed = 1;
nodes = (
"283.01 141.852 OFFCURVE",
"285.803 133.326 OFFCURVE",
"269.607 122.808 CURVE",
"254.268 112.847 OFFCURVE",
"249.11 122.839 OFFCURVE",
"234.896 134.348 CURVE",
"223.21 143.812 OFFCURVE",
"219.404 148.637 OFFCURVE",
"224.793 162.676 CURVE",
"231.049 178.974 OFFCURVE",
"234.241 185.87 OFFCURVE",
"251.675 184.956 CURVE",
"269.619 184.016 OFFCURVE",
"273.361 177.862 OFFCURVE",
"278.012 160.506 CURVE"
);
},
{
closed = 1;
nodes = (
"237.956 337.702 OFFCURVE",
"229.667 328.648 OFFCURVE",
"206.949 310.251 CURVE",
"186.383 293.598 OFFCURVE",
"176.229 294.686 OFFCURVE",
"154.036 309.098 CURVE",
"133.287 322.573 OFFCURVE",
"132.96 332.456 OFFCURVE",
"139.363 356.353 CURVE",
"148.085 388.905 OFFCURVE",
"140.787 412.143 OFFCURVE",
"174.441 413.907 CURVE",
"210.467 415.795 OFFCURVE",
"214.552 398.672 OFFCURVE",
"227.48 364.994 CURVE"
);
},
{
closed = 1;
nodes = (
"279.379 588.834 OFFCURVE",
"285.582 582.858 OFFCURVE",
"281.17 562.099 CURVE",
"276.96 542.297 OFFCURVE",
"267.27 542.281 OFFCURVE",
"247.136 540.164 CURVE",
"231.6 538.531 OFFCURVE",
"230.256 546.781 OFFCURVE",
"223.902 561.052 CURVE",
"216.761 577.092 OFFCURVE",
"207.532 584.262 OFFCURVE",
"220.58 596.01 CURVE",
"235.653 609.582 OFFCURVE",
"243.435 609.586 OFFCURVE",
"261 599.445 CURVE"
);
},
{
closed = 1;
nodes = (
"169.194 187.006 OFFCURVE",
"184.219 184.071 OFFCURVE",
"175.945 162.515 CURVE",
"166.658 138.323 OFFCURVE",
"156.679 135.701 OFFCURVE",
"130.802 137.058 CURVE",
"103.608 138.483 OFFCURVE",
"91.752 139.756 OFFCURVE",
"84.704 166.059 CURVE",
"77.948 191.273 OFFCURVE",
"90.956 195.814 OFFCURVE",
"112.848 210.031 CURVE",
"129.341 220.741 OFFCURVE",
"135.968 213.913 OFFCURVE",
"151.25 201.537 CURVE"
);
},
{
closed = 1;
nodes = (
"117.077 466.177 OFFCURVE",
"117.626 464.633 OFFCURVE",
"114.863 461.965 CURVE",
"111.678 458.889 OFFCURVE",
"110.153 457.858 OFFCURVE",
"106.244 459.936 CURVE",
"102.542 461.905 OFFCURVE",
"103.363 463.912 OFFCURVE",
"104.091 468.042 CURVE",
"104.955 472.939 OFFCURVE",
"103.684 476.211 OFFCURVE",
"108.608 476.903 CURVE",
"113.533 477.595 OFFCURVE",
"113.213 474.1 OFFCURVE",
"115.393 469.63 CURVE"
);
}
);
width = 807;
}
);
leftKerningGroup = I;
unicode = 0132;
userData = {
com.typemytype.robofont.guides = (
{
angle = 90;
isGlobal = 0;
magnetic = 5;
x = 642;
y = 0;
}
);
};
},
{
color = 1;
glyphname = Iogonek;
layers = (
{
hints = (
{
horizontal = 1;
place = "{-2147483648, 0}";
type = Tag;
name = hr01;
}
);
layerId = "EC64484B-0978-4CB1-9EE9-C40A2D8C4059";
paths = (
{
closed = 1;
nodes = (
"301 -222 OFFCURVE",
"313 -210 OFFCURVE",
"313 -195 CURVE SMOOTH",
"313 -127 LINE SMOOTH",
"313 -112 OFFCURVE",
"301 -100 OFFCURVE",
"286 -100 CURVE SMOOTH",
"276 -100 LINE SMOOTH",
"237 -100 OFFCURVE",
"226 -71 OFFCURVE",
"226 -50 CURVE SMOOTH",
"226 -29 OFFCURVE",
"237 0 OFFCURVE",
"276 0 CURVE SMOOTH",
"286 0 LINE SMOOTH",
"301 0 OFFCURVE",
"313 12 OFFCURVE",
"313 27 CURVE SMOOTH",
"313 673 LINE SMOOTH",
"313 688 OFFCURVE",
"301 700 OFFCURVE",
"286 700 CURVE SMOOTH",
"82 700 LINE SMOOTH",
"67 700 OFFCURVE",
"55 688 OFFCURVE",
"55 673 CURVE SMOOTH",
"55 27 LINE SMOOTH",
"55 12 OFFCURVE",
"67 0 OFFCURVE",
"82 0 CURVE SMOOTH",
"105 0 LINE",
"102 -16 OFFCURVE",
"100 -32 OFFCURVE",
"100 -50 CURVE SMOOTH",
"100 -145 OFFCURVE",
"151 -222 OFFCURVE",
"272 -222 CURVE SMOOTH",
"286 -222 LINE SMOOTH"
);
},
{
closed = 1;
nodes = (
"148.501 78.752 OFFCURVE",
"146.885 72.286 OFFCURVE",
"132.339 62.84 CURVE",
"116.778 52.734 OFFCURVE",
"109.652 50.677 OFFCURVE",
"95.232 62.354 CURVE",
"82.666 72.53 OFFCURVE",
"93.401 79.355 OFFCURVE",
"99.196 94.451 CURVE",
"103.973 106.895 OFFCURVE",
"104.049 114.662 OFFCURVE",
"117.361 113.964 CURVE",
"133.548 113.116 OFFCURVE",
"139.817 111.163 OFFCURVE",
"144.012 95.506 CURVE"
);
},
{
closed = 1;
nodes = (
"243.923 677.176 OFFCURVE",
"241.948 672.176 OFFCURVE",
"242.925 664.219 CURVE",
"243.608 658.662 OFFCURVE",
"241.878 657.209 OFFCURVE",
"236.804 654.843 CURVE",
"230.409 651.861 OFFCURVE",
"227.573 648.292 OFFCURVE",
"222.761 653.452 CURVE",
"217.826 658.745 OFFCURVE",
"220.745 661.519 OFFCURVE",
"224.254 667.848 CURVE",
"228.141 674.86 OFFCURVE",
"228.183 680.236 OFFCURVE",
"236.053 678.706 CURVE"
);
},
{
closed = 1;
nodes = (
"124.572 177.282 OFFCURVE",
"129.705 176.418 OFFCURVE",
"130.885 165.195 CURVE",
"131.983 154.749 OFFCURVE",
"124.883 155.396 OFFCURVE",
"115.288 151.124 CURVE",
"107.099 147.478 OFFCURVE",
"103.365 144.963 OFFCURVE",
"97.367 151.625 CURVE",
"90.478 159.275 OFFCURVE",
"89.264 163.085 OFFCURVE",
"94.412 172 CURVE",
"99.559 180.915 OFFCURVE",
"103.465 181.769 OFFCURVE",
"113.534 179.629 CURVE"
);
},
{
closed = 1;
nodes = (
"273.752 401.217 OFFCURVE",
"262.389 395.044 OFFCURVE",
"240.924 379.448 CURVE",
"223.49 366.782 OFFCURVE",
"215.449 370.827 OFFCURVE",
"198.015 383.493 CURVE",
"179.472 396.966 OFFCURVE",
"170.022 402.489 OFFCURVE",
"177.105 424.288 CURVE",
"184.487 447.009 OFFCURVE",
"194.109 449 OFFCURVE",
"218 449 CURVE",
"244.314 449 OFFCURVE",
"257.421 451.477 OFFCURVE",
"265.553 426.451 CURVE"
);
},
{
closed = 1;
nodes = (
"200.216 572.497 OFFCURVE",
"205.83 565.689 OFFCURVE",
"199.091 544.948 CURVE",
"191.916 522.864 OFFCURVE",
"185.221 517 OFFCURVE",
"162 517 CURVE",
"140.594 517 OFFCURVE",
"138.181 526.753 OFFCURVE",
"131.566 547.111 CURVE",
"124.842 567.807 OFFCURVE",
"120.296 577.379 OFFCURVE",
"137.901 590.17 CURVE",
"156.077 603.376 OFFCURVE",
"164.396 598.522 OFFCURVE",
"182.572 585.316 CURVE"
);
},
{
closed = 1;
nodes = (
"253.667 116.585 OFFCURVE",
"262.731 108.64 OFFCURVE",
"248.427 95.76 CURVE",
"233.851 82.636 OFFCURVE",
"226.487 90.81 OFFCURVE",
"209.5 100.617 CURVE",
"192.838 110.237 OFFCURVE",
"182.808 112.874 OFFCURVE",
"186.809 131.693 CURVE",
"190.852 150.715 OFFCURVE",
"200.733 149.814 OFFCURVE",
"220.073 151.847 CURVE",
"235.611 153.48 OFFCURVE",
"239.484 148.441 OFFCURVE",
"245.839 134.168 CURVE"
);
},
{
closed = 1;
nodes = (
"258.845 189.795 OFFCURVE",
"261.044 188.581 OFFCURVE",
"259.659 183.412 CURVE",
"258.21 178.004 OFFCURVE",
"256.062 177.305 OFFCURVE",
"250.471 177.012 CURVE",
"245.465 176.75 OFFCURVE",
"244.328 178.453 OFFCURVE",
"242.531 183.133 CURVE",
"240.846 187.523 OFFCURVE",
"241.311 189.258 OFFCURVE",
"244.965 192.217 CURVE",
"248.62 195.176 OFFCURVE",
"250.413 195.27 OFFCURVE",
"254.357 192.709 CURVE"
);
},
{
closed = 1;
nodes = (
"108.681 509.849 OFFCURVE",
"107.899 506.853 OFFCURVE",
"107.999 501.14 CURVE",
"108.134 493.38 OFFCURVE",
"112.547 488.398 OFFCURVE",
"105.209 485.872 CURVE",
"97.628 483.261 OFFCURVE",
"96.839 488.579 OFFCURVE",
"92.014 494.982 CURVE",
"88.092 500.186 OFFCURVE",
"86.433 502.545 OFFCURVE",
"90.17 507.883 CURVE",
"94.054 513.43 OFFCURVE",
"96.74 513.499 OFFCURVE",
"103.216 511.519 CURVE"
);
},
{
closed = 1;
nodes = (
"157.672 -4.669 OFFCURVE",
"161.903 -5.626 OFFCURVE",
"160.881 -13.95 CURVE",
"159.904 -21.908 OFFCURVE",
"154.778 -20.286 OFFCURVE",
"146.908 -21.816 CURVE",
"139.804 -23.197 OFFCURVE",
"136.264 -25.117 OFFCURVE",
"132.755 -18.787 CURVE",
"129.335 -12.616 OFFCURVE",
"133.606 -11.022 OFFCURVE",
"138.418 -5.862 CURVE",
"142.708 -1.262 OFFCURVE",
"144.371 1.534 OFFCURVE",
"150.071 -1.124 CURVE"
);
},
{
closed = 1;
nodes = (
"145.97 271.654 OFFCURVE",
"141.532 269.776 OFFCURVE",
"135.641 264.087 CURVE",
"130.99 259.596 OFFCURVE",
"128.545 259.252 OFFCURVE",
"122.836 262.288 CURVE",
"115.939 265.954 OFFCURVE",
"111.872 266.913 OFFCURVE",
"113.228 274.605 CURVE",
"114.551 282.11 OFFCURVE",
"119.062 280.842 OFFCURVE",
"126.608 281.903 CURVE",
"134.548 283.018 OFFCURVE",
"138.866 286.22 OFFCURVE",
"142.381 279.014 CURVE"
);
},
{
closed = 1;
nodes = (
"239.708 607.708 OFFCURVE",
"239.244 604.647 OFFCURVE",
"239.94 598.975 CURVE",
"240.683 592.924 OFFCURVE",
"242.597 589.701 OFFCURVE",
"237.071 587.124 CURVE",
"230.679 584.143 OFFCURVE",
"228.034 584.657 OFFCURVE",
"223.224 589.816 CURVE",
"218.606 594.768 OFFCURVE",
"219.096 597.41 OFFCURVE",
"222.379 603.333 CURVE",
"225.514 608.988 OFFCURVE",
"227.752 610.032 OFFCURVE",
"234.099 608.798 CURVE"
);
},
{
closed = 1;
nodes = (
"157.118 329.555 OFFCURVE",
"163.055 331.695 OFFCURVE",
"164.711 322.299 CURVE",
"166.51 312.099 OFFCURVE",
"162.657 309.735 OFFCURVE",
"153.512 304.873 CURVE",
"145.459 300.591 OFFCURVE",
"142.14 301.875 OFFCURVE",
"135.58 308.21 CURVE",
"128.039 315.492 OFFCURVE",
"123.429 318.345 OFFCURVE",
"128.024 327.767 CURVE",
"132.384 336.707 OFFCURVE",
"137.821 332.267 OFFCURVE",
"147.67 330.883 CURVE"
);
},
{
closed = 1;
nodes = (
"248.482 -135.18 OFFCURVE",
"245.58 -138.389 OFFCURVE",
"238.79 -145.42 CURVE",
"229.867 -154.66 OFFCURVE",
"228.147 -164 OFFCURVE",
"216.602 -158.369 CURVE",
"204.621 -152.525 OFFCURVE",
"208.32 -145.695 OFFCURVE",
"210.175 -132.495 CURVE",
"212.03 -119.295 OFFCURVE",
"210.358 -111.71 OFFCURVE",
"223.485 -109.395 CURVE",
"236.613 -107.08 OFFCURVE",
"237.635 -114.78 OFFCURVE",
"243.893 -126.55 CURVE"
);
},
{
closed = 1;
nodes = (
"224.029 245.335 OFFCURVE",
"222.597 242.007 OFFCURVE",
"222.983 236.488 CURVE",
"223.292 232.072 OFFCURVE",
"223.101 230.241 OFFCURVE",
"218.997 228.583 CURVE",
"214.349 226.705 OFFCURVE",
"212.328 226.375 OFFCURVE",
"209.106 230.215 CURVE",
"205.507 234.504 OFFCURVE",
"204.553 236.551 OFFCURVE",
"207.52 241.299 CURVE",
"210.797 246.544 OFFCURVE",
"212.66 248.17 OFFCURVE",
"218.661 246.673 CURVE"
);
},
{
closed = 1;
nodes = (
"187.295 284.62 OFFCURVE",
"186.201 282.888 OFFCURVE",
"182.657 279.343 CURVE",
"179.527 276.213 OFFCURVE",
"177.766 276.753 OFFCURVE",
"173.822 278.763 CURVE",
"169.571 280.929 OFFCURVE",
"167.364 281.695 OFFCURVE",
"168.111 286.408 CURVE",
"169.039 292.268 OFFCURVE",
"169.419 294.936 OFFCURVE",
"175.279 295.865 CURVE",
"181.139 296.793 OFFCURVE",
"182.325 294.372 OFFCURVE",
"185.019 289.086 CURVE"
);
},
{
closed = 1;
nodes = (
"145.336 376.313 OFFCURVE",
"139.34 372.688 OFFCURVE",
"128.216 363.68 CURVE",
"117.367 354.894 OFFCURVE",
"112.547 350.591 OFFCURVE",
"100.839 358.195 CURVE",
"89.946 365.269 OFFCURVE",
"96.183 371.594 OFFCURVE",
"99.545 384.141 CURVE",
"102.701 395.919 OFFCURVE",
"101.568 403.329 OFFCURVE",
"113.744 403.967 CURVE",
"128.761 404.754 OFFCURVE",
"134.818 403.715 OFFCURVE",
"140.207 389.676 CURVE"
);
},
{
closed = 1;
nodes = (
"280.063 287.61 OFFCURVE",
"280.774 284.795 OFFCURVE",
"276.244 278.996 CURVE",
"271.873 273.402 OFFCURVE",
"268.909 274.235 OFFCURVE",
"262.238 276.663 CURVE",
"256.162 278.875 OFFCURVE",
"254.781 280.922 OFFCURVE",
"255.007 287.384 CURVE",
"255.232 293.846 OFFCURVE",
"256.753 295.792 OFFCURVE",
"262.968 297.574 CURVE",
"269.477 299.44 OFFCURVE",
"272.162 299.324 OFFCURVE",
"275.948 293.71 CURVE"
);
}
);
width = 368;
}
);
leftKerningGroup = I;
rightKerningGroup = I;
unicode = 012E;
userData = {
com.typemytype.robofont.guides = (
{
angle = 90;
isGlobal = 0;
magnetic = 5;
x = 110;
y = 0;
}
);
};
},
{
color = 1;
glyphname = J;
layers = (
{
hints = (
{
horizontal = 1;
place = "{-2147483648, 0}";
type = Tag;
name = hr00;
}
);
layerId = "EC64484B-0978-4CB1-9EE9-C40A2D8C4059";
paths = (
{
closed = 1;
nodes = (
"509 -10 OFFCURVE",
"653 73 OFFCURVE",
"653 258 CURVE SMOOTH",
"653 673 LINE SMOOTH",
"653 688 OFFCURVE",
"641 700 OFFCURVE",
"626 700 CURVE SMOOTH",
"97 700 LINE SMOOTH",
"82 700 OFFCURVE",
"70 688 OFFCURVE",
"70 673 CURVE SMOOTH",
"70 524 LINE SMOOTH",
"70 509 OFFCURVE",
"82 497 OFFCURVE",
"97 497 CURVE SMOOTH",
"394 497 LINE",
"394 266 LINE SMOOTH",
"394 205 OFFCURVE",
"371 185 OFFCURVE",
"335 185 CURVE SMOOTH",
"302 185 OFFCURVE",
"290 198 OFFCURVE",
"277 225 CURVE SMOOTH",
"267 247 OFFCURVE",
"258 257 OFFCURVE",
"236 257 CURVE SMOOTH",
"32 257 LINE SMOOTH",
"20 257 OFFCURVE",
"10 247 OFFCURVE",
"10 235 CURVE SMOOTH",
"13 78 OFFCURVE",
"162 -10 OFFCURVE",
"327 -10 CURVE SMOOTH"
);
},
{
closed = 1;
nodes = (
"313.28 646.119 OFFCURVE",
"322.75 643.155 OFFCURVE",
"317.336 626.493 CURVE",
"311.655 609.011 OFFCURVE",
"303.382 609 OFFCURVE",
"285 609 CURVE",
"267.618 609 OFFCURVE",
"260.889 610.889 OFFCURVE",
"255.517 627.42 CURVE",
"249.296 646.567 OFFCURVE",
"246.965 655.101 OFFCURVE",
"263.252 666.934 CURVE",
"278.367 677.915 OFFCURVE",
"283.992 667.398 OFFCURVE",
"299.107 656.416 CURVE"
);
},
{
closed = 1;
nodes = (
"612.135 376.881 OFFCURVE",
"608.845 364.84 OFFCURVE",
"582.12 346.127 CURVE",
"555.396 327.415 OFFCURVE",
"542.955 328.441 OFFCURVE",
"516.9 348.075 CURVE",
"486.299 371.134 OFFCURVE",
"468.503 379.538 OFFCURVE",
"480.977 415.766 CURVE",
"495.645 458.366 OFFCURVE",
"506.348 472.774 OFFCURVE",
"551.396 471.988 CURVE",
"592.334 471.273 OFFCURVE",
"590.626 447.235 OFFCURVE",
"602.597 408.08 CURVE"
);
},
{
closed = 1;
nodes = (
"273.884 589.835 OFFCURVE",
"273.507 587.049 OFFCURVE",
"274.768 582.654 CURVE",
"275.74 579.264 OFFCURVE",
"275.279 577.998 OFFCURVE",
"272.355 576.026 CURVE",
"268.879 573.681 OFFCURVE",
"267.379 572.114 OFFCURVE",
"264.075 574.696 CURVE",
"260.125 577.782 OFFCURVE",
"258.828 579.368 OFFCURVE",
"260.543 584.078 CURVE",
"262.352 589.049 OFFCURVE",
"264.027 590.179 OFFCURVE",
"269.314 589.995 CURVE"
);
},
{
closed = 1;
nodes = (
"193.422 222.598 OFFCURVE",
"199.165 214.389 OFFCURVE",
"204.924 189.448 CURVE",
"210.109 166.987 OFFCURVE",
"202.301 161.015 OFFCURVE",
"182.541 149.142 CURVE",
"161.595 136.556 OFFCURVE",
"152.264 129.252 OFFCURVE",
"133.821 145.283 CURVE",
"116 160.775 OFFCURVE",
"125.318 170.768 OFFCURVE",
"134.544 192.503 CURVE",
"143.622 213.889 OFFCURVE",
"144.778 226.854 OFFCURVE",
"167.922 224.829 CURVE"
);
},
{
closed = 1;
nodes = (
"590.535 640.511 OFFCURVE",
"605.4 635.943 OFFCURVE",
"611.175 599.481 CURVE",
"617.245 561.157 OFFCURVE",
"609.082 548.7 OFFCURVE",
"574.509 531.085 CURVE",
"536.157 511.543 OFFCURVE",
"518.868 501.995 OFFCURVE",
"488.431 532.431 CURVE",
"457.657 563.206 OFFCURVE",
"465.544 580.64 OFFCURVE",
"485.303 619.417 CURVE",
"502.062 652.31 OFFCURVE",
"517.611 652.061 OFFCURVE",
"554.073 646.286 CURVE"
);
},
{
closed = 1;
nodes = (
"410.241 633.402 OFFCURVE",
"413.201 629.343 OFFCURVE",
"406.321 621.144 CURVE",
"399.123 612.567 OFFCURVE",
"394.639 613.116 OFFCURVE",
"384.257 617.311 CURVE",
"373.875 621.505 OFFCURVE",
"370.268 624.225 OFFCURVE",
"371.049 635.395 CURVE",
"371.89 647.422 OFFCURVE",
"374.221 651.46 OFFCURVE",
"385.92 654.376 CURVE",
"396.652 657.052 OFFCURVE",
"398.708 651.859 OFFCURVE",
"404.569 642.479 CURVE"
);
},
{
closed = 1;
nodes = (
"612.909 299.642 OFFCURVE",
"613.533 297.691 OFFCURVE",
"613.97 292.697 CURVE",
"614.571 285.817 OFFCURVE",
"617.827 281.811 OFFCURVE",
"611.47 279.113 CURVE",
"604.809 276.285 OFFCURVE",
"603.201 279.978 OFFCURVE",
"598.453 285.439 CURVE",
"594.395 290.107 OFFCURVE",
"593.386 292.364 OFFCURVE",
"596.571 297.665 CURVE",
"599.627 302.751 OFFCURVE",
"602.243 302.104 OFFCURVE",
"608.025 300.769 CURVE"
);
},
{
closed = 1;
nodes = (
"246.664 601.995 OFFCURVE",
"244.707 595.107 OFFCURVE",
"237.47 579.589 CURVE",
"231.115 565.961 OFFCURVE",
"225 565.346 OFFCURVE",
"210.075 567.179 CURVE",
"193.787 569.179 OFFCURVE",
"185.701 568.976 OFFCURVE",
"182.57 585.085 CURVE",
"179.669 600.007 OFFCURVE",
"191.463 598.499 OFFCURVE",
"204.758 605.869 CURVE",
"218.053 613.238 OFFCURVE",
"223.025 624.039 OFFCURVE",
"234.142 613.672 CURVE"
);
},
{
closed = 1;
nodes = (
"283.249 58.301 OFFCURVE",
"277.376 50.743 OFFCURVE",
"254.051 41.79 CURVE",
"231.275 33.047 OFFCURVE",
"222.49 36.238 OFFCURVE",
"207.137 55.198 CURVE",
"193.71 71.779 OFFCURVE",
"202.22 79.446 OFFCURVE",
"213.84 97.339 CURVE",
"224.122 113.172 OFFCURVE",
"229.565 118.728 OFFCURVE",
"247.8 113.841 CURVE",
"269.94 107.909 OFFCURVE",
"280.741 106.14 OFFCURVE",
"281.941 83.25 CURVE"
);
},
{
closed = 1;
nodes = (
"430.117 80.17 OFFCURVE",
"427.714 75.362 OFFCURVE",
"427.994 67.349 CURVE",
"428.221 60.837 OFFCURVE",
"428.227 57.952 OFFCURVE",
"422.104 55.724 CURVE",
"413.873 52.728 OFFCURVE",
"409.997 49.631 OFFCURVE",
"404.604 56.534 CURVE",
"398.792 63.972 OFFCURVE",
"400.286 67.562 OFFCURVE",
"405.564 75.388 CURVE",
"410.664 82.948 OFFCURVE",
"413.644 84.894 OFFCURVE",
"422.41 82.38 CURVE"
);
},
{
closed = 1;
nodes = (
"477.152 153.042 OFFCURVE",
"482.248 149.996 OFFCURVE",
"481.996 135.546 CURVE",
"481.739 120.832 OFFCURVE",
"477.091 117.351 OFFCURVE",
"463.017 113.049 CURVE",
"450.065 109.089 OFFCURVE",
"445.747 112.287 OFFCURVE",
"437.979 123.381 CURVE",
"431.534 132.586 OFFCURVE",
"437.258 136.053 OFFCURVE",
"444.02 145.027 CURVE",
"451.018 154.313 OFFCURVE",
"452.494 161.532 OFFCURVE",
"463.488 157.747 CURVE"
);
},
{
closed = 1;
nodes = (
"611.278 486.962 OFFCURVE",
"609.888 485.182 OFFCURVE",
"605.416 481.812 CURVE",
"600.093 477.801 OFFCURVE",
"598.003 474.528 OFFCURVE",
"592.544 478.351 CURVE",
"587.334 481.999 OFFCURVE",
"591.447 484.965 OFFCURVE",
"593.306 491.047 CURVE",
"594.923 496.337 OFFCURVE",
"594.277 499.902 OFFCURVE",
"599.808 499.998 CURVE",
"605.992 500.106 OFFCURVE",
"607.442 498.104 OFFCURVE",
"609.455 492.256 CURVE"
);
},
{
closed = 1;
nodes = (
"536.761 221.78 OFFCURVE",
"536.213 218.264 OFFCURVE",
"528.479 213.431 CURVE",
"519.977 208.119 OFFCURVE",
"516.109 206.767 OFFCURVE",
"508.43 213.211 CURVE",
"501.12 219.345 OFFCURVE",
"503.445 223.397 OFFCURVE",
"507.019 232.244 CURVE",
"510.102 239.874 OFFCURVE",
"512.768 241.54 OFFCURVE",
"520.977 240.966 CURVE",
"529.488 240.371 OFFCURVE",
"532.49 238.908 OFFCURVE",
"534.554 230.629 CURVE"
);
},
{
closed = 1;
nodes = (
"388.573 143.675 OFFCURVE",
"383.941 135.821 OFFCURVE",
"382.956 121.744 CURVE",
"382.257 111.744 OFFCURVE",
"378.598 109.901 OFFCURVE",
"368.871 107.475 CURVE",
"355.061 104.032 OFFCURVE",
"347.949 95.563 OFFCURVE",
"340.407 107.632 CURVE",
"331.953 121.161 OFFCURVE",
"335.595 126.849 OFFCURVE",
"345.849 139.07 CURVE",
"355.891 151.038 OFFCURVE",
"361.003 154.814 OFFCURVE",
"375.489 148.961 CURVE"
);
},
{
closed = 1;
nodes = (
"56.246 214.273 OFFCURVE",
"58.037 211.932 OFFCURVE",
"53.878 208.91 CURVE",
"49.548 205.764 OFFCURVE",
"47.627 207.382 OFFCURVE",
"43.298 210.528 CURVE",
"38.968 213.673 OFFCURVE",
"36.836 215 OFFCURVE",
"38.489 220.09 CURVE",
"40.219 225.415 OFFCURVE",
"42.401 226 OFFCURVE",
"48 226 CURVE",
"52.771 226 OFFCURVE",
"53.183 223.701 OFFCURVE",
"54.657 219.163 CURVE"
);
}
);
width = 702;
}
);
leftKerningGroup = J;
rightKerningGroup = U;
unicode = 004A;
userData = {
com.typemytype.robofont.guides = (
{
angle = 0;
isGlobal = 0;
magnetic = 5;
x = 0;
y = "-10";
},
{
angle = 0;
isGlobal = 0;
magnetic = 5;
x = 0;
y = 133;
},
{
angle = 0;
isGlobal = 0;
magnetic = 5;
x = 0;
y = 677;
},
{
angle = 90;
isGlobal = 0;
magnetic = 5;
x = 303;
y = 0;
},
{
angle = 90;
isGlobal = 0;
magnetic = 5;
x = 60;
y = 0;
},
{
angle = 90;
isGlobal = 0;
magnetic = 5;
x = 91;
y = 0;
}
);
};
},
{
color = 1;
glyphname = K;
layers = (
{
layerId = "EC64484B-0978-4CB1-9EE9-C40A2D8C4059";
paths = (
{
closed = 1;
nodes = (
"288 0 OFFCURVE",
"300 12 OFFCURVE",
"300 27 CURVE SMOOTH",
"300 241 LINE",
"422 23 LINE SMOOTH",
"425 17 OFFCURVE",
"436 0 OFFCURVE",
"463 0 CURVE SMOOTH",
"691 0 LINE SMOOTH",
"703 0 OFFCURVE",
"713 10 OFFCURVE",
"713 22 CURVE SMOOTH",
"713 25 OFFCURVE",
"712 30 OFFCURVE",
"710 33 CURVE SMOOTH",
"513 365 LINE",
"693 667 LINE SMOOTH",
"695 670 OFFCURVE",
"696 674 OFFCURVE",
"696 678 CURVE SMOOTH",
"696 690 OFFCURVE",
"686 700 OFFCURVE",
"674 700 CURVE SMOOTH",
"453 700 LINE SMOOTH",
"431 700 OFFCURVE",
"419 689 OFFCURVE",
"413 678 CURVE SMOOTH",
"300 475 LINE",
"300 673 LINE SMOOTH",
"300 688 OFFCURVE",
"288 700 OFFCURVE",
"273 700 CURVE SMOOTH",
"82 700 LINE SMOOTH",
"67 700 OFFCURVE",
"55 688 OFFCURVE",
"55 673 CURVE SMOOTH",
"55 27 LINE SMOOTH",
"55 12 OFFCURVE",
"67 0 OFFCURVE",
"82 0 CURVE SMOOTH",
"273 0 LINE SMOOTH"
);
},
{
closed = 1;
nodes = (
"227.093 255.666 OFFCURVE",
"227.952 254.271 OFFCURVE",
"225.803 251.086 CURVE",
"223.655 247.901 OFFCURVE",
"222.039 248.173 OFFCURVE",
"218.346 249.232 CURVE",
"213.951 250.493 OFFCURVE",
"211.165 250.116 OFFCURVE",
"211.005 254.686 CURVE",
"210.839 259.454 OFFCURVE",
"213.122 259.946 OFFCURVE",
"217.606 261.578 CURVE",
"221.216 262.892 OFFCURVE",
"222.363 261.721 OFFCURVE",
"224.728 258.694 CURVE"
);
},
{
closed = 1;
nodes = (
"520.709 577.55 OFFCURVE",
"534.567 566.786 OFFCURVE",
"514.891 547.109 CURVE",
"493.914 526.132 OFFCURVE",
"482.003 532.436 OFFCURVE",
"455.57 545.905 CURVE",
"434.507 556.637 OFFCURVE",
"438.72 567.97 OFFCURVE",
"442.419 591.319 CURVE",
"447.375 622.611 OFFCURVE",
"434.539 645.243 OFFCURVE",
"465.832 650.2 CURVE",
"497.356 655.193 OFFCURVE",
"493.586 630.782 OFFCURVE",
"508.076 602.344 CURVE"
);
},
{
closed = 1;
nodes = (
"343.365 297.233 OFFCURVE",
"347.388 293.754 OFFCURVE",
"344.317 281.436 CURVE",
"341.305 269.356 OFFCURVE",
"335.744 268.915 OFFCURVE",
"323.325 268.046 CURVE",
"312.993 267.324 OFFCURVE",
"311.045 271.403 OFFCURVE",
"307.165 281.006 CURVE",
"303.642 289.726 OFFCURVE",
"304.511 293.212 OFFCURVE",
"311.715 299.257 CURVE",
"319.914 306.137 OFFCURVE",
"323.522 309.633 OFFCURVE",
"332.598 303.961 CURVE"
);
},
{
closed = 1;
nodes = (
"424.441 388.451 OFFCURVE",
"415.948 377.274 OFFCURVE",
"413.869 357.491 CURVE",
"411.957 339.302 OFFCURVE",
"415.375 328.589 OFFCURVE",
"397.485 324.787 CURVE",
"377.071 320.448 OFFCURVE",
"370.124 324.426 OFFCURVE",
"359.689 342.5 CURVE",
"347.761 363.161 OFFCURVE",
"340.595 372.382 OFFCURVE",
"356.558 390.111 CURVE",
"373.329 408.736 OFFCURVE",
"383.374 406.736 OFFCURVE",
"406.269 396.542 CURVE"
);
},
{
closed = 1;
nodes = (
"225.373 420.332 OFFCURVE",
"226.076 411.685 OFFCURVE",
"216.154 391.342 CURVE",
"202.939 364.248 OFFCURVE",
"203.501 344.389 OFFCURVE",
"173.65 348.584 CURVE",
"142.91 352.904 OFFCURVE",
"145.044 369.963 OFFCURVE",
"139.653 400.533 CURVE",
"133.997 432.612 OFFCURVE",
"123.193 449.216 OFFCURVE",
"151.954 464.509 CURVE",
"180.134 479.492 OFFCURVE",
"186.134 458.225 OFFCURVE",
"209.092 436.054 CURVE"
);
},
{
closed = 1;
nodes = (
"550.476 117.34 OFFCURVE",
"557.639 115.613 OFFCURVE",
"553.472 104.758 CURVE",
"548.829 92.662 OFFCURVE",
"543.84 91.351 OFFCURVE",
"530.901 92.029 CURVE",
"520.061 92.597 OFFCURVE",
"520.321 98.633 OFFCURVE",
"517.511 109.118 CURVE",
"515.229 117.634 OFFCURVE",
"516.436 120.778 OFFCURVE",
"523.83 125.58 CURVE",
"531.225 130.382 OFFCURVE",
"534.588 130.206 OFFCURVE",
"541.44 124.657 CURVE"
);
},
{
closed = 1;
nodes = (
"148.943 126.277 OFFCURVE",
"150.754 124.594 OFFCURVE",
"149.893 118.469 CURVE",
"148.699 109.973 OFFCURVE",
"150.401 104.748 OFFCURVE",
"141.952 103.258 CURVE",
"133.124 101.702 OFFCURVE",
"131.73 105.982 OFFCURVE",
"127.522 113.897 CURVE",
"123.48 121.498 OFFCURVE",
"121.51 124.922 OFFCURVE",
"127.491 131.115 CURVE",
"133.06 136.882 OFFCURVE",
"136.178 132.503 OFFCURVE",
"143.384 128.988 CURVE"
);
},
{
closed = 1;
nodes = (
"522.836 232.289 OFFCURVE",
"535.296 235.652 OFFCURVE",
"534.995 218.389 CURVE",
"534.688 200.834 OFFCURVE",
"523.223 203.095 OFFCURVE",
"506.432 197.961 CURVE",
"491.845 193.502 OFFCURVE",
"484.994 189.871 OFFCURVE",
"476.245 202.366 CURVE",
"467.495 214.861 OFFCURVE",
"473.25 220.058 OFFCURVE",
"482.43 232.24 CURVE",
"489.874 242.119 OFFCURVE",
"494.815 241.938 OFFCURVE",
"506.511 237.91 CURVE"
);
},
{
closed = 1;
nodes = (
"204.988 77.486 OFFCURVE",
"206.032 75.248 OFFCURVE",
"204.798 68.901 CURVE",
"203.564 62.554 OFFCURVE",
"201.758 60.87 OFFCURVE",
"195.341 60.082 CURVE",
"189.202 59.328 OFFCURVE",
"187.551 61.168 OFFCURVE",
"184.937 66.774 CURVE",
"182.835 71.281 OFFCURVE",
"186.271 71.997 OFFCURVE",
"189.908 75.388 CURVE",
"193.85 79.064 OFFCURVE",
"194.619 83.234 OFFCURVE",
"199.333 80.621 CURVE"
);
},
{
closed = 1;
nodes = (
"255.963 302.825 OFFCURVE",
"258.237 302.294 OFFCURVE",
"257.988 297.529 CURVE",
"257.738 292.764 OFFCURVE",
"255.421 292.473 OFFCURVE",
"250.812 291.239 CURVE",
"246.837 290.174 OFFCURVE",
"245.37 290.737 OFFCURVE",
"243.129 294.188 CURVE",
"240.888 297.638 OFFCURVE",
"240.971 299.208 OFFCURVE",
"243.56 302.405 CURVE",
"246.149 305.603 OFFCURVE",
"247.667 306.01 OFFCURVE",
"251.509 304.535 CURVE"
);
},
{
closed = 1;
nodes = (
"131.915 66.403 OFFCURVE",
"128.79 63.162 OFFCURVE",
"123.777 55.73 CURVE",
"117.904 47.023 OFFCURVE",
"117.308 39.918 OFFCURVE",
"107.212 42.814 CURVE",
"95.885 46.061 OFFCURVE",
"94.423 50.561 OFFCURVE",
"94.012 62.337 CURVE",
"93.622 73.498 OFFCURVE",
"96.007 77.035 OFFCURVE",
"106.502 80.854 CURVE",
"116.473 84.483 OFFCURVE",
"119.863 81.828 OFFCURVE",
"126.396 73.466 CURVE"
);
},
{
closed = 1;
nodes = (
"103.432 329.296 OFFCURVE",
"105.428 329.557 OFFCURVE",
"105.932 325.974 CURVE",
"106.596 321.249 OFFCURVE",
"107.234 319.002 OFFCURVE",
"102.945 316.911 CURVE",
"98.657 314.819 OFFCURVE",
"97.279 316.705 OFFCURVE",
"93.965 320.137 CURVE",
"90.65 323.57 OFFCURVE",
"88.813 325.012 OFFCURVE",
"91.053 329.225 CURVE",
"93.129 333.129 OFFCURVE",
"95.514 330.692 OFFCURVE",
"99.868 329.924 CURVE"
);
},
{
closed = 1;
nodes = (
"175.893 654.813 OFFCURVE",
"179.12 652.381 OFFCURVE",
"182.213 642.263 CURVE",
"184.942 633.338 OFFCURVE",
"180.101 631.704 OFFCURVE",
"172.456 626.351 CURVE",
"164.812 620.998 OFFCURVE",
"161.621 617.008 OFFCURVE",
"154.167 622.625 CURVE",
"145.477 629.173 OFFCURVE",
"143.492 632.897 OFFCURVE",
"147.035 643.186 CURVE",
"150.578 653.475 OFFCURVE",
"154.434 655.187 OFFCURVE",
"165.314 654.997 CURVE"
);
},
{
closed = 1;
nodes = (
"335.179 420.227 OFFCURVE",
"327.22 411.344 OFFCURVE",
"322.07 393.385 CURVE",
"316.587 374.264 OFFCURVE",
"320.275 360.719 OFFCURVE",
"300.396 360.024 CURVE",
"277.748 359.233 OFFCURVE",
"271.982 366.05 OFFCURVE",
"264.231 387.345 CURVE",
"256.587 408.348 OFFCURVE",
"257.377 416.972 OFFCURVE",
"274.989 430.732 CURVE",
"292.602 444.493 OFFCURVE",
"301.161 443.173 OFFCURVE",
"319.69 430.674 CURVE"
);
},
{
closed = 1;
nodes = (
"257.286 150.371 OFFCURVE",
"263.376 149.256 OFFCURVE",
"261.786 137.938 CURVE",
"259.713 123.189 OFFCURVE",
"259.53 116.012 OFFCURVE",
"244.862 113.425 CURVE",
"229.728 110.757 OFFCURVE",
"226.024 116.164 OFFCURVE",
"218.809 129.733 CURVE",
"211.75 143.01 OFFCURVE",
"210.132 148.939 OFFCURVE",
"220.578 159.756 CURVE",
"229.885 169.393 OFFCURVE",
"234.972 161.254 OFFCURVE",
"247.014 155.381 CURVE"
);
},
{
closed = 1;
nodes = (
"266.232 661.035 OFFCURVE",
"268.498 659.592 OFFCURVE",
"268.971 652.837 CURVE",
"269.41 646.562 OFFCURVE",
"266.203 646.012 OFFCURVE",
"260.371 643.655 CURVE",
"254.87 641.433 OFFCURVE",
"252.387 640.384 OFFCURVE",
"248.574 644.929 CURVE",
"244.417 649.882 OFFCURVE",
"244.245 652.346 OFFCURVE",
"247.671 657.829 CURVE",
"251.098 663.312 OFFCURVE",
"253.388 664.237 OFFCURVE",
"259.661 662.673 CURVE"
);
},
{
closed = 1;
nodes = (
"183.821 280.623 OFFCURVE",
"188.832 279.016 OFFCURVE",
"186.436 269.403 CURVE",
"184.086 259.979 OFFCURVE",
"178.596 261.709 OFFCURVE",
"168.907 261.032 CURVE",
"161.284 260.499 OFFCURVE",
"158.809 262.045 OFFCURVE",
"155.947 269.13 CURVE",
"153.287 275.713 OFFCURVE",
"155.491 277.863 OFFCURVE",
"160.929 282.426 CURVE",
"166.634 287.213 OFFCURVE",
"169.104 289.819 OFFCURVE",
"175.419 285.873 CURVE"
);
},
{
closed = 1;
nodes = (
"478.666 137.52 OFFCURVE",
"481.368 135.558 OFFCURVE",
"481.963 127.046 CURVE",
"482.721 116.218 OFFCURVE",
"484.931 110.595 OFFCURVE",
"474.867 106.529 CURVE",
"463.144 101.793 OFFCURVE",
"458.274 102.173 OFFCURVE",
"450.147 111.859 CURVE",
"443.218 120.117 OFFCURVE",
"451.111 123.217 OFFCURVE",
"456.823 132.359 CURVE",
"460.895 138.875 OFFCURVE",
"462.931 141.443 OFFCURVE",
"470.387 139.584 CURVE"
);
}
);
width = 715;
}
);
leftKerningGroup = I;
rightKerningGroup = K;
unicode = 004B;
userData = {
com.typemytype.robofont.guides = (
{
angle = 0;
isGlobal = 0;
magnetic = 5;
x = 0;
y = 365;
},
{
angle = 90;
isGlobal = 0;
magnetic = 5;
x = 547;
y = 0;
},
{
angle = 90;
isGlobal = 0;
magnetic = 5;
x = 94;
y = 0;
},
{
angle = 90;
isGlobal = 0;
magnetic = 5;
x = 139;
y = 0;
}
);
};
},
{
color = 1;
glyphname = L;
layers = (
{
anchors = (
{
name = bottom;
position = "{313, 0}";
},
{
name = center;
position = "{313, 350}";
},
{
name = top;
position = "{173, 700}";
},
{
name = topright;
position = "{606, 700}";
}
);
layerId = "EC64484B-0978-4CB1-9EE9-C40A2D8C4059";
paths = (
{
closed = 1;
nodes = (
"601 0 OFFCURVE",
"613 12 OFFCURVE",
"613 27 CURVE SMOOTH",
"613 178 LINE SMOOTH",
"613 193 OFFCURVE",
"601 205 OFFCURVE",
"586 205 CURVE SMOOTH",
"309 205 LINE",
"309 673 LINE SMOOTH",
"309 688 OFFCURVE",
"297 700 OFFCURVE",
"282 700 CURVE SMOOTH",
"82 700 LINE SMOOTH",
"67 700 OFFCURVE",
"55 688 OFFCURVE",
"55 673 CURVE SMOOTH",
"55 27 LINE SMOOTH",
"55 12 OFFCURVE",
"67 0 OFFCURVE",
"82 0 CURVE SMOOTH",
"586 0 LINE SMOOTH"
);
},
{
closed = 1;
nodes = (
"437.2 94.391 OFFCURVE",
"435.659 87.31 OFFCURVE",
"438.523 76.623 CURVE",
"440.579 68.949 OFFCURVE",
"438.744 66.425 OFFCURVE",
"432.08 62.097 CURVE",
"422.581 55.928 OFFCURVE",
"419.328 47.997 OFFCURVE",
"410.526 55.126 CURVE",
"400.851 62.96 OFFCURVE",
"402.801 68.187 OFFCURVE",
"407.262 79.809 CURVE",
"411.602 91.115 OFFCURVE",
"414.057 95.604 OFFCURVE",
"426.151 94.97 CURVE"
);
},
{
closed = 1;
nodes = (
"266.218 263.86 OFFCURVE",
"264.431 256.441 OFFCURVE",
"254.572 240.034 CURVE",
"245.754 225.357 OFFCURVE",
"238.61 225.84 OFFCURVE",
"221.926 229.692 CURVE",
"205.561 233.47 OFFCURVE",
"199.578 236.653 OFFCURVE",
"198.114 253.385 CURVE",
"196.35 273.553 OFFCURVE",
"194.517 283.069 OFFCURVE",
"213.152 290.979 CURVE",
"232.687 299.271 OFFCURVE",
"239.737 294.322 OFFCURVE",
"253.66 278.306 CURVE"
);
},
{
closed = 1;
nodes = (
"160.967 453.631 OFFCURVE",
"163.154 449.766 OFFCURVE",
"163.954 438.325 CURVE",
"164.645 428.442 OFFCURVE",
"159.43 427.731 OFFCURVE",
"150.244 424.019 CURVE",
"142.615 420.937 OFFCURVE",
"139.565 421.697 OFFCURVE",
"134.275 428 CURVE",
"128.791 434.537 OFFCURVE",
"127.758 437.713 OFFCURVE",
"132.279 444.949 CURVE",
"137.835 453.839 OFFCURVE",
"139.667 458.942 OFFCURVE",
"149.838 456.406 CURVE"
);
},
{
closed = 1;
nodes = (
"190.414 639.069 OFFCURVE",
"188.64 631.786 OFFCURVE",
"190.757 619.778 CURVE",
"192.616 609.238 OFFCURVE",
"193.84 604.366 OFFCURVE",
"184.389 599.341 CURVE",
"174.503 594.084 OFFCURVE",
"170.551 596.274 OFFCURVE",
"162.496 604.052 CURVE",
"153.707 612.539 OFFCURVE",
"148.972 616.101 OFFCURVE",
"154.328 627.083 CURVE",
"160.386 639.503 OFFCURVE",
"164.656 642.69 OFFCURVE",
"178.34 640.766 CURVE"
);
},
{
closed = 1;
nodes = (
"270.35 138.827 OFFCURVE",
"268.247 128.834 OFFCURVE",
"246.053 114.421 CURVE",
"226.404 101.661 OFFCURVE",
"219.699 114.164 OFFCURVE",
"201.491 128.908 CURVE",
"187.33 140.376 OFFCURVE",
"185.529 147.098 OFFCURVE",
"192.059 164.109 CURVE",
"199.522 183.552 OFFCURVE",
"202.244 193.036 OFFCURVE",
"223.041 191.947 CURVE",
"247.484 190.666 OFFCURVE",
"257.166 188.031 OFFCURVE",
"263.501 164.388 CURVE"
);
},
{
closed = 1;
nodes = (
"391.649 115.406 OFFCURVE",
"386.015 109.348 OFFCURVE",
"373.478 95.904 CURVE",
"362.64 84.282 OFFCURVE",
"356.414 84.72 OFFCURVE",
"342.012 91.436 CURVE",
"321.099 101.188 OFFCURVE",
"303.538 97.825 OFFCURVE",
"306.35 120.728 CURVE",
"309.456 146.019 OFFCURVE",
"320.546 148.421 OFFCURVE",
"345.558 153.283 CURVE",
"366.712 157.395 OFFCURVE",
"372.29 150.331 OFFCURVE",
"382.737 131.484 CURVE"
);
},
{
closed = 1;
nodes = (
"222.432 474.343 OFFCURVE",
"221.8 473.153 OFFCURVE",
"218.63 471.607 CURVE",
"215.46 470.061 OFFCURVE",
"214.134 470.295 OFFCURVE",
"211.684 472.832 CURVE",
"209.234 475.369 OFFCURVE",
"209.047 476.703 OFFCURVE",
"210.702 479.817 CURVE",
"212.358 482.931 OFFCURVE",
"213.569 483.521 OFFCURVE",
"217.042 482.909 CURVE",
"220.515 482.296 OFFCURVE",
"221.451 481.327 OFFCURVE",
"221.942 477.835 CURVE"
);
},
{
closed = 1;
nodes = (
"167.729 358.899 OFFCURVE",
"167.218 352.565 OFFCURVE",
"164.651 338.006 CURVE",
"162.083 323.447 OFFCURVE",
"160.397 317.32 OFFCURVE",
"145.758 315.263 CURVE",
"127.431 312.687 OFFCURVE",
"118.655 310.024 OFFCURVE",
"110.542 326.657 CURVE",
"102.611 342.918 OFFCURVE",
"111.62 347.416 OFFCURVE",
"124.634 359.983 CURVE",
"135.642 370.614 OFFCURVE",
"141.163 373.024 OFFCURVE",
"154.676 365.84 CURVE"
);
},
{
closed = 1;
nodes = (
"195.747 77.916 OFFCURVE",
"201.817 77.431 OFFCURVE",
"199.074 69.465 CURVE",
"195.722 59.732 OFFCURVE",
"192.978 56.823 OFFCURVE",
"182.686 57.003 CURVE",
"173.145 57.169 OFFCURVE",
"172.402 61.781 OFFCURVE",
"169.612 70.907 CURVE",
"166.925 79.696 OFFCURVE",
"165.72 83.654 OFFCURVE",
"173.249 88.926 CURVE",
"180.151 93.758 OFFCURVE",
"182.29 88.057 OFFCURVE",
"189.018 82.986 CURVE"
);
},
{
closed = 1;
nodes = (
"148.764 563.099 OFFCURVE",
"145.585 558.204 OFFCURVE",
"131.318 552.727 CURVE",
"117.319 547.354 OFFCURVE",
"112.007 549.614 OFFCURVE",
"102.571 561.267 CURVE",
"93.135 572.92 OFFCURVE",
"92.028 578.586 OFFCURVE",
"100.195 591.161 CURVE",
"107.675 602.68 OFFCURVE",
"113.909 599.873 OFFCURVE",
"127.176 596.319 CURVE",
"140.444 592.764 OFFCURVE",
"147.246 592.077 OFFCURVE",
"147.964 578.361 CURVE"
);
}
);
width = 626;
}
);
leftKerningGroup = I;
rightKerningGroup = L;
unicode = 004C;
},
{
color = 1;
glyphname = Lslash;
layers = (
{
hints = (
{
horizontal = 1;
place = "{-2147483648, 0}";
type = Tag;
name = hr00;
}
);
layerId = "EC64484B-0978-4CB1-9EE9-C40A2D8C4059";
paths = (
{
closed = 1;
nodes = (
"609 0 OFFCURVE",
"621 12 OFFCURVE",
"621 27 CURVE SMOOTH",
"621 178 LINE SMOOTH",
"621 193 OFFCURVE",
"609 205 OFFCURVE",
"594 205 CURVE SMOOTH",
"317 205 LINE",
"317 325 LINE",
"472 386 LINE SMOOTH",
"488 392 OFFCURVE",
"494 401 OFFCURVE",
"494 419 CURVE SMOOTH",
"494 527 LINE SMOOTH",
"494 539 OFFCURVE",
"485 548 OFFCURVE",
"473 548 CURVE SMOOTH",
"471 548 OFFCURVE",
"467 547 OFFCURVE",
"462 545 CURVE SMOOTH",
"317 488 LINE",
"317 673 LINE SMOOTH",
"317 688 OFFCURVE",
"305 700 OFFCURVE",
"290 700 CURVE SMOOTH",
"90 700 LINE SMOOTH",
"75 700 OFFCURVE",
"63 688 OFFCURVE",
"63 673 CURVE SMOOTH",
"63 388 LINE",
"35 377 LINE SMOOTH",
"19 371 OFFCURVE",
"13 362 OFFCURVE",
"13 344 CURVE SMOOTH",
"13 236 LINE SMOOTH",
"13 224 OFFCURVE",
"22 215 OFFCURVE",
"34 215 CURVE SMOOTH",
"36 215 OFFCURVE",
"40 216 OFFCURVE",
"45 218 CURVE SMOOTH",
"63 225 LINE",
"63 27 LINE SMOOTH",
"63 12 OFFCURVE",
"75 0 OFFCURVE",
"90 0 CURVE SMOOTH",
"594 0 LINE SMOOTH"
);
},
{
closed = 1;
nodes = (
"210.589 104.451 OFFCURVE",
"215 99.757 OFFCURVE",
"215 83 CURVE",
"215 68.325 OFFCURVE",
"205.828 69.465 OFFCURVE",
"191.871 64.93 CURVE",
"177.914 60.395 OFFCURVE",
"171.164 54.082 OFFCURVE",
"162.539 65.954 CURVE",
"152.163 80.235 OFFCURVE",
"150.545 86.94 OFFCURVE",
"160.92 101.221 CURVE",
"171.137 115.284 OFFCURVE",
"178.121 115 OFFCURVE",
"194.652 109.63 CURVE"
);
},
{
closed = 1;
nodes = (
"171.328 579.627 OFFCURVE",
"169.644 578.46 OFFCURVE",
"164.997 576.583 CURVE",
"161.109 575.012 OFFCURVE",
"160.099 576.931 OFFCURVE",
"157.404 580.143 CURVE",
"154.465 583.646 OFFCURVE",
"151.945 584.892 OFFCURVE",
"154.368 588.769 CURVE",
"157.024 593.02 OFFCURVE",
"159.072 592.975 OFFCURVE",
"163.935 591.762 CURVE",
"168.799 590.55 OFFCURVE",
"170.628 589.628 OFFCURVE",
"170.978 584.628 CURVE"
);
},
{
closed = 1;
nodes = (
"258.034 610.319 OFFCURVE",
"260.653 602.346 OFFCURVE",
"264.43 582.915 CURVE",
"267.698 566.107 OFFCURVE",
"262.065 561.686 OFFCURVE",
"247.09 553.385 CURVE",
"234.758 546.549 OFFCURVE",
"230.672 552.757 OFFCURVE",
"220.36 562.373 CURVE",
"207.426 574.434 OFFCURVE",
"193.899 576.186 OFFCURVE",
"201.373 592.214 CURVE",
"210.316 611.392 OFFCURVE",
"217.385 615.31 OFFCURVE",
"238.387 612.732 CURVE"
);
},
{
closed = 1;
nodes = (
"176.323 530.088 OFFCURVE",
"182.937 531.111 OFFCURVE",
"183.916 519.917 CURVE",
"185.184 505.431 OFFCURVE",
"185.936 498.828 OFFCURVE",
"172.55 493.146 CURVE",
"159.923 487.787 OFFCURVE",
"157.414 495.839 OFFCURVE",
"148.415 506.191 CURVE",
"138.895 517.143 OFFCURVE",
"129.668 520.497 OFFCURVE",
"137.142 532.936 CURVE",
"144.413 545.037 OFFCURVE",
"151.619 535.791 OFFCURVE",
"165.374 532.616 CURVE"
);
},
{
closed = 1;
nodes = (
"318.211 415.444 OFFCURVE",
"317.396 412.177 OFFCURVE",
"310.642 406.509 CURVE",
"304.106 401.025 OFFCURVE",
"300.817 401.606 OFFCURVE",
"293.581 406.127 CURVE",
"287.724 409.787 OFFCURVE",
"291.567 413.234 OFFCURVE",
"293.238 419.935 CURVE",
"294.713 425.851 OFFCURVE",
"294.081 429.545 OFFCURVE",
"300.163 429.971 CURVE",
"308.171 430.531 OFFCURVE",
"311.901 431.062 OFFCURVE",
"314.908 423.619 CURVE"
);
},
{
closed = 1;
nodes = (
"473.444 123.396 OFFCURVE",
"456.552 114.928 OFFCURVE",
"444.364 92.941 CURVE",
"432.975 72.393 OFFCURVE",
"433.093 56.381 OFFCURVE",
"410.032 60.864 CURVE",
"386.971 65.346 OFFCURVE",
"393.079 80.148 OFFCURVE",
"390.216 103.466 CURVE",
"387.946 121.952 OFFCURVE",
"387.751 129.943 OFFCURVE",
"404.631 137.814 CURVE",
"428.113 148.765 OFFCURVE",
"438.628 160.731 OFFCURVE",
"456.299 141.782 CURVE"
);
},
{
closed = 1;
nodes = (
"235.057 231.508 OFFCURVE",
"246.286 224.617 OFFCURVE",
"235.409 201.292 CURVE",
"224.62 178.155 OFFCURVE",
"211.951 183.157 OFFCURVE",
"186.613 186.268 CURVE",
"161.641 189.335 OFFCURVE",
"148.683 188.144 OFFCURVE",
"143.882 212.841 CURVE",
"138.384 241.125 OFFCURVE",
"141.559 251.762 OFFCURVE",
"166.76 265.731 CURVE",
"189.59 278.386 OFFCURVE",
"197.143 266.863 OFFCURVE",
"216.234 249.06 CURVE"
);
},
{
closed = 1;
nodes = (
"107.166 284.54 OFFCURVE",
"106.647 280.265 OFFCURVE",
"97.03 275.78 CURVE",
"83.369 269.41 OFFCURVE",
"77.339 261.517 OFFCURVE",
"67.059 272.54 CURVE",
"55.033 285.436 OFFCURVE",
"54.212 292.122 OFFCURVE",
"62.761 307.544 CURVE",
"70.239 321.035 OFFCURVE",
"77.866 316.557 OFFCURVE",
"93.007 313.614 CURVE",
"104.084 311.461 OFFCURVE",
"104.498 306.272 OFFCURVE",
"105.873 295.072 CURVE"
);
},
{
closed = 1;
nodes = (
"270.545 465.663 OFFCURVE",
"270.7 462.076 OFFCURVE",
"271.865 454.721 CURVE",
"272.876 448.335 OFFCURVE",
"271.755 446.134 OFFCURVE",
"265.994 443.199 CURVE",
"259.668 439.976 OFFCURVE",
"256.828 438.787 OFFCURVE",
"251.808 443.808 CURVE",
"246.604 449.011 OFFCURVE",
"246.967 451.891 OFFCURVE",
"250.308 458.448 CURVE",
"253.796 465.294 OFFCURVE",
"255.601 468.03 OFFCURVE",
"263.19 466.828 CURVE"
);
},
{
closed = 1;
nodes = (
"137.879 463.112 OFFCURVE",
"142.508 458.605 OFFCURVE",
"135.74 446.395 CURVE",
"128.972 434.185 OFFCURVE",
"122.697 435.722 OFFCURVE",
"108.993 438.386 CURVE",
"98.338 440.457 OFFCURVE",
"99.435 446.398 OFFCURVE",
"98.112 457.172 CURVE",
"96.695 468.713 OFFCURVE",
"92.742 474.931 OFFCURVE",
"103.28 479.845 CURVE",
"115.022 485.321 OFFCURVE",
"119.522 482.798 OFFCURVE",
"128.358 473.322 CURVE"
);
},
{
closed = 1;
nodes = (
"444.767 454.987 OFFCURVE",
"442.519 449.536 OFFCURVE",
"441.981 439.267 CURVE",
"441.443 428.999 OFFCURVE",
"443.109 423.343 OFFCURVE",
"433.176 420.681 CURVE",
"423.05 417.968 OFFCURVE",
"421.13 423.038 OFFCURVE",
"415.42 431.83 CURVE",
"409.087 441.582 OFFCURVE",
"402.808 445.438 OFFCURVE",
"410.126 454.474 CURVE",
"418.115 464.341 OFFCURVE",
"423.315 463.221 OFFCURVE",
"435.167 458.672 CURVE"
);
},
{
closed = 1;
nodes = (
"592.387 131.161 OFFCURVE",
"586.294 125.845 OFFCURVE",
"573.067 113.935 CURVE",
"561.694 103.695 OFFCURVE",
"555.753 104.697 OFFCURVE",
"542.5 112.349 CURVE",
"527.474 121.024 OFFCURVE",
"519.114 123.89 OFFCURVE",
"522.721 140.861 CURVE",
"526.754 159.834 OFFCURVE",
"532.26 164.792 OFFCURVE",
"551.551 166.819 CURVE",
"570.841 168.847 OFFCURVE",
"577.258 165.142 OFFCURVE",
"585.147 147.422 CURVE"
);
},
{
closed = 1;
nodes = (
"119.199 646.475 OFFCURVE",
"117.944 644.613 OFFCURVE",
"112.42 642.603 CURVE",
"107.391 640.773 OFFCURVE",
"105.991 642.858 OFFCURVE",
"102.696 647.075 CURVE",
"100.114 650.379 OFFCURVE",
"101.681 651.879 OFFCURVE",
"104.026 655.355 CURVE",
"106.583 659.146 OFFCURVE",
"107.085 661.912 OFFCURVE",
"111.481 660.651 CURVE",
"116.862 659.108 OFFCURVE",
"118.799 657.944 OFFCURVE",
"118.994 652.349 CURVE"
);
},
{
closed = 1;
nodes = (
"292.178 305.382 OFFCURVE",
"287.513 304.948 OFFCURVE",
"280.848 301.254 CURVE",
"275.439 298.255 OFFCURVE",
"273.021 297.737 OFFCURVE",
"268.498 301.955 CURVE",
"261.93 308.08 OFFCURVE",
"255.891 309.468 OFFCURVE",
"259.686 317.607 CURVE",
"263.719 326.256 OFFCURVE",
"268.235 325.059 OFFCURVE",
"277.706 323.896 CURVE",
"286.175 322.856 OFFCURVE",
"289.096 321.238 OFFCURVE",
"290.724 312.862 CURVE"
);
}
);
width = 634;
}
);
leftKerningGroup = I;
rightKerningGroup = L;
unicode = 0141;
userData = {
com.typemytype.robofont.guides = (
{
angle = 0;
isGlobal = 0;
magnetic = 5;
x = 0;
y = 215;
},
{
angle = 0;
isGlobal = 0;
magnetic = 5;
x = 0;
y = 548;
},
{
angle = 0;
isGlobal = 0;
magnetic = 5;
x = 0;
y = 438;
},
{
angle = 0;
isGlobal = 0;
magnetic = 5;
x = 0;
y = 267;
},
{
angle = 0;
isGlobal = 0;
magnetic = 5;
x = 0;
y = 353;
},
{
angle = 90;
isGlobal = 0;
magnetic = 5;
x = 129;
y = 0;
},
{
angle = 90;
isGlobal = 0;
magnetic = 5;
x = 325;
y = 0;
},
{
angle = 90;
isGlobal = 0;
magnetic = 5;
x = "-5";
y = 0;
}
);
};
},
{
color = 1;
glyphname = M;
layers = (
{
hints = (
{
horizontal = 1;
place = "{-2147483648, 0}";
type = Tag;
name = hr00;
}
);
layerId = "EC64484B-0978-4CB1-9EE9-C40A2D8C4059";
paths = (
{
closed = 1;
nodes = (
"278 0 OFFCURVE",
"290 12 OFFCURVE",
"290 27 CURVE SMOOTH",
"290 301 LINE",
"356 193 LINE SMOOTH",
"363 182 OFFCURVE",
"373 168 OFFCURVE",
"393 168 CURVE SMOOTH",
"463 168 LINE SMOOTH",
"483 168 OFFCURVE",
"493 182 OFFCURVE",
"500 193 CURVE SMOOTH",
"566 301 LINE",
"566 27 LINE SMOOTH",
"566 12 OFFCURVE",
"578 0 OFFCURVE",
"593 0 CURVE SMOOTH",
"774 0 LINE SMOOTH",
"789 0 OFFCURVE",
"801 12 OFFCURVE",
"801 27 CURVE SMOOTH",
"801 673 LINE SMOOTH",
"801 688 OFFCURVE",
"789 700 OFFCURVE",
"774 700 CURVE SMOOTH",
"616 700 LINE SMOOTH",
"589 700 OFFCURVE",
"577 680 OFFCURVE",
"573 673 CURVE SMOOTH",
"428 433 LINE",
"283 673 LINE SMOOTH",
"279 680 OFFCURVE",
"267 700 OFFCURVE",
"240 700 CURVE SMOOTH",
"82 700 LINE SMOOTH",
"67 700 OFFCURVE",
"55 688 OFFCURVE",
"55 673 CURVE SMOOTH",
"55 27 LINE SMOOTH",
"55 12 OFFCURVE",
"67 0 OFFCURVE",
"82 0 CURVE SMOOTH",
"263 0 LINE SMOOTH"
);
},
{
closed = 1;
nodes = (
"463.936 293.982 OFFCURVE",
"465.426 291.512 OFFCURVE",
"461.326 286.448 CURVE",
"455.813 279.641 OFFCURVE",
"454.086 274.99 OFFCURVE",
"445.908 278.129 CURVE",
"436.846 281.608 OFFCURVE",
"435.514 285.144 OFFCURVE",
"436.022 294.837 CURVE",
"436.514 304.229 OFFCURVE",
"438.775 307.021 OFFCURVE",
"447.859 309.455 CURVE",
"455.603 311.53 OFFCURVE",
"456.02 306.17 OFFCURVE",
"460.387 299.446 CURVE"
);
},
{
closed = 1;
nodes = (
"228.312 240.087 OFFCURVE",
"234.058 234.21 OFFCURVE",
"232.949 213.064 CURVE",
"231.855 192.191 OFFCURVE",
"224.989 187.568 OFFCURVE",
"204.8 182.159 CURVE",
"182.66 176.226 OFFCURVE",
"172.421 172.358 OFFCURVE",
"159.937 191.581 CURVE",
"144.971 214.626 OFFCURVE",
"139.85 225.111 OFFCURVE",
"157.143 246.466 CURVE",
"173.321 266.444 OFFCURVE",
"184.543 256.888 OFFCURVE",
"208.543 247.675 CURVE"
);
},
{
closed = 1;
nodes = (
"682.12 370.02 OFFCURVE",
"685.111 357.667 OFFCURVE",
"661.498 339.874 CURVE",
"638.08 322.227 OFFCURVE",
"627.208 329.32 OFFCURVE",
"603.189 346.138 CURVE",
"579.17 362.957 OFFCURVE",
"568.787 370.747 OFFCURVE",
"577.36 398.788 CURVE",
"585.933 426.829 OFFCURVE",
"598.897 427.481 OFFCURVE",
"628.215 427.993 CURVE",
"654.958 428.46 OFFCURVE",
"663.786 423.266 OFFCURVE",
"672.494 397.976 CURVE"
);
},
{
closed = 1;
nodes = (
"141.708 272.24 OFFCURVE",
"143.473 270.203 OFFCURVE",
"140.329 265.171 CURVE",
"137.051 259.926 OFFCURVE",
"134.582 259.801 OFFCURVE",
"128.581 261.297 CURVE",
"123.756 262.5 OFFCURVE",
"125.362 265.621 OFFCURVE",
"125.015 270.581 CURVE",
"124.668 275.542 OFFCURVE",
"122.643 278.409 OFFCURVE",
"127.254 280.272 CURVE",
"132.445 282.369 OFFCURVE",
"134.296 281.074 OFFCURVE",
"137.894 276.785 CURVE"
);
},
{
closed = 1;
nodes = (
"179.046 93.732 OFFCURVE",
"184.133 89.418 OFFCURVE",
"176.967 78.384 CURVE",
"169.913 67.523 OFFCURVE",
"163.851 71.261 OFFCURVE",
"151.341 74.613 CURVE",
"140.83 77.43 OFFCURVE",
"137.596 80.139 OFFCURVE",
"137.026 91.006 CURVE",
"136.392 103.1 OFFCURVE",
"136.81 108.199 OFFCURVE",
"148.116 112.539 CURVE",
"159.422 116.879 OFFCURVE",
"163.144 113.369 OFFCURVE",
"170.766 103.957 CURVE"
);
},
{
closed = 1;
nodes = (
"312.013 540.295 OFFCURVE",
"324.798 527.304 OFFCURVE",
"313.274 484.294 CURVE",
"301.947 442.02 OFFCURVE",
"283.265 439.384 OFFCURVE",
"239.559 437.093 CURVE",
"203.309 435.193 OFFCURVE",
"198.595 451.76 OFFCURVE",
"185.587 485.648 CURVE",
"172.451 519.868 OFFCURVE",
"164.091 535.556 OFFCURVE",
"192.577 558.623 CURVE",
"224.559 584.521 OFFCURVE",
"240.156 586.959 OFFCURVE",
"274.669 564.546 CURVE"
);
},
{
closed = 1;
nodes = (
"100.561 571.289 OFFCURVE",
"103.358 569.962 OFFCURVE",
"101.126 564.702 CURVE",
"98.709 559.009 OFFCURVE",
"96.29 558.499 OFFCURVE",
"90.128 559.038 CURVE",
"84.551 559.526 OFFCURVE",
"83.49 561.52 OFFCURVE",
"82.231 566.975 CURVE",
"80.971 572.431 OFFCURVE",
"81.051 574.688 OFFCURVE",
"85.85 577.572 CURVE",
"90.437 580.328 OFFCURVE",
"92.21 578.549 OFFCURVE",
"96.248 575.038 CURVE"
);
},
{
closed = 1;
nodes = (
"719.426 525.662 OFFCURVE",
"718.577 522.905 OFFCURVE",
"716.455 516.744 CURVE",
"714.442 510.896 OFFCURVE",
"712.992 508.894 OFFCURVE",
"706.808 509.002 CURVE",
"700.343 509.115 OFFCURVE",
"698.371 510.601 OFFCURVE",
"696.481 516.784 CURVE",
"694.501 523.26 OFFCURVE",
"694.57 525.946 OFFCURVE",
"700.117 529.83 CURVE",
"705.895 533.876 OFFCURVE",
"708.589 533.828 OFFCURVE",
"714.222 529.584 CURVE"
);
},
{
closed = 1;
nodes = (
"715.844 181.322 OFFCURVE",
"719.402 178.226 OFFCURVE",
"716.021 167.82 CURVE",
"712.388 156.639 OFFCURVE",
"708.756 154 OFFCURVE",
"697 154 CURVE",
"686.058 154 OFFCURVE",
"684.213 158.341 OFFCURVE",
"680.832 168.747 CURVE",
"677.553 178.838 OFFCURVE",
"677.248 183.134 OFFCURVE",
"685.832 189.371 CURVE",
"694.417 195.608 OFFCURVE",
"698.408 193.99 OFFCURVE",
"706.992 187.753 CURVE"
);
},
{
closed = 1;
nodes = (
"657.945 135.105 OFFCURVE",
"656.641 133.805 OFFCURVE",
"653.015 131.266 CURVE",
"649.389 128.727 OFFCURVE",
"647.721 127.947 OFFCURVE",
"644.185 130.611 CURVE",
"640.43 133.441 OFFCURVE",
"639.905 135.158 OFFCURVE",
"641.436 139.605 CURVE",
"642.877 143.79 OFFCURVE",
"644.696 144.076 OFFCURVE",
"649.122 143.999 CURVE",
"653.548 143.922 OFFCURVE",
"655.356 143.572 OFFCURVE",
"656.65 139.339 CURVE"
);
},
{
closed = 1;
nodes = (
"740.295 354.277 OFFCURVE",
"743.372 353.933 OFFCURVE",
"742.973 348.233 CURVE",
"742.575 342.532 OFFCURVE",
"739.48 342.62 OFFCURVE",
"733.935 341.238 CURVE",
"729.072 340.025 OFFCURVE",
"727.024 339.98 OFFCURVE",
"724.368 344.231 CURVE",
"721.034 349.565 OFFCURVE",
"718.764 351.895 OFFCURVE",
"722.807 356.713 CURVE",
"726.726 361.384 OFFCURVE",
"729.344 358.701 OFFCURVE",
"734.997 356.417 CURVE"
);
},
{
closed = 1;
nodes = (
"752.24 656.342 OFFCURVE",
"754.706 655.868 OFFCURVE",
"754.986 650.523 CURVE",
"755.365 643.297 OFFCURVE",
"756.773 639.523 OFFCURVE",
"750.017 636.93 CURVE",
"742.335 633.981 OFFCURVE",
"739.299 634.794 OFFCURVE",
"734.12 641.19 CURVE",
"729.68 646.673 OFFCURVE",
"733.609 648.984 OFFCURVE",
"737.452 654.902 CURVE",
"740.182 659.106 OFFCURVE",
"742.229 659.025 OFFCURVE",
"747.071 657.727 CURVE"
);
},
{
closed = 1;
nodes = (
"628.131 55.741 OFFCURVE",
"630.458 55.938 OFFCURVE",
"631.693 51.329 CURVE",
"632.928 46.721 OFFCURVE",
"630.814 45.728 OFFCURVE",
"626.812 43.129 CURVE",
"623.59 41.037 OFFCURVE",
"622.21 41.919 OFFCURVE",
"619.224 44.337 CURVE",
"616.483 46.557 OFFCURVE",
"616.135 47.858 OFFCURVE",
"617.399 51.15 CURVE",
"618.775 54.737 OFFCURVE",
"619.53 56.191 OFFCURVE",
"623.366 55.99 CURVE"
);
},
{
closed = 1;
nodes = (
"652.853 608.899 OFFCURVE",
"655.849 609.681 OFFCURVE",
"657.519 604.216 CURVE",
"659.499 597.74 OFFCURVE",
"659.43 595.054 OFFCURVE",
"653.883 591.17 CURVE",
"648.731 587.562 OFFCURVE",
"646.607 590.027 OFFCURVE",
"641.584 593.812 CURVE",
"637.112 597.182 OFFCURVE",
"635.722 598.962 OFFCURVE",
"637.545 604.256 CURVE",
"639.287 609.316 OFFCURVE",
"641.789 609.092 OFFCURVE",
"647.14 608.999 CURVE"
);
},
{
closed = 1;
nodes = (
"507.214 394.808 OFFCURVE",
"502.841 389.741 OFFCURVE",
"499.183 379.116 CURVE",
"496 369.875 OFFCURVE",
"494.458 365.832 OFFCURVE",
"484.686 366.003 CURVE",
"473.162 366.204 OFFCURVE",
"468.287 366.838 OFFCURVE",
"464.918 377.86 CURVE",
"461.924 387.65 OFFCURVE",
"470.305 387.139 OFFCURVE",
"478.691 393.011 CURVE",
"487.431 399.131 OFFCURVE",
"489.718 407.992 OFFCURVE",
"498.24 401.57 CURVE"
);
},
{
closed = 1;
nodes = (
"234.394 366.845 OFFCURVE",
"237.837 356.525 OFFCURVE",
"233.421 328.648 CURVE",
"229.358 302.991 OFFCURVE",
"219.07 299.568 OFFCURVE",
"193.414 295.505 CURVE",
"173.063 292.282 OFFCURVE",
"173.188 305.838 OFFCURVE",
"163.834 324.196 CURVE",
"152.777 345.896 OFFCURVE",
"134.423 354.134 OFFCURVE",
"151.645 371.355 CURVE",
"172.22 391.931 OFFCURVE",
"183.319 392.87 OFFCURVE",
"209.246 379.659 CURVE"
);
},
{
closed = 1;
nodes = (
"782.155 581.074 OFFCURVE",
"778.401 573.79 OFFCURVE",
"765.513 558.431 CURVE",
"752.832 543.318 OFFCURVE",
"746.18 539.158 OFFCURVE",
"727.889 546.549 CURVE",
"711.751 553.069 OFFCURVE",
"718.837 563.102 OFFCURVE",
"720.051 580.465 CURVE",
"721 594.047 OFFCURVE",
"721.741 599.963 OFFCURVE",
"734.952 603.257 CURVE",
"752.875 607.726 OFFCURVE",
"761.741 613.742 OFFCURVE",
"771.53 598.077 CURVE"
);
},
{
closed = 1;
nodes = (
"667.527 252.726 OFFCURVE",
"663.854 250.424 OFFCURVE",
"661.344 245.042 CURVE",
"658.657 239.278 OFFCURVE",
"659.728 234.322 OFFCURVE",
"653.416 235.097 CURVE",
"646.112 235.994 OFFCURVE",
"644.625 238.487 OFFCURVE",
"643.22 245.71 CURVE",
"642.057 251.695 OFFCURVE",
"645.789 252.041 OFFCURVE",
"651.122 254.997 CURVE",
"656.454 257.953 OFFCURVE",
"658.725 260.934 OFFCURVE",
"663.184 256.776 CURVE"
);
},
{
closed = 1;
nodes = (
"125.382 134.223 OFFCURVE",
"130.693 131.222 OFFCURVE",
"126.951 118.983 CURVE",
"123.479 107.624 OFFCURVE",
"116.12 112.209 OFFCURVE",
"104.244 112.002 CURVE",
"96.017 111.859 OFFCURVE",
"93.442 113.661 OFFCURVE",
"90.763 121.442 CURVE",
"87.537 130.809 OFFCURVE",
"84.653 135.212 OFFCURVE",
"92.566 141.174 CURVE",
"101.485 147.895 OFFCURVE",
"105.75 147.97 OFFCURVE",
"114.898 141.564 CURVE"
);
},
{
closed = 1;
nodes = (
"593.46 471.016 OFFCURVE",
"589.968 469.654 OFFCURVE",
"585.657 465.343 CURVE",
"581.064 460.751 OFFCURVE",
"579.885 456.468 OFFCURVE",
"574.098 459.417 CURVE",
"568.16 462.443 OFFCURVE",
"570.068 465.825 OFFCURVE",
"571.111 472.408 CURVE",
"571.938 477.633 OFFCURVE",
"573.367 479.062 OFFCURVE",
"578.592 479.889 CURVE",
"584.805 480.873 OFFCURVE",
"587.837 482.052 OFFCURVE",
"590.692 476.448 CURVE"
);
},
{
closed = 1;
nodes = (
"536.395 460.708 OFFCURVE",
"542.153 457.343 OFFCURVE",
"537.013 445.232 CURVE",
"530.374 429.593 OFFCURVE",
"528.136 421.641 OFFCURVE",
"511.211 423.122 CURVE",
"493.82 424.643 OFFCURVE",
"491.619 431.917 OFFCURVE",
"487.692 448.926 CURVE",
"484.565 462.471 OFFCURVE",
"492.299 464.127 OFFCURVE",
"504.214 471.286 CURVE",
"513.787 477.038 OFFCURVE",
"518.037 476.666 OFFCURVE",
"526.465 469.339 CURVE"
);
},
{
closed = 1;
nodes = (
"412.149 268.861 OFFCURVE",
"409.459 265.968 OFFCURVE",
"403.811 259.471 CURVE",
"398.386 253.231 OFFCURVE",
"395.75 250.962 OFFCURVE",
"388.139 254.192 CURVE",
"380.949 257.244 OFFCURVE",
"382.361 261.178 OFFCURVE",
"383.042 268.959 CURVE",
"383.605 275.4 OFFCURVE",
"385.226 277.264 OFFCURVE",
"391.526 278.718 CURVE",
"399.504 280.56 OFFCURVE",
"403.497 283.26 OFFCURVE",
"407.715 276.241 CURVE"
);
},
{
closed = 1;
nodes = (
"696.033 81.669 OFFCURVE",
"693.228 76.265 OFFCURVE",
"693.962 67.872 CURVE",
"694.626 60.28 OFFCURVE",
"696.876 56.17 OFFCURVE",
"689.861 53.192 CURVE",
"682.995 50.278 OFFCURVE",
"682.101 55.466 OFFCURVE",
"677.208 61.095 CURVE",
"672.314 66.725 OFFCURVE",
"667.301 68.332 OFFCURVE",
"671.142 74.726 CURVE",
"676.004 82.817 OFFCURVE",
"678.627 85.688 OFFCURVE",
"687.824 83.564 CURVE"
);
}
);
width = 856;
}
);
leftKerningGroup = I;
rightKerningGroup = I;
unicode = 004D;
userData = {
com.typemytype.robofont.guides = (
{
angle = 0;
isGlobal = 0;
magnetic = 5;
x = 0;
y = 168;
},
{
angle = 0;
isGlobal = 0;
magnetic = 5;
x = 0;
y = 9;
},
{
angle = 0;
isGlobal = 0;
magnetic = 5;
x = 0;
y = 691;
},
{
angle = 90;
isGlobal = 0;
magnetic = 5;
x = 126;
y = 0;
},
{
angle = 90;
isGlobal = 0;
magnetic = 5;
x = 636;
y = 0;
}
);
};
},
{
color = 1;
glyphname = N;
layers = (
{
anchors = (
{
name = bottom;
position = "{370, 0}";
},
{
name = top;
position = "{370, 700}";
}
);
layerId = "EC64484B-0978-4CB1-9EE9-C40A2D8C4059";
paths = (
{
closed = 1;
nodes = (
"278 0 OFFCURVE",
"290 12 OFFCURVE",
"290 27 CURVE SMOOTH",
"290 278 LINE",
"459 23 LINE SMOOTH",
"463 17 OFFCURVE",
"473 0 OFFCURVE",
"500 0 CURVE SMOOTH",
"658 0 LINE SMOOTH",
"673 0 OFFCURVE",
"685 12 OFFCURVE",
"685 27 CURVE SMOOTH",
"685 673 LINE SMOOTH",
"685 688 OFFCURVE",
"673 700 OFFCURVE",
"658 700 CURVE SMOOTH",
"477 700 LINE SMOOTH",
"462 700 OFFCURVE",
"450 688 OFFCURVE",
"450 673 CURVE SMOOTH",
"450 400 LINE",
"281 677 LINE SMOOTH",
"277 684 OFFCURVE",
"267 700 OFFCURVE",
"240 700 CURVE SMOOTH",
"82 700 LINE SMOOTH",
"67 700 OFFCURVE",
"55 688 OFFCURVE",
"55 673 CURVE SMOOTH",
"55 27 LINE SMOOTH",
"55 12 OFFCURVE",
"67 0 OFFCURVE",
"82 0 CURVE SMOOTH",
"263 0 LINE SMOOTH"
);
},
{
closed = 1;
nodes = (
"218.052 188.002 OFFCURVE",
"217.891 176.823 OFFCURVE",
"208.226 150.267 CURVE",
"200.478 128.979 OFFCURVE",
"186.733 139.225 OFFCURVE",
"164.093 140.016 CURVE",
"141.869 140.792 OFFCURVE",
"127.873 132.221 OFFCURVE",
"121.743 153.596 CURVE",
"113.938 180.817 OFFCURVE",
"113.005 192.446 OFFCURVE",
"136.481 208.281 CURVE",
"161.092 224.881 OFFCURVE",
"172.39 223.677 OFFCURVE",
"195.783 205.401 CURVE"
);
},
{
closed = 1;
nodes = (
"157.236 622.526 OFFCURVE",
"155.756 618.618 OFFCURVE",
"154.94 610.85 CURVE",
"154.161 603.444 OFFCURVE",
"154.195 599.854 OFFCURVE",
"146.911 598.306 CURVE",
"138.862 596.595 OFFCURVE",
"135.99 597.873 OFFCURVE",
"131.876 605 CURVE",
"127.104 613.264 OFFCURVE",
"124.238 616.953 OFFCURVE",
"130.623 624.044 CURVE",
"137.164 631.308 OFFCURVE",
"141.172 629.679 OFFCURVE",
"150.101 625.703 CURVE"
);
},
{
closed = 1;
nodes = (
"615.157 196.163 OFFCURVE",
"612.237 189.987 OFFCURVE",
"605.845 176.28 CURVE",
"599.597 162.881 OFFCURVE",
"596.383 157.4 OFFCURVE",
"581.71 159.201 CURVE",
"565.958 161.135 OFFCURVE",
"561.524 165.27 OFFCURVE",
"558.496 180.848 CURVE",
"555.468 196.427 OFFCURVE",
"558.03 201.921 OFFCURVE",
"571.91 209.615 CURVE",
"586.052 217.454 OFFCURVE",
"592.271 217.505 OFFCURVE",
"604.096 206.478 CURVE"
);
},
{
closed = 1;
nodes = (
"284.453 508.113 OFFCURVE",
"296.507 498.096 OFFCURVE",
"280.035 471.735 CURVE",
"257.128 435.077 OFFCURVE",
"251.621 411.038 OFFCURVE",
"209.679 421.495 CURVE",
"165.185 432.589 OFFCURVE",
"162.372 452.303 OFFCURVE",
"159.173 498.047 CURVE",
"156.535 535.77 OFFCURVE",
"173.961 540.757 OFFCURVE",
"209.022 554.922 CURVE",
"236.851 566.166 OFFCURVE",
"245.179 554.918 OFFCURVE",
"264.472 531.925 CURVE"
);
},
{
closed = 1;
nodes = (
"106.975 375.411 OFFCURVE",
"111.705 376.336 OFFCURVE",
"112.844 368.227 CURVE",
"114.042 359.702 OFFCURVE",
"110.436 358.09 OFFCURVE",
"102.699 354.316 CURVE",
"96.318 351.203 OFFCURVE",
"94.019 353.252 OFFCURVE",
"89.087 358.359 CURVE",
"83.399 364.249 OFFCURVE",
"79.028 366.281 OFFCURVE",
"82.873 373.512 CURVE",
"86.717 380.742 OFFCURVE",
"90.846 378.255 OFFCURVE",
"98.91 376.833 CURVE"
);
},
{
closed = 1;
nodes = (
"378.766 407.237 OFFCURVE",
"387.621 398.308 OFFCURVE",
"382.149 367.276 CURVE",
"376.583 335.705 OFFCURVE",
"366.121 328.977 OFFCURVE",
"334.376 324.516 CURVE",
"308.648 320.9 OFFCURVE",
"312.324 340.936 OFFCURVE",
"300.935 364.287 CURVE",
"292.621 381.333 OFFCURVE",
"289.045 389.003 OFFCURVE",
"302.687 402.177 CURVE",
"321.455 420.301 OFFCURVE",
"327.907 434.279 OFFCURVE",
"350.943 422.03 CURVE"
);
},
{
closed = 1;
nodes = (
"611.18 466.769 OFFCURVE",
"630.385 466.825 OFFCURVE",
"630.99 432.169 CURVE",
"631.613 396.456 OFFCURVE",
"615.028 392.516 OFFCURVE",
"581.255 380.888 CURVE",
"543.251 367.802 OFFCURVE",
"525.097 351.356 OFFCURVE",
"500.908 383.457 CURVE",
"472.785 420.777 OFFCURVE",
"471.664 438.607 OFFCURVE",
"498.468 476.886 CURVE",
"521.286 509.474 OFFCURVE",
"539.989 488.534 OFFCURVE",
"578.034 476.903 CURVE"
);
},
{
closed = 1;
nodes = (
"390.159 312.27 OFFCURVE",
"391.27 311.159 OFFCURVE",
"391.914 307.095 CURVE",
"392.66 302.382 OFFCURVE",
"393.337 300.147 OFFCURVE",
"389.086 297.981 CURVE",
"384.62 295.705 OFFCURVE",
"382.888 296.799 OFFCURVE",
"379.343 300.343 CURVE",
"376.018 303.668 OFFCURVE",
"375.737 305.442 OFFCURVE",
"377.872 309.632 CURVE",
"379.882 313.576 OFFCURVE",
"381.723 313.606 OFFCURVE",
"386.095 312.914 CURVE"
);
},
{
closed = 1;
nodes = (
"527.074 312.11 OFFCURVE",
"534.906 306.965 OFFCURVE",
"525.314 295.12 CURVE",
"513.434 280.449 OFFCURVE",
"507.44 275.493 OFFCURVE",
"489.815 282.258 CURVE",
"471.158 289.42 OFFCURVE",
"467 295.822 OFFCURVE",
"468.047 315.779 CURVE",
"469.093 335.737 OFFCURVE",
"473.896 341.669 OFFCURVE",
"493.2 346.841 CURVE",
"509.476 351.203 OFFCURVE",
"509.596 339.025 OFFCURVE",
"518.773 324.893 CURVE"
);
},
{
closed = 1;
nodes = (
"257.597 315.499 OFFCURVE",
"259.108 313.82 OFFCURVE",
"257.659 308.412 CURVE",
"256.21 303.004 OFFCURVE",
"254.062 302.305 OFFCURVE",
"248.471 302.012 CURVE",
"243.465 301.75 OFFCURVE",
"242.328 303.453 OFFCURVE",
"240.531 308.133 CURVE",
"238.846 312.523 OFFCURVE",
"239.311 314.258 OFFCURVE",
"242.965 317.217 CURVE",
"246.861 320.372 OFFCURVE",
"248.698 321.278 OFFCURVE",
"252.902 318.548 CURVE"
);
},
{
closed = 1;
nodes = (
"536.153 124.055 OFFCURVE",
"531.714 122.6 OFFCURVE",
"523.137 118.417 CURVE",
"512.086 113.027 OFFCURVE",
"507.557 104.789 OFFCURVE",
"499.017 113.634 CURVE",
"489.877 123.098 OFFCURVE",
"494.047 128.303 OFFCURVE",
"500.224 139.92 CURVE",
"505.756 150.324 OFFCURVE",
"509.042 153.727 OFFCURVE",
"520.647 151.681 CURVE",
"531.997 149.68 OFFCURVE",
"533.221 144.919 OFFCURVE",
"534.825 133.505 CURVE"
);
},
{
closed = 1;
nodes = (
"560.962 625.463 OFFCURVE",
"555.358 621.893 OFFCURVE",
"543.302 613.761 CURVE",
"527.384 603.024 OFFCURVE",
"522.12 589.446 OFFCURVE",
"506.989 601.268 CURVE",
"491.081 613.696 OFFCURVE",
"497.784 622.607 OFFCURVE",
"504.689 641.577 CURVE",
"511.095 659.177 OFFCURVE",
"513.502 667.632 OFFCURVE",
"532.221 666.979 CURVE",
"550.717 666.333 OFFCURVE",
"551.853 657.232 OFFCURVE",
"556.954 639.442 CURVE"
);
},
{
closed = 1;
nodes = (
"435.279 328.209 OFFCURVE",
"440.69 329.168 OFFCURVE",
"440.99 320.593 CURVE",
"441.31 311.408 OFFCURVE",
"437.425 309.988 OFFCURVE",
"428.788 306.844 CURVE",
"420.151 303.701 OFFCURVE",
"416.262 302.291 OFFCURVE",
"410.604 309.534 CURVE",
"404.266 317.646 OFFCURVE",
"403.321 321.531 OFFCURVE",
"409.077 330.065 CURVE",
"414.099 337.511 OFFCURVE",
"418.399 333.049 OFFCURVE",
"427.032 330.574 CURVE"
);
},
{
closed = 1;
nodes = (
"309.972 584.451 OFFCURVE",
"309.066 583.086 OFFCURVE",
"306.596 580.143 CURVE",
"304.127 577.2 OFFCURVE",
"302.94 576.07 OFFCURVE",
"299.378 577.51 CURVE",
"295.563 579.051 OFFCURVE",
"294.73 580.384 OFFCURVE",
"295.017 584.488 CURVE",
"295.326 588.904 OFFCURVE",
"295.769 590.691 OFFCURVE",
"300.065 591.762 CURVE",
"304.36 592.833 OFFCURVE",
"305.59 591.464 OFFCURVE",
"307.936 587.709 CURVE"
);
},
{
closed = 1;
nodes = (
"587.81 71.572 OFFCURVE",
"583.179 70.148 OFFCURVE",
"573.861 66.192 CURVE",
"565.466 62.629 OFFCURVE",
"561.908 62.62 OFFCURVE",
"555.925 69.503 CURVE",
"549.348 77.069 OFFCURVE",
"547.408 80.678 OFFCURVE",
"552.571 89.271 CURVE",
"558.864 99.744 OFFCURVE",
"561.269 105.159 OFFCURVE",
"573.174 102.411 CURVE",
"585.304 99.61 OFFCURVE",
"585.843 94.058 OFFCURVE",
"586.928 81.656 CURVE"
);
},
{
closed = 1;
nodes = (
"504.423 227.942 OFFCURVE",
"502.467 221.814 OFFCURVE",
"503.873 211.809 CURVE",
"505.121 202.932 OFFCURVE",
"506.509 198.65 OFFCURVE",
"498.452 194.721 CURVE",
"490.191 190.691 OFFCURVE",
"487.314 193.663 OFFCURVE",
"480.929 200.275 CURVE",
"474.545 206.886 OFFCURVE",
"471.675 209.866 OFFCURVE",
"475.99 217.981 CURVE",
"481.127 227.642 OFFCURVE",
"483.698 231.596 OFFCURVE",
"494.473 229.696 CURVE"
);
},
{
closed = 1;
nodes = (
"658.571 619.04 OFFCURVE",
"658.894 616.364 OFFCURVE",
"653.474 613.951 CURVE",
"648.42 611.701 OFFCURVE",
"647.5 615.205 OFFCURVE",
"643.798 619.316 CURVE",
"640.605 622.862 OFFCURVE",
"638.82 624.368 OFFCURVE",
"641.206 628.5 CURVE",
"643.712 632.841 OFFCURVE",
"645.76 632.867 OFFCURVE",
"650.663 631.825 CURVE",
"655.566 630.783 OFFCURVE",
"657.427 629.926 OFFCURVE",
"657.951 624.941 CURVE"
);
},
{
closed = 1;
nodes = (
"123.948 240.226 OFFCURVE",
"127.144 239.015 OFFCURVE",
"125.716 232.297 CURVE",
"123.997 224.209 OFFCURVE",
"122.791 220.946 OFFCURVE",
"114.568 220.082 CURVE",
"105.799 219.161 OFFCURVE",
"102.883 220.844 OFFCURVE",
"99.297 228.899 CURVE",
"96.316 235.594 OFFCURVE",
"102.201 236.041 OFFCURVE",
"107.647 240.945 CURVE",
"111.624 244.526 OFFCURVE",
"113.365 246.336 OFFCURVE",
"118 243.66 CURVE"
);
},
{
closed = 1;
nodes = (
"202.589 378.248 OFFCURVE",
"203.289 374.953 OFFCURVE",
"199.703 366.899 CURVE",
"196.34 359.345 OFFCURVE",
"192.864 359.207 OFFCURVE",
"184.641 360.071 CURVE",
"175.36 361.047 OFFCURVE",
"170.334 360.129 OFFCURVE",
"168.393 369.258 CURVE",
"166.526 378.042 OFFCURVE",
"172.722 378.036 OFFCURVE",
"180.5 382.526 CURVE",
"187.264 386.432 OFFCURVE",
"190.233 389.374 OFFCURVE",
"196.037 384.147 CURVE"
);
},
{
closed = 1;
nodes = (
"156.028 266.421 OFFCURVE",
"158.049 263.664 OFFCURVE",
"153.192 258.808 CURVE",
"148.172 253.787 OFFCURVE",
"145.332 254.976 OFFCURVE",
"139.006 258.199 CURVE",
"132.68 261.422 OFFCURVE",
"130.049 263.021 OFFCURVE",
"131.16 270.034 CURVE",
"132.507 278.537 OFFCURVE",
"132.994 282.456 OFFCURVE",
"141.497 283.803 CURVE",
"149.416 285.057 OFFCURVE",
"149.27 279.683 OFFCURVE",
"152.91 272.54 CURVE"
);
}
);
width = 740;
}
);
leftKerningGroup = I;
rightKerningGroup = I;
unicode = 004E;
userData = {
com.typemytype.robofont.guides = (
{
angle = 0;
isGlobal = 0;
magnetic = 5;
x = 0;
y = 9;
},
{
angle = 0;
isGlobal = 0;
magnetic = 5;
x = 0;
y = 691;
},
{
angle = 90;
isGlobal = 0;
magnetic = 5;
x = 540;
y = 0;
},
{
angle = 90;
isGlobal = 0;
magnetic = 5;
x = 125;
y = 0;
}
);
};
},
